<svg width="24" height="24" viewBox="0 0 24 24" fill="none" xmlns="http://www.w3.org/2000/svg">
<path d="M12 3.5C13.6103 3.5 15.1547 4.14929 16.2934 5.30504C17.432 6.4608 18.0717 8.02833 18.0717 9.66281C18.0717 11.4445 17.318 13.08 15.8415 14.5438C15.7774 14.6074 15.7274 14.6842 15.695 14.769L15.6682 14.8566L14.7218 19.0175C14.6315 19.4144 14.4187 19.7717 14.1144 20.0372C13.8101 20.3028 13.4302 20.4629 13.0301 20.494L12.8852 20.5H11.1148C10.7135 20.5 10.3227 20.37 9.99929 20.1289C9.67588 19.8877 9.43675 19.5481 9.31672 19.1595L9.27903 19.0175L8.33268 14.8566C8.30584 14.7377 8.24596 14.6291 8.16016 14.5438C6.7532 13.1497 6.00198 11.6001 5.93331 9.91612L5.92828 9.66281L5.93163 9.4588C5.984 7.86067 6.64629 6.34577 7.77861 5.23406C8.91093 4.12234 10.4246 3.50085 12 3.50085V3.5ZM13.7713 17.524H10.2279L10.5034 18.7311C10.5322 18.8566 10.5978 18.9704 10.6915 19.0573C10.7852 19.1443 10.9027 19.2003 11.0285 19.2181L11.1148 19.2249H12.8852C13.0124 19.2248 13.1365 19.1855 13.2412 19.1121C13.3459 19.0388 13.4262 18.935 13.4714 18.8144L13.4966 18.7302L13.7713 17.524ZM12 4.77506C10.7547 4.77502 9.55784 5.26462 8.66059 6.14109C7.76334 7.01757 7.2355 8.21276 7.18785 9.4758L7.1845 9.66281L7.19036 9.89827C7.25401 11.2269 7.86035 12.4654 9.03784 13.6317C9.25893 13.851 9.42308 14.1213 9.51604 14.4188L9.55708 14.5701L9.93813 16.2489H14.061L14.4446 14.5693C14.5137 14.2643 14.6555 13.9811 14.8575 13.7447L14.9638 13.6317C16.1397 12.4645 16.746 11.2277 16.8096 9.89827L16.8155 9.66281L16.8122 9.4758C16.7647 8.21261 16.237 7.0172 15.3397 6.14055C14.4424 5.26389 13.2454 4.77418 12 4.77421V4.77506Z" fill="#0f172a"/>
</svg>
