<svg width="24" height="24" viewBox="0 0 24 24" fill="none" xmlns="http://www.w3.org/2000/svg">
  <path
    d="M6.77262 10.4671C6.9911 9.2149 7.6346 8.08109 8.59037 7.26434C9.54613 6.44759 10.7532 6 12 6C13.2468 6 14.4539 6.44759 15.4096 7.26434C16.3654 8.08109 17.0089 9.2149 17.2274 10.4671H17.3077C18.287 10.4671 19.2261 10.8639 19.9185 11.5703C20.611 12.2766 21 13.2346 21 14.2335C21 15.2325 20.611 16.1905 19.9185 16.8968C19.2261 17.6032 18.287 18 17.3077 18H6.69231C5.71305 18 4.77389 17.6032 4.08145 16.8968C3.38901 16.1905 3 15.2325 3 14.2335C3 13.2346 3.38901 12.2766 4.08145 11.5703C4.77389 10.8639 5.71305 10.4671 6.69231 10.4671H6.77262ZM12 7.40683C10.9935 7.40675 10.0255 7.80127 9.29617 8.5088C8.56684 9.21632 8.13198 10.1827 8.08154 11.2081C8.07277 11.3892 7.99611 11.5598 7.86741 11.6848C7.73871 11.8098 7.56784 11.8795 7.39015 11.8795H6.69231C6.08027 11.8795 5.4933 12.1275 5.06052 12.569C4.62775 13.0105 4.38462 13.6092 4.38462 14.2335C4.38462 14.8579 4.62775 15.4566 5.06052 15.8981C5.4933 16.3396 6.08027 16.5876 6.69231 16.5876H17.3077C17.9197 16.5876 18.5067 16.3396 18.9395 15.8981C19.3723 15.4566 19.6154 14.8579 19.6154 14.2335C19.6154 13.6092 19.3723 13.0105 18.9395 12.569C18.5067 12.1275 17.9197 11.8795 17.3077 11.8795H16.6098C16.432 11.8797 16.2609 11.8101 16.132 11.6851C16.0031 11.5601 15.9263 11.3893 15.9175 11.2081C15.8671 10.1829 15.4324 9.21662 14.7032 8.50912C13.9741 7.80162 13.0063 7.40699 12 7.40683V7.40683Z"
    fill="#0f172a" />
</svg>
