<svg width="24" height="24" viewBox="0 0 24 24" fill="none" xmlns="http://www.w3.org/2000/svg">
  <path
    d="M11.8987 4.00464L11.9987 3.99764C12.1801 3.9974 12.3555 4.06293 12.4923 4.18207C12.6291 4.30122 12.718 4.46591 12.7427 4.64564L12.7497 4.74764L12.7487 17.4436L15.9687 14.2226C16.0957 14.0956 16.2641 14.0184 16.4432 14.005C16.6223 13.9916 16.8002 14.0429 16.9447 14.1496L17.0287 14.2216C17.156 14.3487 17.2334 14.5172 17.2468 14.6966C17.2602 14.8759 17.2087 15.0541 17.1017 15.1986L17.0297 15.2826L12.5327 19.7826C12.4057 19.9097 12.2374 19.9869 12.0583 20.0003C11.8792 20.0137 11.7012 19.9623 11.5567 19.8556L11.4727 19.7826L6.96872 15.2826C6.83576 15.1486 6.75822 14.9694 6.75158 14.7808C6.74494 14.5921 6.80968 14.4079 6.93288 14.2649C7.05608 14.1219 7.22868 14.0306 7.41624 14.0092C7.60379 13.9878 7.79251 14.038 7.94472 14.1496L8.02872 14.2216L11.2487 17.4396V4.74764C11.2488 4.5661 11.3147 4.39075 11.4342 4.25411C11.5538 4.11748 11.7188 4.02884 11.8987 4.00464L11.9987 3.99764L11.8987 4.00464Z"
    fill="#0f172a" />
</svg>
