<svg width="24" height="24" viewBox="0 0 24 24" fill="none" xmlns="http://www.w3.org/2000/svg">
  <path fill-rule="evenodd" clip-rule="evenodd"
    d="M11.9304 4.04337C11.9449 4.02916 11.9595 4.01471 11.9743 4L12.6171 4.61244C12.7251 4.71419 12.8347 4.82009 12.9457 4.93011C13.8652 5.84098 14.8869 7.03406 16.011 8.49123C16.6795 9.35885 17.1938 10.2775 17.6051 11.2472C18.0165 12.2169 18.2222 13.059 18.2222 13.799C18.2222 15.5598 17.6309 17.0144 16.4224 18.2137C15.214 19.4131 13.7227 20 11.9743 20C10.2259 20 8.76033 19.3876 7.55188 18.1882C6.34343 16.9888 5.77778 15.5088 5.77778 13.799C5.77778 13.059 5.98347 12.2169 6.39486 11.2217C6.80624 10.252 7.32048 9.33333 7.93756 8.51675C9.1203 6.96013 10.2259 5.65869 11.3058 4.61244C11.4041 4.53928 11.6198 4.34959 11.9304 4.04337ZM11.9653 5.85127C11.0445 6.78198 10.0813 7.92683 9.03669 9.30157C8.49497 10.0187 8.03344 10.8387 7.65885 11.7205C7.28466 12.627 7.14221 13.2916 7.14221 13.799C7.14221 15.1975 7.59231 16.3341 8.52729 17.262C9.48306 18.2106 10.5987 18.6754 11.9743 18.6754C13.371 18.6754 14.5059 18.2216 15.447 17.2875C16.3918 16.3499 16.8578 15.234 16.8578 13.799C16.8578 13.2906 16.7146 12.6263 16.3435 11.7516C15.9698 10.8707 15.5095 10.0518 14.9184 9.28459C13.8096 7.84722 12.8261 6.70329 11.9653 5.85127Z"
    fill="#0f172a" />
</svg>
