<svg width="24" height="24" viewBox="0 0 24 24" fill="none" xmlns="http://www.w3.org/2000/svg">
  <path fill-rule="evenodd" clip-rule="evenodd"
    d="M5.55089 12C5.61127 12.108 5.68811 12.2397 5.78152 12.389C6.05737 12.8298 6.4732 13.4173 7.03099 14.0026C8.1491 15.1759 9.79102 16.2963 12.0001 16.2963C14.2091 16.2963 15.851 15.1759 16.9691 14.0026C17.5269 13.4173 17.9428 12.8298 18.2186 12.389C18.312 12.2397 18.3889 12.108 18.4493 12C18.3889 11.892 18.312 11.7603 18.2186 11.611C17.9428 11.1702 17.5269 10.5827 16.9691 9.99739C15.851 8.82408 14.2091 7.7037 12.0001 7.7037C9.79102 7.7037 8.1491 8.82408 7.03099 9.99739C6.4732 10.5827 6.05737 11.1702 5.78152 11.611C5.68811 11.7603 5.61127 11.892 5.55089 12ZM19.2729 12C19.9309 11.6846 19.9308 11.6843 19.9306 11.684L19.9295 11.6815L19.9272 11.6766L19.92 11.6614C19.914 11.6489 19.9057 11.6317 19.895 11.6101C19.8737 11.567 19.8429 11.5063 19.8026 11.4306C19.7221 11.2793 19.6032 11.0673 19.4453 10.8149C19.1302 10.3113 18.6551 9.6395 18.0129 8.96557C16.731 7.62036 14.7365 6.22222 12.0001 6.22222C9.26362 6.22222 7.26915 7.62036 5.98723 8.96557C5.34501 9.6395 4.86993 10.3113 4.55486 10.8149C4.39692 11.0673 4.27806 11.2793 4.19754 11.4306C4.15726 11.5063 4.12649 11.567 4.10515 11.6101C4.09447 11.6317 4.08615 11.6489 4.08017 11.6614L4.07295 11.6766L4.07065 11.6815L4.06983 11.6833C4.06969 11.6836 4.06922 11.6846 4.72728 12L4.06922 11.6846C3.97693 11.8844 3.97693 12.1156 4.06922 12.3154L4.72728 12C4.06922 12.3154 4.06908 12.3151 4.06922 12.3154L4.06983 12.3167L4.07065 12.3185L4.07295 12.3234L4.08017 12.3386C4.08615 12.3511 4.09447 12.3683 4.10515 12.3899C4.12649 12.433 4.15726 12.4937 4.19754 12.5694C4.27806 12.7207 4.39692 12.9327 4.55486 13.1851C4.86993 13.6887 5.34501 14.3605 5.98723 15.0344C7.26915 16.3796 9.26362 17.7778 12.0001 17.7778C14.7365 17.7778 16.731 16.3796 18.0129 15.0344C18.6551 14.3605 19.1302 13.6887 19.4453 13.1851C19.6032 12.9327 19.7221 12.7207 19.8026 12.5694C19.8429 12.4937 19.8737 12.433 19.895 12.3899C19.9057 12.3683 19.914 12.3511 19.92 12.3386L19.9272 12.3234L19.9295 12.3185L19.9303 12.3167C19.9305 12.3164 19.9309 12.3154 19.2729 12ZM19.2729 12L19.9309 12.3154C20.0232 12.1156 20.0229 11.8838 19.9306 11.684L19.2729 12Z"
    fill="#0f172a" />
  <path
    d="M12.0001 13.4815C12.8034 13.4815 13.4546 12.8182 13.4546 12C13.4546 11.1818 12.8034 10.5185 12.0001 10.5185C11.1967 10.5185 10.5455 11.1818 10.5455 12C10.5455 12.8182 11.1967 13.4815 12.0001 13.4815Z"
    fill="#0f172a" />
  <path fill-rule="evenodd" clip-rule="evenodd"
    d="M12.0001 11.2593C11.5984 11.2593 11.2728 11.5909 11.2728 12C11.2728 12.4091 11.5984 12.7407 12.0001 12.7407C12.4017 12.7407 12.7273 12.4091 12.7273 12C12.7273 11.5909 12.4017 11.2593 12.0001 11.2593ZM9.81822 12C9.81822 10.7727 10.7951 9.77778 12.0001 9.77778C13.2051 9.77778 14.1819 10.7727 14.1819 12C14.1819 13.2273 13.2051 14.2222 12.0001 14.2222C10.7951 14.2222 9.81822 13.2273 9.81822 12Z"
    fill="#0f172a" />
</svg>
