<svg width="24" height="24" viewBox="0 0 24 24" fill="none" xmlns="http://www.w3.org/2000/svg">
  <path
    d="M7.90721 7.91325C8.90575 7.08504 10.1384 6.5807 11.4374 6.46885V7.74066C11.4374 7.888 11.4967 8.0293 11.6022 8.13349C11.7077 8.23767 11.8507 8.2962 11.9999 8.2962C12.1491 8.2962 12.2922 8.23767 12.3976 8.13349C12.5031 8.0293 12.5624 7.888 12.5624 7.74066V6.46885C14.085 6.60242 15.5084 7.27177 16.5732 8.35495C17.638 9.43813 18.2734 10.8631 18.3636 12.3701H17.0623C16.9132 12.3701 16.7701 12.4287 16.6646 12.5329C16.5591 12.637 16.4998 12.7783 16.4998 12.9257C16.4998 13.073 16.5591 13.2143 16.6646 13.3185C16.7701 13.4227 16.9132 13.4812 17.0623 13.4812H18.3328C18.1378 15.1937 17.2656 16.6278 15.9569 17.6796C15.8411 17.7727 15.7675 17.9074 15.7523 18.0541C15.7371 18.2008 15.7816 18.3475 15.8759 18.4618C15.9701 18.5761 16.1065 18.6488 16.2551 18.6638C16.4036 18.6788 16.5521 18.6349 16.6678 18.5418C18.3373 17.1989 19.4203 15.2871 19.4953 12.9975C19.5003 12.9592 19.5013 12.9205 19.4983 12.882L19.4998 12.7405C19.4998 8.64952 16.1421 5.33334 11.9999 5.33334C7.85771 5.33334 4.5 8.64952 4.5 12.7405C4.5 15.1493 5.64224 17.1507 7.32746 18.5373C7.4425 18.6275 7.58866 18.6696 7.73473 18.6548C7.8808 18.6399 8.0152 18.5692 8.10921 18.4578C8.20322 18.3464 8.24938 18.2031 8.23784 18.0585C8.2263 17.9139 8.15798 17.7795 8.04745 17.684C6.76497 16.6278 5.87023 15.19 5.66849 13.4812H6.93747C7.08665 13.4812 7.22972 13.4227 7.33521 13.3185C7.4407 13.2143 7.49996 13.073 7.49996 12.9257C7.49996 12.7783 7.4407 12.637 7.33521 12.5329C7.22972 12.4287 7.08665 12.3701 6.93747 12.3701H5.63549C5.71798 10.9761 6.25873 9.70356 7.11222 8.69841L8.03995 9.61467C8.14658 9.7128 8.28762 9.76623 8.43334 9.76369C8.57907 9.76115 8.7181 9.70284 8.82116 9.60106C8.92422 9.49928 8.98325 9.36196 8.98582 9.21804C8.9884 9.07412 8.9343 8.93483 8.83495 8.82951L7.90721 7.91325ZM15.5699 8.76581C15.4827 8.69952 15.3753 8.6645 15.2653 8.66652C15.1553 8.66854 15.0492 8.70748 14.9646 8.77692L14.8011 8.91248C14.2114 9.40156 13.6237 9.8929 13.0379 10.3865C12.5459 10.8013 12.0427 11.2309 11.6407 11.5813C11.4666 11.7324 11.2943 11.8854 11.1239 12.0405C11.0127 12.1389 10.9075 12.2438 10.8089 12.3546C10.6926 12.496 10.6062 12.6591 10.5549 12.8341C10.5036 13.0091 10.4884 13.1925 10.5102 13.3735C10.5321 13.5544 10.5905 13.7291 10.682 13.8874C10.7735 14.0456 10.8962 14.184 11.0429 14.2945C11.3417 14.522 11.7185 14.6256 12.0933 14.5833C12.4682 14.541 12.8116 14.3561 13.0506 14.0679C13.1166 13.9879 13.2044 13.8486 13.2944 13.6997C13.3904 13.5405 13.5081 13.3368 13.6386 13.1086C13.8989 12.6494 14.2146 12.0776 14.5199 11.5198C14.8824 10.8554 15.2421 10.1894 15.5991 9.52208L15.6974 9.33765C15.7478 9.2428 15.7627 9.13337 15.7394 9.02872C15.7161 8.92407 15.656 8.83095 15.5699 8.76581V8.76581Z"
    fill="#0f172a" />
</svg>
