<svg width="24" height="24" viewBox="0 0 24 24" fill="none" xmlns="http://www.w3.org/2000/svg">
  <path
    d="M6.192 11.8878C6.192 11.1038 6.344 10.3518 6.656 9.63175C6.96 8.91175 7.376 8.29575 7.896 7.77575C8.416 7.25575 9.04 6.83975 9.752 6.52775C10.472 6.21575 11.224 6.06375 12.016 6.06375H12.952C13.08 6.09575 13.144 6.17575 13.144 6.28775L13.184 7.00775C13.2 7.51975 13.304 8.00775 13.504 8.47175C13.704 8.93575 13.968 9.33575 14.304 9.67175C14.64 10.0158 15.032 10.2878 15.488 10.4958C15.944 10.7038 16.424 10.8158 16.928 10.8398L17.608 10.8958C17.736 10.8958 17.8 10.9598 17.8 11.0798V11.8878C17.808 12.6958 17.648 13.4718 17.328 14.2238H15.688C16.096 13.6318 16.352 12.9518 16.464 12.1998C15.12 11.9198 14.048 11.3438 13.24 10.4718C12.432 9.59975 11.968 8.57575 11.84 7.40775C11.064 7.44775 10.36 7.68775 9.712 8.12775C9.072 8.56775 8.576 9.11975 8.216 9.79175C7.864 10.4638 7.688 11.1678 7.688 11.8958C7.688 12.7518 7.912 13.5278 8.352 14.2318H6.672C6.352 13.4798 6.192 12.7038 6.192 11.8878V11.8878ZM6.392 16.7118C6.392 16.5038 6.472 16.3198 6.632 16.1598C6.776 16.0158 6.96 15.9438 7.176 15.9438H9.752C9.84 15.9438 9.912 15.9598 9.976 16.0078L11.856 17.7838L13.768 15.9998C13.824 15.9598 13.904 15.9358 14 15.9358H16.64C16.856 15.9358 17.04 16.0078 17.192 16.1598C17.344 16.3118 17.424 16.4958 17.424 16.7038C17.424 16.9198 17.344 17.1038 17.192 17.2558C17.04 17.4078 16.856 17.4878 16.64 17.4878H14.496L11.992 19.7598C11.896 19.8318 11.8 19.8318 11.72 19.7598L9.256 17.4878H7.176C6.96 17.4878 6.776 17.4078 6.624 17.2558C6.54926 17.1865 6.48997 17.1022 6.44999 17.0085C6.41002 16.9148 6.39026 16.8136 6.392 16.7118V16.7118Z"
    fill="#0f172a" />
</svg>
