<svg width="24" height="24" viewBox="0 0 24 24" fill="none" xmlns="http://www.w3.org/2000/svg">
  <path
    d="M6.24001 11.8878C6.24001 11.1038 6.39201 10.3518 6.70401 9.63175C7.00801 8.91175 7.42401 8.29575 7.94401 7.77575C8.46401 7.25575 9.08801 6.83975 9.80001 6.52775C10.512 6.21575 11.272 6.06375 12.064 6.06375H13C13.128 6.09575 13.192 6.17575 13.192 6.28775L13.224 7.00775C13.256 8.04775 13.632 8.93575 14.352 9.67175C15.072 10.4078 15.952 10.7998 16.976 10.8398L17.656 10.8958C17.784 10.8958 17.84 10.9598 17.84 11.0798V11.8878C17.848 12.7118 17.688 13.4878 17.376 14.2238H15.736C16.144 13.6318 16.4 12.9518 16.512 12.1998C15.176 11.9198 14.096 11.3438 13.288 10.4718C12.48 9.59975 12.016 8.57575 11.888 7.40775C11.112 7.44775 10.408 7.68775 9.76001 8.12775C9.12001 8.56775 8.61601 9.11975 8.26401 9.79175C7.91201 10.4638 7.73601 11.1678 7.73601 11.8958C7.73601 12.7518 7.96001 13.5278 8.40001 14.2318H6.72001C6.40001 13.4798 6.24001 12.7038 6.24001 11.8878V11.8878ZM6.47201 16.6958C6.47201 16.4638 6.54401 16.2798 6.69601 16.1518C6.84001 16.0078 7.02401 15.9438 7.24801 15.9438H9.35201L11.84 13.5998C11.92 13.5358 12.016 13.5358 12.12 13.5998L14.648 15.9358H16.864C17.08 15.9358 17.264 16.0078 17.416 16.1598C17.49 16.2279 17.5488 16.3109 17.5888 16.4032C17.6288 16.4955 17.6489 16.5952 17.648 16.6958C17.648 16.9118 17.568 17.0958 17.416 17.2478C17.264 17.3998 17.08 17.4798 16.864 17.4798H14.16C14.08 17.4798 14 17.4638 13.928 17.4238L12 15.6078L10.088 17.4238C10.024 17.4638 9.95201 17.4798 9.86401 17.4798H7.24801C7.03201 17.4798 6.84801 17.3998 6.69601 17.2478C6.54401 17.0958 6.47201 16.9118 6.47201 16.6958V16.6958Z"
    fill="#0f172a" />
</svg>
