<svg width="24" height="24" viewBox="0 0 24 24" fill="none" xmlns="http://www.w3.org/2000/svg">
  <path
    d="M4.50013 12.0149C4.50013 11.826 4.56981 11.6571 4.6992 11.5179C4.75918 11.4509 4.83289 11.3976 4.91533 11.3616C4.99777 11.3255 5.087 11.3077 5.17697 11.3091C5.36609 11.3091 5.53529 11.3787 5.66469 11.5179C5.79408 11.6571 5.86376 11.8161 5.86376 12.0149C5.86376 12.2038 5.79408 12.3628 5.66469 12.492C5.60234 12.5554 5.52799 12.6057 5.44596 12.6401C5.36393 12.6744 5.27587 12.6921 5.18692 12.6921C5.09798 12.6921 5.00992 12.6744 4.92789 12.6401C4.84586 12.6057 4.7715 12.5554 4.70916 12.492C4.64177 12.4324 4.58817 12.3588 4.55207 12.2764C4.51598 12.1941 4.49826 12.1048 4.50013 12.0149V12.0149ZM6.47092 12.0149C6.47092 11.826 6.54059 11.6571 6.66999 11.5179C6.72997 11.4509 6.80368 11.3976 6.88611 11.3616C6.96855 11.3255 7.05779 11.3077 7.14776 11.3091H10.3627L8.09333 9.04274C8.02563 8.98551 7.9717 8.91381 7.93551 8.83293C7.89933 8.75206 7.88183 8.66409 7.88431 8.57555C7.88431 8.38668 7.95399 8.22763 8.09333 8.08847C8.23268 7.9493 8.39194 7.87972 8.58105 7.87972C8.77017 7.87972 8.92942 7.9493 9.06877 8.08847L11.3282 10.3449V7.15408C11.3282 6.96521 11.3979 6.79622 11.5372 6.65706C11.6766 6.51789 11.8358 6.44831 12.0349 6.44831C12.224 6.44831 12.3833 6.51789 12.5127 6.65706C12.6421 6.79622 12.7117 6.95527 12.7117 7.15408V10.3648L14.9911 8.07853C15.1304 7.93936 15.2897 7.86978 15.4688 7.86978C15.648 7.86978 15.8172 7.93936 15.9566 8.07853C16.076 8.21769 16.1357 8.37674 16.1357 8.56561C16.1357 8.75447 16.076 8.91352 15.9566 9.0328L13.6872 11.2992H16.9021C17.0813 11.2992 17.2406 11.3688 17.37 11.508C17.4994 11.6471 17.569 11.8062 17.569 12.005C17.569 12.1839 17.4994 12.3429 17.37 12.4722C17.3095 12.5351 17.2368 12.5852 17.1564 12.6194C17.076 12.6536 16.9895 12.6711 16.9021 12.671H13.6872L15.9665 14.9473C16.086 15.0666 16.1457 15.2256 16.1457 15.4145C16.1457 15.6034 16.086 15.7624 15.9665 15.9016C15.8272 16.0408 15.658 16.1103 15.4788 16.1103C15.2996 16.1103 15.1304 16.0408 15.001 15.9016L12.7217 13.6153V16.836C12.7217 17.0248 12.652 17.1938 12.5226 17.3231C12.3932 17.4523 12.234 17.5219 12.0449 17.5219C11.8595 17.5224 11.6811 17.4511 11.5472 17.3231C11.4798 17.2612 11.4264 17.1859 11.3904 17.1019C11.3543 17.0179 11.3365 16.9273 11.3382 16.836V13.6352L9.07873 15.8916C8.93938 16.0308 8.78012 16.1004 8.59101 16.1004C8.40189 16.1004 8.24264 16.0308 8.10329 15.8916C7.96394 15.7525 7.89426 15.5934 7.89426 15.4046C7.89426 15.2157 7.96394 15.0666 8.10329 14.9374L10.3926 12.661H7.16766C6.97855 12.661 6.81929 12.5915 6.6899 12.4622C6.61809 12.4126 6.56024 12.3455 6.52189 12.2671C6.48355 12.1888 6.466 12.102 6.47092 12.0149V12.0149ZM6.48087 16.826C6.48087 16.6471 6.55055 16.4781 6.6899 16.3489C6.80934 16.2097 6.96859 16.1402 7.15771 16.1402C7.34682 16.1402 7.50608 16.2097 7.64543 16.3489C7.78478 16.4881 7.85445 16.6471 7.85445 16.826C7.85445 17.005 7.78478 17.174 7.64543 17.3032C7.50608 17.4423 7.34682 17.5119 7.15771 17.5119C6.96859 17.5119 6.80934 17.4423 6.6899 17.3032C6.62282 17.2433 6.56943 17.1697 6.53336 17.0873C6.4973 17.005 6.47939 16.9159 6.48087 16.826V16.826ZM6.48087 7.17396C6.48087 6.99503 6.55055 6.82604 6.6899 6.69682C6.80934 6.55765 6.96859 6.48807 7.15771 6.48807C7.34682 6.48807 7.50608 6.55765 7.64543 6.69682C7.78478 6.83598 7.85445 6.99503 7.85445 7.17396C7.85445 7.35288 7.78478 7.52187 7.64543 7.66103C7.50608 7.8002 7.34682 7.86978 7.15771 7.86978C6.96859 7.86978 6.80934 7.8002 6.6899 7.66103C6.62414 7.59799 6.57174 7.52238 6.53583 7.4387C6.49993 7.35503 6.48124 7.26499 6.48087 7.17396V7.17396ZM11.3083 18.8141C11.3083 18.6352 11.378 18.4761 11.5173 18.3469C11.6567 18.2177 11.8159 18.1481 12.015 18.1481C12.2041 18.1481 12.3634 18.2177 12.4928 18.3469C12.6222 18.4761 12.6918 18.6352 12.6918 18.8141C12.6918 19.003 12.6222 19.172 12.4928 19.3012C12.3634 19.4304 12.2041 19.5 12.015 19.5C11.8296 19.5005 11.6512 19.4293 11.5173 19.3012C11.4492 19.24 11.3952 19.1647 11.3592 19.0806C11.3231 18.9965 11.3057 18.9056 11.3083 18.8141V18.8141ZM11.3083 5.18588C11.3083 4.99702 11.378 4.82803 11.5173 4.69881C11.6567 4.56958 11.8159 4.5 12.015 4.5C12.2041 4.5 12.3634 4.56958 12.4928 4.69881C12.5871 4.79333 12.6513 4.91363 12.6773 5.04453C12.7032 5.17543 12.6898 5.31109 12.6388 5.43439C12.5877 5.5577 12.5012 5.66315 12.3902 5.73745C12.2792 5.81174 12.1486 5.85156 12.015 5.85189C11.8296 5.8524 11.6512 5.78114 11.5173 5.65308C11.4512 5.59454 11.3984 5.52258 11.3623 5.44201C11.3263 5.36145 11.3079 5.27413 11.3083 5.18588V5.18588ZM16.1556 16.826C16.1556 16.6471 16.2253 16.4781 16.3647 16.3489C16.4841 16.2097 16.6434 16.1402 16.8325 16.1402C17.0216 16.1402 17.1808 16.2097 17.3202 16.3489C17.4595 16.4881 17.5292 16.6471 17.5292 16.826C17.5292 17.005 17.4595 17.174 17.3202 17.3032C17.1808 17.4423 17.0216 17.5119 16.8325 17.5119C16.6434 17.5119 16.4841 17.4423 16.3647 17.3032C16.2976 17.2433 16.2442 17.1697 16.2081 17.0873C16.1721 17.005 16.1542 16.9159 16.1556 16.826V16.826ZM16.1556 7.17396C16.1556 6.99503 16.2253 6.82604 16.3647 6.69682C16.4841 6.55765 16.6434 6.48807 16.8325 6.48807C17.0216 6.48807 17.1808 6.55765 17.3202 6.69682C17.4595 6.83598 17.5292 6.99503 17.5292 7.17396C17.5292 7.35288 17.4595 7.52187 17.3202 7.66103C17.1808 7.8002 17.0216 7.86978 16.8325 7.86978C16.6434 7.86978 16.4841 7.8002 16.3647 7.66103C16.2989 7.59799 16.2465 7.52238 16.2106 7.4387C16.1747 7.35503 16.156 7.26499 16.1556 7.17396ZM18.1463 12.0149C18.1463 11.826 18.216 11.6571 18.3454 11.5179C18.4748 11.3787 18.644 11.3091 18.8331 11.3091C19.0123 11.3091 19.1715 11.3787 19.3009 11.5179C19.4303 11.6571 19.5 11.8161 19.5 12.0149C19.5 12.1938 19.4303 12.3529 19.3009 12.4821C19.1741 12.6084 19.0023 12.6793 18.8232 12.6793C18.6441 12.6793 18.4723 12.6084 18.3454 12.4821C18.2823 12.4217 18.2322 12.3491 18.198 12.2689C18.1638 12.1886 18.1462 12.1022 18.1463 12.0149V12.0149Z"
    fill="#0f172a" />
</svg>
