<svg width="24" height="24" viewBox="0 0 24 24" fill="none" xmlns="http://www.w3.org/2000/svg">
  <path
    d="M2.2 12.2877C2.2 12.0877 2.28 11.9037 2.44 11.7357C2.616 11.5837 2.808 11.5037 3 11.5037H4.864C5.08 11.5037 5.256 11.5837 5.4 11.7357C5.544 11.8877 5.616 12.0797 5.616 12.2877C5.616 12.5197 5.544 12.7117 5.4 12.8637C5.33182 12.9377 5.2489 12.9966 5.15658 13.0365C5.06426 13.0765 4.96459 13.0967 4.864 13.0957H3C2.784 13.0957 2.6 13.0157 2.44 12.8557C2.28 12.6877 2.2 12.4957 2.2 12.2877V12.2877ZM4.864 5.90375C4.864 5.68775 4.936 5.50375 5.072 5.35975C5.256 5.19975 5.44 5.11975 5.64 5.11975C5.848 5.11975 6.032 5.19975 6.184 5.35175L7.496 6.67175C7.648 6.84775 7.72 7.03175 7.72 7.22375C7.72 7.44775 7.648 7.63975 7.504 7.78375C7.36 7.92775 7.184 8.00775 6.976 8.00775C6.784 8.00775 6.592 7.92775 6.416 7.77575L5.072 6.48775C4.936 6.31975 4.864 6.11975 4.864 5.90375ZM6.464 16.7037C6.464 16.4797 6.544 16.2957 6.696 16.1597C6.84 16.0237 7.016 15.9517 7.24 15.9517H9.344L11.832 13.6157C11.912 13.5517 12 13.5517 12.104 13.6157L14.632 15.9517H16.848C17.064 15.9517 17.248 16.0237 17.4 16.1757C17.474 16.2439 17.5328 16.3268 17.5728 16.4192C17.6127 16.5115 17.6329 16.6112 17.632 16.7117C17.632 16.9277 17.552 17.1117 17.4 17.2637C17.248 17.4157 17.064 17.4957 16.848 17.4957H14.144C14.064 17.4957 13.984 17.4797 13.912 17.4397L11.984 15.6237L10.072 17.4397C10.008 17.4797 9.936 17.4957 9.848 17.4957H7.24C7.13685 17.4953 7.03482 17.4745 6.93981 17.4343C6.8448 17.3942 6.75871 17.3356 6.68652 17.2619C6.61434 17.1882 6.5575 17.1009 6.5193 17.0051C6.4811 16.9093 6.4623 16.8069 6.464 16.7037V16.7037ZM7.2 12.2877C7.2 13.0637 7.368 13.7677 7.696 14.3997C7.712 14.4957 7.784 14.5437 7.896 14.5437H9.4C9.456 14.5437 9.496 14.5197 9.52 14.4797C9.544 14.4317 9.536 14.3837 9.504 14.3277C8.992 13.7117 8.736 13.0317 8.736 12.2877C8.736 11.3917 9.056 10.6237 9.696 9.99175C10.336 9.35975 11.104 9.04775 12.008 9.04775C12.904 9.04775 13.664 9.35975 14.296 9.99175C14.928 10.6237 15.248 11.3837 15.248 12.2877C15.248 13.0397 14.992 13.7197 14.488 14.3277C14.456 14.3837 14.448 14.4317 14.464 14.4797C14.48 14.5277 14.52 14.5437 14.584 14.5437H16.104C16.208 14.5437 16.272 14.4957 16.288 14.3997C16.64 13.7837 16.8 13.0797 16.8 12.2877C16.8 11.6397 16.672 11.0157 16.416 10.4317C16.16 9.83975 15.816 9.33575 15.392 8.90375C14.9522 8.46864 14.4336 8.12114 13.864 7.87975C13.272 7.62375 12.656 7.50375 12.008 7.50375C11.36 7.50375 10.736 7.63175 10.144 7.87975C9.552 8.13575 9.04 8.47175 8.608 8.90375C8.16168 9.34704 7.80749 9.87427 7.56584 10.4551C7.32419 11.0358 7.19986 11.6587 7.2 12.2877V12.2877ZM11.224 5.11975V3.27975C11.224 3.04775 11.296 2.86375 11.448 2.71175C11.6 2.55975 11.792 2.48775 12.016 2.48775C12.24 2.48775 12.424 2.55975 12.576 2.71175C12.728 2.86375 12.8 3.06375 12.8 3.28775V5.12775C12.8 5.35975 12.728 5.54375 12.576 5.69575C12.432 5.83975 12.24 5.91975 12.016 5.91975C11.911 5.92371 11.8063 5.90585 11.7085 5.8673C11.6107 5.82874 11.522 5.77033 11.448 5.69575C11.3733 5.62015 11.3148 5.53003 11.2763 5.43096C11.2378 5.33189 11.22 5.22597 11.224 5.11975V5.11975ZM16.304 7.23175C16.304 7.03175 16.376 6.84775 16.52 6.67975L17.816 5.35975C17.968 5.20775 18.16 5.12775 18.376 5.12775C18.592 5.12775 18.784 5.20775 18.928 5.35975C19.08 5.51175 19.152 5.69575 19.152 5.91175C19.152 6.14375 19.08 6.33575 18.944 6.49575L17.6 7.78375C17.432 7.93575 17.24 8.01575 17.04 8.01575C16.824 8.01575 16.648 7.94375 16.512 7.79175C16.376 7.63975 16.304 7.45575 16.304 7.23175V7.23175ZM18.392 12.2877C18.392 12.0717 18.464 11.8877 18.608 11.7357C18.752 11.5837 18.928 11.5037 19.136 11.5037H21.016C21.232 11.5037 21.416 11.5837 21.568 11.7357C21.7165 11.8843 21.7999 12.0857 21.7999 12.2957C21.7999 12.5058 21.7165 12.7072 21.568 12.8557C21.416 13.0157 21.232 13.0957 21.016 13.0957H19.136C18.92 13.0957 18.744 13.0157 18.6 12.8637C18.464 12.7037 18.392 12.5117 18.392 12.2877V12.2877Z"
    fill="#0f172a" />
</svg>
