<svg width="24" height="24" viewBox="0 0 24 24" fill="none" xmlns="http://www.w3.org/2000/svg">
  <path
    d="M2.304 12.3757C2.304 12.1517 2.384 11.9757 2.544 11.8317C2.68 11.6877 2.864 11.6237 3.088 11.6237H4.936C5.03518 11.6208 5.13391 11.6383 5.22603 11.6752C5.31815 11.712 5.40171 11.7675 5.47149 11.838C5.54128 11.9085 5.5958 11.9927 5.63168 12.0852C5.66755 12.1777 5.684 12.2766 5.68 12.3757C5.68 12.5997 5.608 12.7917 5.464 12.9437C5.32 13.0957 5.144 13.1757 4.936 13.1757H3.096C2.88 13.1757 2.696 13.0957 2.544 12.9357C2.384 12.7757 2.304 12.5917 2.304 12.3757V12.3757ZM4.936 6.08775C4.936 5.86375 5 5.67975 5.136 5.54375C5.296 5.38375 5.48 5.30375 5.696 5.30375C5.928 5.30375 6.104 5.38375 6.24 5.54375L7.536 6.84775C7.904 7.19975 7.904 7.55975 7.536 7.92775C7.46955 7.99905 7.38902 8.05577 7.29951 8.09433C7.21 8.13289 7.11346 8.15244 7.016 8.15175C6.84 8.15175 6.664 8.07975 6.472 7.92775L5.144 6.63175C5.00593 6.48476 4.93122 6.28936 4.936 6.08775V6.08775ZM6.512 16.7117C6.512 16.5037 6.592 16.3197 6.752 16.1597C6.896 16.0157 7.08 15.9437 7.296 15.9437H9.872C9.96 15.9437 10.032 15.9597 10.096 16.0077L11.976 17.7837L13.888 15.9997C13.944 15.9597 14.024 15.9357 14.12 15.9357H16.76C16.976 15.9357 17.16 16.0077 17.312 16.1597C17.464 16.3117 17.544 16.4957 17.544 16.7037C17.544 16.9197 17.464 17.1037 17.312 17.2557C17.16 17.4077 16.976 17.4877 16.76 17.4877H14.616L12.104 19.7597C12.008 19.8317 11.92 19.8317 11.84 19.7597L9.376 17.4877H7.296C7.08 17.4877 6.896 17.4077 6.744 17.2557C6.66926 17.1865 6.60997 17.1022 6.56999 17.0085C6.53002 16.9148 6.51026 16.8136 6.512 16.7117V16.7117ZM7.264 12.3757C7.264 13.1677 7.416 13.8717 7.728 14.4717C7.776 14.5597 7.848 14.5997 7.944 14.5997H9.44C9.504 14.5997 9.544 14.5837 9.56 14.5437C9.576 14.5037 9.552 14.4557 9.504 14.3997C9.032 13.8077 8.792 13.1277 8.792 12.3757C8.792 11.4957 9.104 10.7437 9.736 10.1277C10.368 9.51175 11.128 9.19975 12.016 9.19975C12.896 9.19975 13.648 9.51175 14.28 10.1277C14.904 10.7517 15.224 11.4957 15.224 12.3677C15.224 13.1197 14.984 13.7997 14.512 14.3917C14.456 14.4477 14.44 14.4957 14.456 14.5357C14.472 14.5757 14.512 14.5917 14.576 14.5917H16.08C16.184 14.5917 16.248 14.5517 16.272 14.4637C16.6 13.8397 16.768 13.1357 16.768 12.3677C16.768 11.7357 16.64 11.1197 16.392 10.5357C16.144 9.95175 15.8 9.43975 15.376 9.01575C14.952 8.59175 14.448 8.25575 13.864 7.99975C13.2836 7.74743 12.6568 7.61935 12.024 7.62375C11.384 7.62375 10.768 7.75175 10.184 7.99975C9.6 8.25575 9.096 8.59175 8.672 9.01575C8.248 9.43975 7.912 9.94375 7.656 10.5357C7.4 11.1277 7.264 11.7437 7.264 12.3757V12.3757ZM11.232 5.32775V3.46375C11.232 3.24775 11.312 3.06375 11.464 2.91175C11.616 2.75975 11.8 2.67975 12.016 2.67975C12.232 2.67975 12.416 2.75975 12.568 2.91175C12.72 3.06375 12.8 3.24775 12.8 3.46375V5.31975C12.8 5.53575 12.72 5.71975 12.568 5.87175C12.416 6.02375 12.232 6.10375 12.016 6.10375C11.8 6.10375 11.616 6.02375 11.464 5.87175C11.3884 5.80312 11.3286 5.71899 11.2886 5.6251C11.2485 5.53121 11.2292 5.42978 11.232 5.32775V5.32775ZM16.248 7.39175C16.248 7.16775 16.32 6.98375 16.456 6.85575L17.76 5.55175C17.888 5.39175 18.072 5.31175 18.304 5.31175C18.52 5.31175 18.704 5.39175 18.848 5.54375C18.992 5.69575 19.064 5.87975 19.064 6.09575C19.064 6.31975 19 6.50375 18.864 6.63975L17.536 7.94375C17.352 8.09575 17.168 8.16775 16.984 8.16775C16.8851 8.17007 16.7869 8.15129 16.6959 8.11267C16.6048 8.07404 16.523 8.01646 16.456 7.94375C16.32 7.79175 16.248 7.60775 16.248 7.39175V7.39175ZM18.32 12.3757C18.32 12.1597 18.392 11.9837 18.528 11.8397C18.664 11.6957 18.848 11.6237 19.064 11.6237H20.92C21.136 11.6237 21.32 11.6957 21.472 11.8397C21.624 11.9837 21.704 12.1597 21.704 12.3757C21.704 12.5917 21.624 12.7757 21.472 12.9357C21.32 13.0957 21.136 13.1757 20.92 13.1757H19.064C18.856 13.1757 18.68 13.0957 18.536 12.9437C18.3919 12.7903 18.3143 12.5862 18.32 12.3757V12.3757Z"
    fill="#0f172a" />
</svg>
