<svg width="24" height="24" viewBox="0 0 24 24" fill="none" xmlns="http://www.w3.org/2000/svg">
  <path
    d="M6.97107 8.715L11.4651 4.22C11.5921 4.09298 11.7604 4.01575 11.9395 4.00236C12.1186 3.98896 12.2966 4.04029 12.4411 4.147L12.5261 4.219L17.0301 8.714C17.1634 8.84784 17.2412 9.02704 17.2482 9.2158C17.2551 9.40456 17.1905 9.58897 17.0674 9.7322C16.9442 9.87542 16.7716 9.96691 16.5839 9.98838C16.3962 10.0098 16.2074 9.95971 16.0551 9.848L15.9711 9.776L12.7481 6.559V19.255C12.7481 19.4362 12.6824 19.6113 12.5633 19.7479C12.4442 19.8845 12.2796 19.9733 12.1001 19.998L11.9991 20.005C11.8178 20.005 11.6427 19.9394 11.5061 19.8202C11.3696 19.7011 11.2807 19.5366 11.2561 19.357L11.2491 19.255L11.2481 6.557L8.03108 9.775C7.90409 9.90202 7.73573 9.97924 7.55662 9.99264C7.37751 10.006 7.19955 9.95471 7.05507 9.848L6.97107 9.775C6.84406 9.64801 6.76683 9.47966 6.75343 9.30055C6.74004 9.12144 6.79136 8.94347 6.89807 8.799L6.97107 8.715L11.4651 4.22L6.97107 8.715Z"
    fill="#0f172a" />
</svg>
