<svg width="24" height="24" viewBox="0 0 24 24" fill="none" xmlns="http://www.w3.org/2000/svg">
  <path fill-rule="evenodd" clip-rule="evenodd"
    d="M8.93691 7.4379L8.39978 6.81414C8.38526 6.82865 8.29816 6.91568 8.1675 7.07525C8.12851 7.12287 8.09081 7.1692 8.05478 7.21347C8.01167 7.26646 7.97096 7.31649 7.93332 7.36223C7.89703 7.40633 7.8636 7.44645 7.83361 7.48142C7.49972 7.87307 7.13679 8.38078 6.77387 8.99003C6.41094 9.59928 6.22222 10.078 6.22222 10.4551C6.22222 11.0499 6.43998 11.5576 6.86097 11.9927C7.28196 12.4134 7.80458 12.631 8.39978 12.631C9.00949 12.631 9.51759 12.4134 9.92406 11.9927C10.3451 11.5721 10.5483 11.0499 10.5483 10.4551C10.5483 10.0635 10.3741 9.58477 10.0402 8.99003C9.70631 8.39529 9.34338 7.88758 8.93691 7.4379ZM7.36782 11.4939C7.65532 11.7793 7.99609 11.9199 8.39978 11.9199C8.81946 11.9199 9.14213 11.7786 9.41268 11.4986L9.42135 11.4896C9.70105 11.2102 9.83718 10.8725 9.83718 10.4551C9.83718 10.2529 9.73966 9.90732 9.42012 9.33814C9.10996 8.78567 8.77738 8.32187 8.40937 7.91475L8.4038 7.90858C8.39358 7.92071 8.38366 7.93238 8.3741 7.94353C8.07055 8.2997 7.73062 8.77343 7.3848 9.35396C7.03125 9.94746 6.93333 10.2835 6.93333 10.4551C6.93333 10.8512 7.0693 11.1835 7.36782 11.4939ZM14.6131 11.2529L14.2501 10.9048C14.0614 11.0934 13.9308 11.2094 13.8727 11.2529C13.263 11.8477 12.6387 12.5875 11.971 13.4723C11.6226 13.9365 11.3322 14.4588 11.0999 15.01C10.8677 15.5757 10.7515 16.0544 10.7515 16.4751C10.7515 17.447 11.0709 18.2883 11.7532 18.9701C12.4355 19.6519 13.263 20 14.2501 20C15.2373 20 16.0793 19.6664 16.7616 18.9846C17.4439 18.3028 17.7778 17.476 17.7778 16.4751C17.7778 16.0544 17.6616 15.5757 17.4294 15.0245C17.1971 14.4733 16.9068 13.951 16.5293 13.4578C15.818 12.5295 15.1792 11.7897 14.6131 11.2529ZM15.9646 13.89C15.3171 13.045 14.7443 12.3769 14.2445 11.8856C13.708 12.4253 13.1476 13.0937 12.5392 13.8999C12.2309 14.3107 11.9689 14.7797 11.7565 15.2831C11.5443 15.8007 11.4626 16.1822 11.4626 16.4751C11.4626 17.2749 11.7183 17.93 12.2558 18.4671C12.8051 19.0159 13.452 19.2889 14.2501 19.2889C15.0592 19.2889 15.7172 19.0229 16.2589 18.4816C16.8018 17.9392 17.0667 17.296 17.0667 16.4751C17.0667 16.1817 16.9846 15.8003 16.7741 15.3006C16.5622 14.7977 16.3008 14.3294 15.9646 13.89ZM13.6692 6.4702C13.6681 6.65527 13.74 6.8334 13.8694 6.96603C13.994 7.08958 14.1525 7.16196 14.4098 7.16196C14.6224 7.16196 14.782 7.09481 14.9302 6.95698C15.0766 6.80829 15.1359 6.66794 15.1359 6.466C15.1359 6.38849 15.0913 6.18438 14.8916 5.82515L14.8863 5.81564C14.7405 5.54363 14.5801 5.30131 14.4035 5.07604C14.205 5.31947 14.0493 5.54068 13.9327 5.73956C13.725 6.09372 13.6692 6.32936 13.6692 6.466L13.6692 6.4702ZM13.9311 4.53153C13.2798 5.30739 12.9581 5.95488 12.9581 6.466C12.9559 6.8402 13.1021 7.20006 13.3646 7.46691C13.6404 7.74252 13.9888 7.87307 14.4098 7.87307C14.8163 7.87307 15.1502 7.72802 15.426 7.46691C15.7018 7.1913 15.847 6.87217 15.847 6.466C15.847 6.2049 15.7309 5.87126 15.5131 5.4796C15.3244 5.12767 15.114 4.8193 14.8817 4.53562C14.8459 4.4919 14.8096 4.44878 14.7728 4.40617L14.4098 4C14.2342 4.18335 14.0747 4.36056 13.9311 4.53153Z"
    fill="#0f172a" />
</svg>
