<svg width="24" height="24" viewBox="0 0 24 24" fill="none" xmlns="http://www.w3.org/2000/svg">
  <path
    d="M6.328 11.584C6.328 10.816 6.48 10.088 6.776 9.38399C7.072 8.67999 7.48 8.07999 7.984 7.57599C8.488 7.07199 9.096 6.66399 9.8 6.35999C10.504 6.05599 11.24 5.90399 12 5.90399H12.912C13.04 5.93599 13.096 6.01599 13.096 6.12799L13.136 6.83199C13.168 7.84799 13.528 8.71199 14.232 9.42399C14.936 10.136 15.784 10.52 16.784 10.56L17.44 10.616C17.568 10.616 17.632 10.68 17.632 10.8V11.584C17.64 12.608 17.392 13.56 16.888 14.432C16.3974 15.2919 15.6881 16.0067 14.832 16.504C13.968 17.008 13.016 17.264 11.992 17.264C11.216 17.264 10.472 17.112 9.768 16.816C9.064 16.52 8.464 16.112 7.96 15.608C7.44728 15.0882 7.03981 14.4743 6.76 13.8C6.48 13.096 6.328 12.36 6.328 11.584ZM7.792 11.584C7.792 12.192 7.912 12.768 8.152 13.312C8.392 13.848 8.712 14.304 9.104 14.672C9.496 15.04 9.944 15.328 10.456 15.536C10.9219 15.7385 11.4233 15.8469 11.9312 15.8552C12.4392 15.8634 12.9438 15.7713 13.416 15.584C13.8928 15.3972 14.338 15.1382 14.736 14.816C15.144 14.488 15.488 14.072 15.784 13.56C16.08 13.048 16.264 12.496 16.352 11.888C15.048 11.616 14 11.056 13.216 10.208C12.432 9.35999 11.976 8.36799 11.856 7.21599C11.088 7.26399 10.4 7.49599 9.768 7.91999C9.144 8.34399 8.656 8.87999 8.312 9.53599C7.968 10.192 7.792 10.872 7.792 11.584Z"
    fill="#0f172a" />
</svg>
