<svg width="24" height="24" viewBox="0 0 24 24" fill="none" xmlns="http://www.w3.org/2000/svg">
  <path
    d="M3.312 13.52C3.312 12.592 3.592 11.776 4.16 11.056C4.728 10.336 5.456 9.88003 6.352 9.68003C6.536 8.85603 6.912 8.13602 7.472 7.52002C8.02142 6.9127 8.7187 6.45794 9.496 6.20002C9.992 6.03202 10.504 5.94402 11.04 5.94402C11.688 5.94402 12.32 6.07202 12.92 6.32802C13.144 5.95202 13.408 5.62402 13.712 5.35202C14.016 5.08002 14.328 4.86402 14.648 4.72002C14.968 4.57602 15.288 4.46402 15.592 4.39202C15.896 4.32002 16.2 4.28802 16.488 4.28802C16.792 4.28802 17.12 4.32802 17.472 4.41602L18.128 4.61602C18.24 4.66402 18.272 4.72002 18.24 4.79202L18.128 5.27202C18.072 5.52002 18.048 5.75202 18.048 5.96002C18.048 6.20802 18.088 6.46402 18.168 6.72002C18.248 6.97602 18.36 7.22403 18.52 7.47202C18.672 7.72003 18.888 7.93602 19.16 8.13602C19.432 8.33602 19.736 8.48802 20.08 8.59202L20.576 8.76802C20.656 8.79203 20.696 8.83202 20.696 8.89602C20.696 8.91202 20.688 8.92802 20.68 8.95202L20.536 9.48802C20.32 10.352 19.912 11.032 19.336 11.544C19.656 12.104 19.832 12.704 19.856 13.336C19.864 13.376 19.864 13.432 19.864 13.52C19.864 14.232 19.688 14.896 19.328 15.504C18.976 16.112 18.488 16.592 17.888 16.944C17.28 17.296 16.616 17.48 15.904 17.48H7.256C6.544 17.48 5.88 17.304 5.272 16.944C4.664 16.584 4.192 16.104 3.84 15.504C3.488 14.904 3.312 14.24 3.312 13.52ZM4.68 13.52C4.68 14.232 4.936 14.848 5.448 15.368C5.96 15.888 6.56 16.152 7.256 16.152H15.904C16.616 16.152 17.224 15.896 17.728 15.376C18.232 14.856 18.488 14.24 18.488 13.52C18.488 12.816 18.232 12.216 17.72 11.712C17.208 11.208 16.6 10.952 15.896 10.952H14.472L14.392 10.352C14.312 9.54402 13.976 8.84803 13.384 8.28003C12.792 7.71203 12.088 7.39202 11.28 7.32002C11.256 7.32002 11.216 7.32003 11.16 7.31203C11.104 7.30403 11.072 7.30402 11.04 7.30402C10.632 7.30402 10.224 7.38402 9.808 7.53602V7.52002C9.224 7.74402 8.728 8.11203 8.336 8.61603C7.936 9.12003 7.696 9.69602 7.616 10.352L7.56 10.928L7.016 10.952C6.344 11.032 5.784 11.312 5.336 11.8C4.888 12.288 4.68 12.856 4.68 13.52ZM14.08 7.03202C14.928 7.76002 15.456 8.60803 15.656 9.57603H15.912C16.904 9.57603 17.752 9.88802 18.448 10.52C18.712 10.272 18.912 9.98403 19.056 9.66402C18.3345 9.32464 17.7322 8.77535 17.328 8.08802C16.912 7.38402 16.696 6.64002 16.696 5.86402V5.67202C16.656 5.66402 16.592 5.66402 16.504 5.66402C16.04 5.65602 15.584 5.76802 15.144 6.01602C14.704 6.25602 14.344 6.59202 14.08 7.03202Z"
    fill="#0f172a" />
</svg>
