<svg width="24" height="24" viewBox="0 0 24 24" fill="none" xmlns="http://www.w3.org/2000/svg">
  <path
    d="M3.112 14.08C3.112 13.288 3.36 12.576 3.856 11.96C4.352 11.344 4.984 10.944 5.76 10.768C5.968 9.83202 6.44 9.05602 7.184 8.46402C7.928 7.86402 8.784 7.56802 9.76 7.56802C10.704 7.56802 11.552 7.85602 12.288 8.44002C13.032 9.02402 13.512 9.76802 13.728 10.68H13.944C14.888 10.68 15.688 11.008 16.352 11.672C17.016 12.336 17.352 13.136 17.352 14.072C17.352 15.016 17.016 15.816 16.352 16.48C15.688 17.144 14.888 17.48 13.944 17.48H6.528C6.064 17.48 5.624 17.392 5.208 17.208C4.792 17.024 4.416 16.8 4.112 16.496C3.808 16.192 3.568 15.824 3.384 15.408C3.2 14.992 3.112 14.536 3.112 14.08ZM4.272 14.08C4.272 14.688 4.496 15.216 4.928 15.648C5.36 16.08 5.896 16.304 6.52 16.304H13.944C14.56 16.304 15.096 16.088 15.536 15.648C15.976 15.208 16.2 14.688 16.2 14.08C16.2 13.472 15.984 12.944 15.536 12.512C15.096 12.08 14.568 11.856 13.944 11.856H12.832C12.752 11.856 12.712 11.816 12.712 11.736L12.656 11.344C12.576 10.592 12.256 9.96002 11.704 9.46402C11.152 8.96802 10.496 8.72002 9.744 8.72002C8.992 8.72002 8.336 8.96802 7.776 9.47202C7.216 9.96802 6.904 10.6 6.832 11.344L6.776 11.68C6.776 11.76 6.736 11.8 6.648 11.8L6.288 11.856C5.712 11.904 5.232 12.144 4.84 12.568C4.472 12.992 4.272 13.496 4.272 14.08ZM11.352 7.10402C11.272 7.17602 11.288 7.23202 11.408 7.27202C11.752 7.42402 12.04 7.56802 12.272 7.71202C12.36 7.73602 12.424 7.72802 12.448 7.68802C12.936 7.23202 13.496 7.00002 14.144 7.00002C14.792 7.00002 15.344 7.21602 15.824 7.64802C16.296 8.08002 16.56 8.61602 16.616 9.24802L16.688 9.76002H17.824C18.344 9.76002 18.792 9.94402 19.168 10.32C19.544 10.696 19.728 11.136 19.728 11.648C19.728 12.128 19.56 12.544 19.232 12.904C18.904 13.264 18.496 13.464 18.008 13.52C17.928 13.52 17.888 13.56 17.888 13.648V14.552C17.888 14.64 17.928 14.68 18.008 14.68C18.816 14.632 19.496 14.312 20.048 13.728C20.6 13.144 20.88 12.448 20.88 11.648C20.88 10.8 20.584 10.08 19.984 9.48802C19.384 8.88802 18.664 8.59202 17.824 8.59202H17.704C17.496 7.79202 17.056 7.13602 16.384 6.61602C15.72 6.09602 14.968 5.84002 14.144 5.84002C13.024 5.83202 12.088 6.25602 11.352 7.10402Z"
    fill="#0f172a" />
</svg>
