<svg width="24" height="24" viewBox="0 0 24 24" fill="none" xmlns="http://www.w3.org/2000/svg">
  <path
    d="M3.28799 13.512C3.28799 14.576 3.65599 15.496 4.39999 16.256C5.14399 17.024 6.04799 17.432 7.11999 17.488C7.21599 17.488 7.26399 17.44 7.26399 17.344V16.28C7.26399 16.184 7.21599 16.136 7.11999 16.136C6.43199 16.104 5.85599 15.832 5.37599 15.32C4.89599 14.808 4.65599 14.208 4.65599 13.512C4.65599 12.848 4.87999 12.272 5.32799 11.776C5.77599 11.288 6.33599 11 7.00799 10.92L7.42399 10.888C7.52799 10.888 7.58399 10.84 7.58399 10.744L7.63999 10.312C7.72799 9.44803 8.08799 8.72003 8.73599 8.14403C9.38399 7.56003 10.144 7.27203 11.016 7.27203C11.888 7.27203 12.648 7.56803 13.304 8.15203C13.9416 8.70428 14.3426 9.48045 14.424 10.32L14.48 10.776C14.48 10.872 14.528 10.928 14.624 10.928H15.92C16.632 10.928 17.24 11.184 17.76 11.696C18.28 12.208 18.536 12.816 18.536 13.512C18.536 14.208 18.296 14.808 17.816 15.32C17.336 15.832 16.752 16.104 16.072 16.136C15.976 16.136 15.92 16.184 15.92 16.28V17.344C15.92 17.44 15.968 17.488 16.072 17.488C16.776 17.464 17.416 17.272 18 16.912C18.584 16.552 19.048 16.072 19.384 15.472C19.72 14.872 19.888 14.216 19.888 13.52C19.888 12.824 19.704 12.176 19.344 11.56C19.968 10.968 20.376 10.28 20.576 9.49603L20.688 8.91203C20.696 8.90403 20.704 8.88803 20.704 8.85603C20.704 8.80003 20.664 8.75203 20.576 8.72803L20.12 8.59203C19.664 8.46403 19.272 8.24003 18.952 7.93603C18.624 7.63203 18.392 7.30403 18.256 6.96803C18.12 6.62403 18.048 6.28803 18.048 5.94403C18.048 5.71203 18.08 5.48803 18.136 5.26403L18.24 4.77603C18.256 4.69603 18.224 4.63203 18.136 4.59203L17.496 4.40003C17.136 4.32003 16.8 4.28003 16.48 4.28003C16.192 4.28003 15.896 4.31203 15.584 4.38403C15.28 4.45603 14.96 4.56003 14.632 4.70403C14.304 4.84803 13.984 5.05603 13.672 5.33603C13.36 5.61603 13.096 5.92803 12.872 6.29603C12.224 6.04803 11.6 5.92803 11.008 5.92803C9.87999 5.92803 8.87199 6.28003 7.99999 6.98403C7.12799 7.68803 6.55999 8.58403 6.31199 9.67203C5.44398 9.86724 4.67146 10.3596 4.12799 11.064C3.57599 11.768 3.28799 12.592 3.28799 13.512ZM8.03999 14.216C8.03999 14.52 8.15199 14.784 8.37599 15C8.59999 15.216 8.87199 15.32 9.19199 15.32C9.51199 15.32 9.77599 15.216 9.99199 15C10.208 14.784 10.312 14.528 10.312 14.216C10.312 14.008 10.216 13.736 10.032 13.4C9.84799 13.064 9.67199 12.8 9.51199 12.616C9.42399 12.52 9.31999 12.408 9.18399 12.272L8.90399 12.6C8.68799 12.832 8.48799 13.112 8.30399 13.432C8.11999 13.752 8.03999 14.008 8.03999 14.216ZM10.432 17.408C10.432 17.936 10.616 18.376 10.976 18.736C11.344 19.096 11.784 19.272 12.296 19.272C12.824 19.272 13.264 19.088 13.624 18.728C13.984 18.36 14.168 17.92 14.168 17.408C14.168 16.968 13.952 16.432 13.528 15.808C13.176 15.344 12.832 14.944 12.504 14.616C12.44 14.568 12.368 14.512 12.296 14.432L12.112 14.616C11.8 14.904 11.456 15.304 11.088 15.8C10.896 16.064 10.744 16.344 10.616 16.632C10.488 16.928 10.432 17.184 10.432 17.408ZM11.608 12.072C11.608 12.28 11.688 12.448 11.84 12.6C11.992 12.752 12.176 12.816 12.4 12.816C12.608 12.816 12.776 12.744 12.928 12.6C13.072 12.456 13.144 12.28 13.144 12.072C13.144 11.728 12.896 11.296 12.4 10.776L12.2 10.992C12.056 11.152 11.92 11.336 11.8 11.552C11.664 11.768 11.608 11.944 11.608 12.072ZM14.048 7.01603C14.328 6.56003 14.688 6.21603 15.12 5.98403C15.552 5.75203 16.016 5.63203 16.496 5.63203C16.592 5.63203 16.664 5.64003 16.712 5.64803V5.88803C16.712 6.65603 16.92 7.38403 17.344 8.08003C17.768 8.77603 18.344 9.29603 19.088 9.65603C18.96 9.96003 18.76 10.232 18.488 10.48C17.7683 9.87926 16.8574 9.55577 15.92 9.56803H15.656C15.416 8.52003 14.88 7.67203 14.048 7.01603Z"
    fill="#0f172a" />
</svg>
