<svg width="24" height="24" viewBox="0 0 24 24" fill="none" xmlns="http://www.w3.org/2000/svg">
  <path
    d="M3.26398 13.504C3.26398 14.392 3.52798 15.184 4.05598 15.888C4.58398 16.592 5.27198 17.064 6.11998 17.32L5.59198 18.672C5.56798 18.784 5.60798 18.84 5.71198 18.84H7.40798L6.63198 21.648H6.86398L9.99198 17.696C10.024 17.656 10.024 17.616 9.99998 17.576C9.97598 17.536 9.93598 17.52 9.87998 17.52H8.13598L10.12 13.816C10.176 13.704 10.144 13.64 10.016 13.64H7.64798C7.57598 13.64 7.51998 13.68 7.46398 13.752L6.60798 16.056C6.03198 15.912 5.55998 15.6 5.18398 15.12C4.80798 14.64 4.62398 14.104 4.62398 13.512C4.62398 12.848 4.84798 12.272 5.30398 11.776C5.75998 11.28 6.31998 11 6.98398 10.92L7.39998 10.856C7.50398 10.856 7.55998 10.808 7.55998 10.72L7.61598 10.304C7.70398 9.43999 8.06398 8.71199 8.71198 8.12799C9.35998 7.54399 10.12 7.248 10.992 7.248C11.856 7.248 12.616 7.54399 13.272 8.12799C13.928 8.71199 14.304 9.43999 14.4 10.296L14.456 10.768C14.456 10.856 14.504 10.904 14.6 10.904H15.896C16.624 10.904 17.24 11.16 17.76 11.664C18.28 12.168 18.536 12.784 18.536 13.496C18.536 14.176 18.296 14.768 17.816 15.264C17.336 15.76 16.752 16.04 16.056 16.096C15.96 16.096 15.904 16.144 15.904 16.232V17.336C15.904 17.432 15.952 17.48 16.056 17.48C16.76 17.456 17.4 17.264 17.984 16.904C18.5651 16.5481 19.0443 16.048 19.3751 15.4523C19.706 14.8566 19.8771 14.1854 19.872 13.504C19.872 12.808 19.696 12.16 19.344 11.544C19.976 10.936 20.392 10.24 20.592 9.448L20.704 8.87199C20.712 8.864 20.72 8.83999 20.72 8.816C20.72 8.75999 20.68 8.71999 20.592 8.69599L20.144 8.55199C19.688 8.42399 19.296 8.19999 18.976 7.89599C18.6733 7.62417 18.4355 7.28792 18.28 6.91199C18.144 6.55999 18.072 6.20799 18.072 5.85599C18.072 5.64799 18.096 5.43199 18.136 5.21599L18.248 4.72799C18.28 4.64799 18.248 4.58399 18.136 4.54399C17.968 4.47199 17.728 4.40799 17.416 4.33599C17.104 4.26399 16.8 4.23199 16.496 4.23199C16.208 4.23199 15.912 4.26399 15.6 4.33599C15.296 4.40799 14.976 4.51199 14.648 4.66399C14.32 4.80799 14 5.02399 13.688 5.30399C13.376 5.58399 13.112 5.90399 12.888 6.27999C12.232 6.03999 11.592 5.91999 10.984 5.91999C9.85598 5.91999 8.84798 6.27199 7.97598 6.96799C7.10398 7.66399 6.53598 8.55999 6.28798 9.65599C5.39998 9.86399 4.67198 10.328 4.09598 11.048C3.54863 11.7489 3.2553 12.6147 3.26398 13.504ZM9.74398 21.36C9.74398 21.488 9.78398 21.616 9.86398 21.728C9.94398 21.848 10.064 21.928 10.224 21.968C10.312 21.984 10.392 21.992 10.464 21.992C10.792 21.992 10.992 21.824 11.072 21.488L12.928 14.456C12.976 14.264 12.96 14.096 12.872 13.936C12.8306 13.8591 12.7737 13.7916 12.7048 13.7379C12.636 13.6841 12.5567 13.6454 12.472 13.624C12.3867 13.5957 12.2965 13.5853 12.207 13.5936C12.1175 13.6018 12.0307 13.6285 11.952 13.672C11.792 13.76 11.68 13.888 11.632 14.064L9.77598 21.136C9.75198 21.216 9.74398 21.288 9.74398 21.36ZM13.08 18.944C13.08 19.072 13.12 19.2 13.2 19.312C13.28 19.424 13.4 19.512 13.568 19.56C13.592 19.56 13.632 19.56 13.688 19.568C13.744 19.576 13.792 19.576 13.816 19.576C14.12 19.576 14.312 19.408 14.392 19.072L15.592 14.456C15.64 14.264 15.624 14.088 15.528 13.928C15.4844 13.8521 15.4257 13.7859 15.3555 13.7336C15.2854 13.6814 15.2052 13.644 15.12 13.624C15.0347 13.5957 14.9445 13.5853 14.855 13.5936C14.7655 13.6018 14.6787 13.6285 14.6 13.672C14.44 13.76 14.336 13.888 14.288 14.072L13.088 18.728C13.088 18.808 13.08 18.88 13.08 18.944ZM14.072 6.99999C14.336 6.54399 14.688 6.19999 15.136 5.95999C15.576 5.71999 16.048 5.59999 16.544 5.59999C16.64 5.59999 16.72 5.59999 16.76 5.60799V5.86399C16.76 6.63199 16.968 7.36 17.384 8.048C17.8 8.736 18.384 9.25599 19.12 9.62399C18.976 9.95999 18.768 10.24 18.488 10.48C17.752 9.84799 16.896 9.536 15.912 9.536H15.656C15.432 8.52799 14.904 7.68799 14.072 6.99999Z"
    fill="#0f172a" />
</svg>
