<svg width="24" height="24" viewBox="0 0 24 24" fill="none" xmlns="http://www.w3.org/2000/svg">
  <path
    d="M3.71198 13.56C3.71198 12.632 3.99198 11.816 4.55998 11.096C5.12798 10.376 5.85597 9.91203 6.75197 9.68803C6.99997 8.60003 7.55998 7.70403 8.43198 7.00003C9.30398 6.29603 10.304 5.95203 11.432 5.95203C12.536 5.95203 13.512 6.29603 14.376 6.97603C15.24 7.65603 15.8 8.53603 16.056 9.60803H16.312C17.024 9.60803 17.688 9.78403 18.296 10.136C18.904 10.488 19.392 10.968 19.744 11.576C20.096 12.184 20.28 12.848 20.28 13.56C20.28 14.616 19.912 15.536 19.168 16.296C18.432 17.064 17.528 17.464 16.464 17.496C16.36 17.496 16.304 17.448 16.304 17.36V16.296C16.304 16.2 16.36 16.152 16.464 16.152C17.144 16.12 17.728 15.848 18.208 15.336C18.688 14.824 18.928 14.232 18.928 13.552C18.928 12.84 18.672 12.232 18.152 11.712C17.632 11.192 17.016 10.936 16.296 10.936H15.008C14.912 10.936 14.864 10.888 14.864 10.8L14.8 10.336C14.712 9.47203 14.336 8.74403 13.688 8.16003C13.032 7.57603 12.28 7.28003 11.408 7.28003C10.528 7.28003 9.76797 7.57603 9.11998 8.16803C8.47197 8.76003 8.10397 9.48803 8.02397 10.368L7.97598 10.768C7.97598 10.864 7.91998 10.92 7.81598 10.92L7.39198 10.976C6.72798 11.032 6.16798 11.304 5.71198 11.808C5.25598 12.312 5.03198 12.888 5.03198 13.56C5.03198 14.24 5.27198 14.832 5.75198 15.344C6.23198 15.856 6.81598 16.12 7.49598 16.16C7.58398 16.16 7.63198 16.208 7.63198 16.304V17.368C7.63198 17.456 7.58398 17.504 7.49598 17.504C6.42398 17.472 5.51998 17.072 4.77598 16.304C4.07998 15.536 3.71198 14.616 3.71198 13.56ZM8.79998 16.816C8.79998 16.64 8.86398 16.48 8.99198 16.352C9.11998 16.224 9.27198 16.16 9.46398 16.16C9.64798 16.16 9.80798 16.224 9.93598 16.352C10.064 16.48 10.128 16.64 10.128 16.816C10.128 17.008 10.064 17.168 9.93598 17.296C9.80798 17.432 9.65598 17.496 9.46398 17.496C9.27998 17.496 9.11998 17.432 8.99198 17.296C8.9289 17.2334 8.87932 17.1584 8.8463 17.0759C8.81328 16.9933 8.79751 16.9049 8.79998 16.816ZM8.79998 19.72C8.79998 19.528 8.86398 19.368 8.99198 19.24C9.11998 19.12 9.27198 19.056 9.45598 19.056C9.63998 19.056 9.79998 19.12 9.92798 19.24C10.056 19.368 10.12 19.52 10.12 19.712C10.12 19.904 10.056 20.056 9.92798 20.184C9.79998 20.312 9.64797 20.368 9.45598 20.368C9.28066 20.3706 9.11128 20.3046 8.98397 20.184C8.92379 20.123 8.87648 20.0504 8.84487 19.9707C8.81327 19.891 8.798 19.8057 8.79998 19.72ZM11.352 18.36C11.352 18.176 11.416 18.008 11.552 17.864C11.68 17.736 11.832 17.672 12.008 17.672C12.192 17.672 12.352 17.744 12.488 17.88C12.624 18.016 12.696 18.176 12.696 18.36C12.696 18.544 12.632 18.704 12.496 18.84C12.36 18.976 12.2 19.04 12.008 19.04C11.824 19.04 11.672 18.976 11.544 18.84C11.416 18.704 11.352 18.544 11.352 18.36ZM11.352 15.464C11.352 15.28 11.416 15.12 11.552 14.984C11.696 14.856 11.848 14.792 12.008 14.792C12.2 14.792 12.36 14.856 12.496 14.992C12.561 15.0536 12.6125 15.1281 12.6469 15.2108C12.6814 15.2935 12.6981 15.3825 12.696 15.472C12.696 15.656 12.632 15.816 12.496 15.944C12.36 16.072 12.2 16.136 12.008 16.136C11.824 16.136 11.672 16.072 11.544 15.944C11.4191 15.8157 11.35 15.6431 11.352 15.464ZM11.352 21.288C11.352 21.104 11.416 20.944 11.552 20.8C11.68 20.672 11.832 20.608 12.008 20.608C12.2 20.608 12.36 20.672 12.496 20.808C12.632 20.944 12.696 21.104 12.696 21.288C12.696 21.472 12.632 21.632 12.496 21.76C12.36 21.888 12.2 21.952 12.008 21.952C11.9213 21.9516 11.8355 21.9341 11.7556 21.9005C11.6757 21.8669 11.6032 21.8178 11.5422 21.7561C11.4813 21.6944 11.4331 21.6214 11.4005 21.541C11.3678 21.4607 11.3513 21.3747 11.352 21.288ZM13.928 16.816C13.928 16.64 13.992 16.488 14.128 16.352C14.264 16.216 14.424 16.152 14.608 16.152C14.792 16.152 14.952 16.216 15.08 16.344C15.208 16.472 15.272 16.632 15.272 16.808C15.272 17 15.208 17.16 15.08 17.288C14.952 17.424 14.8 17.488 14.608 17.488C14.416 17.488 14.256 17.424 14.128 17.288C14.0645 17.2269 14.0141 17.1536 13.9797 17.0725C13.9453 16.9914 13.9277 16.9041 13.928 16.816ZM13.928 19.72C13.928 19.544 13.992 19.384 14.128 19.24C14.256 19.12 14.416 19.056 14.608 19.056C14.8 19.056 14.952 19.12 15.08 19.24C15.208 19.36 15.264 19.52 15.264 19.712C15.264 19.904 15.2 20.056 15.08 20.184C14.952 20.312 14.8 20.368 14.608 20.368C14.416 20.368 14.256 20.304 14.128 20.176C14.0642 20.1186 14.0134 20.0482 13.9789 19.9696C13.9444 19.8909 13.927 19.8059 13.928 19.72Z"
    fill="#0f172a" />
</svg>
