<svg width="25" height="24" viewBox="0 0 25 24" fill="none" xmlns="http://www.w3.org/2000/svg">
  <path
    d="M4.21198 13.56C4.21198 12.632 4.49198 11.816 5.05998 11.096C5.62798 10.376 6.35597 9.91203 7.25197 9.68803C7.49997 8.60003 8.05998 7.70403 8.93198 7.00003C9.80398 6.29603 10.804 5.95203 11.932 5.95203C13.036 5.95203 14.012 6.29603 14.876 6.97603C15.74 7.65603 16.3 8.53603 16.556 9.60803H16.812C17.524 9.60803 18.188 9.78403 18.796 10.136C19.404 10.488 19.892 10.968 20.244 11.576C20.596 12.184 20.78 12.848 20.78 13.56C20.78 14.616 20.412 15.536 19.668 16.296C18.932 17.064 18.028 17.464 16.964 17.496C16.86 17.496 16.804 17.448 16.804 17.36V16.296C16.804 16.2 16.86 16.152 16.964 16.152C17.644 16.12 18.228 15.848 18.708 15.336C19.188 14.824 19.428 14.232 19.428 13.552C19.428 12.84 19.172 12.232 18.652 11.712C18.132 11.192 17.516 10.936 16.796 10.936H15.508C15.412 10.936 15.364 10.888 15.364 10.8L15.3 10.336C15.212 9.47203 14.836 8.74403 14.188 8.16003C13.532 7.57603 12.78 7.28003 11.908 7.28003C11.028 7.28003 10.268 7.57603 9.61998 8.16803C8.97197 8.76003 8.60397 9.48803 8.52397 10.368L8.47598 10.768C8.47598 10.864 8.41998 10.92 8.31598 10.92L7.89198 10.976C7.22798 11.032 6.66798 11.304 6.21198 11.808C5.75598 12.312 5.53198 12.888 5.53198 13.56C5.53198 14.24 5.77198 14.832 6.25198 15.344C6.73198 15.856 7.31598 16.12 7.99598 16.16C8.08398 16.16 8.13198 16.208 8.13198 16.304V17.368C8.13198 17.456 8.08398 17.504 7.99598 17.504C6.92398 17.472 6.01998 17.072 5.27598 16.304C4.57998 15.536 4.21198 14.616 4.21198 13.56ZM8.61198 19.72C8.61048 19.6331 8.62637 19.5467 8.65871 19.466C8.69105 19.3853 8.73918 19.3119 8.80029 19.25C8.8614 19.1882 8.93425 19.1391 9.01456 19.1058C9.09487 19.0725 9.18103 19.0556 9.26798 19.056C9.45198 19.056 9.61198 19.12 9.73998 19.24C9.86798 19.36 9.93198 19.52 9.93198 19.712C9.93198 19.904 9.86798 20.056 9.73998 20.184C9.61198 20.312 9.45998 20.368 9.26798 20.368C9.09266 20.3706 8.92328 20.3046 8.79598 20.184C8.73579 20.123 8.68848 20.0504 8.65688 19.9707C8.62527 19.891 8.61 19.8057 8.61198 19.72ZM9.29998 16.816C9.29998 16.64 9.36398 16.48 9.49198 16.352C9.61998 16.224 9.77198 16.16 9.96398 16.16C10.148 16.16 10.308 16.224 10.436 16.352C10.564 16.48 10.628 16.64 10.628 16.816C10.628 17.008 10.564 17.168 10.436 17.296C10.308 17.432 10.156 17.496 9.96398 17.496C9.77998 17.496 9.61998 17.432 9.49198 17.296C9.4289 17.2334 9.37932 17.1584 9.3463 17.0759C9.31328 16.9933 9.29751 16.9049 9.29998 16.816ZM10.82 21.288C10.82 21.104 10.884 20.944 11.02 20.8C11.148 20.672 11.3 20.608 11.476 20.608C11.668 20.608 11.828 20.672 11.964 20.808C12.1 20.944 12.164 21.104 12.164 21.288C12.164 21.472 12.1 21.632 11.964 21.76C11.828 21.888 11.668 21.952 11.476 21.952C11.292 21.952 11.14 21.888 11.012 21.76C10.8904 21.6328 10.8218 21.464 10.82 21.288ZM11.516 18.36C11.516 18.168 11.58 18.008 11.708 17.864C11.836 17.736 11.996 17.672 12.172 17.672C12.356 17.672 12.516 17.736 12.652 17.872C12.788 18.008 12.852 18.168 12.852 18.36C12.852 18.544 12.788 18.704 12.652 18.84C12.516 18.976 12.356 19.04 12.172 19.04C11.988 19.04 11.836 18.976 11.708 18.84C11.5831 18.7117 11.514 18.5391 11.516 18.36ZM11.852 15.464C11.852 15.28 11.916 15.12 12.052 14.984C12.196 14.856 12.348 14.792 12.508 14.792C12.7 14.792 12.86 14.856 12.996 14.992C13.061 15.0536 13.1125 15.1281 13.1469 15.2108C13.1814 15.2935 13.1981 15.3825 13.196 15.472C13.196 15.656 13.132 15.816 12.996 15.944C12.86 16.072 12.7 16.136 12.508 16.136C12.324 16.136 12.172 16.072 12.044 15.944C11.9191 15.8157 11.85 15.6431 11.852 15.464ZM13.748 19.72C13.748 19.536 13.812 19.376 13.94 19.24C14.068 19.12 14.228 19.056 14.42 19.056C14.612 19.056 14.764 19.12 14.892 19.24C15.02 19.368 15.076 19.52 15.076 19.712C15.076 19.904 15.012 20.056 14.892 20.184C14.764 20.312 14.612 20.368 14.42 20.368C14.228 20.368 14.068 20.304 13.94 20.176C13.8773 20.1181 13.8278 20.0474 13.7946 19.9688C13.7615 19.8902 13.7456 19.8053 13.748 19.72ZM14.428 16.816C14.428 16.64 14.492 16.488 14.628 16.352C14.764 16.216 14.924 16.152 15.108 16.152C15.292 16.152 15.452 16.216 15.58 16.344C15.708 16.472 15.772 16.632 15.772 16.808C15.772 17 15.708 17.16 15.58 17.288C15.452 17.424 15.3 17.488 15.108 17.488C14.916 17.488 14.756 17.424 14.628 17.288C14.5645 17.2269 14.5141 17.1536 14.4797 17.0725C14.4453 16.9914 14.4277 16.9041 14.428 16.816Z"
    fill="#0f172a" />
</svg>
