<svg width="24" height="24" viewBox="0 0 24 24" fill="none" xmlns="http://www.w3.org/2000/svg">
  <path
    d="M3.67999 13.544C3.67999 12.616 3.96799 11.8 4.55199 11.08C5.12799 10.36 5.87199 9.89598 6.77599 9.69598C7.00799 8.59198 7.55999 7.69598 8.43199 6.98398C9.30399 6.27198 10.304 5.91998 11.44 5.91998C12.552 5.91998 13.544 6.26398 14.416 6.94398C15.28 7.62398 15.848 8.50398 16.112 9.58398H16.384C17.104 9.58398 17.768 9.75998 18.368 10.112C18.976 10.464 19.448 10.944 19.8 11.552C20.144 12.16 20.32 12.824 20.32 13.544C20.32 14.616 19.952 15.528 19.224 16.296C18.488 17.064 17.592 17.464 16.528 17.496C16.432 17.496 16.384 17.448 16.384 17.36V16.288C16.384 16.2 16.432 16.152 16.528 16.152C17.2 16.096 17.784 15.816 18.264 15.312C18.744 14.808 18.984 14.216 18.984 13.536C18.984 12.824 18.728 12.208 18.216 11.688C17.704 11.176 17.096 10.912 16.384 10.912H15.08C14.984 10.912 14.928 10.864 14.904 10.768L14.848 10.312C14.792 9.74398 14.608 9.22398 14.288 8.75998C13.9722 8.29934 13.5481 7.92342 13.0528 7.66533C12.5576 7.40724 12.0064 7.27491 11.448 7.27998C10.568 7.27998 9.80799 7.56798 9.15999 8.15198C8.51199 8.73598 8.14399 9.46398 8.06399 10.328L8.00799 10.76C8.00799 10.832 7.96799 10.872 7.87999 10.872L7.44799 10.96C6.77599 11.016 6.20799 11.288 5.75999 11.784C5.30399 12.28 5.07999 12.864 5.07999 13.544C5.07999 14.24 5.31999 14.84 5.79199 15.344C6.26399 15.848 6.83999 16.12 7.52799 16.16C7.62399 16.16 7.67199 16.208 7.67199 16.296V17.368C7.67199 17.456 7.62399 17.504 7.52799 17.504C6.99999 17.48 6.50399 17.36 6.02399 17.144C5.54399 16.928 5.13599 16.64 4.79999 16.288C4.45599 15.936 4.18399 15.528 3.98399 15.048C3.78399 14.568 3.67999 14.072 3.67999 13.544ZM8.01599 18.96C8.01599 18.936 8.02399 18.896 8.03199 18.856C8.03999 18.816 8.04799 18.784 8.04799 18.768L8.26399 17.944C8.31999 17.768 8.42399 17.624 8.58399 17.536C8.74399 17.44 8.91199 17.424 9.09599 17.48C9.27999 17.536 9.41599 17.64 9.51199 17.8C9.60799 17.96 9.62399 18.128 9.56799 18.312L9.37599 19.12C9.27199 19.472 9.07199 19.648 8.76799 19.648H8.69599C8.67199 19.648 8.63999 19.64 8.60799 19.64C8.57599 19.632 8.55199 19.632 8.52799 19.632C8.35999 19.584 8.23199 19.488 8.14399 19.36C8.05599 19.232 8.01599 19.088 8.01599 18.96ZM9.07199 15.104C9.07199 15.088 9.07199 15.056 9.07999 15.016C9.08799 14.976 9.08799 14.952 9.08799 14.944L9.32799 14.104C9.37599 13.952 9.46399 13.832 9.58399 13.744C9.70399 13.664 9.83199 13.624 9.95999 13.624H10.024C10.048 13.624 10.072 13.632 10.096 13.632C10.12 13.64 10.144 13.64 10.16 13.64C10.344 13.696 10.48 13.8 10.568 13.96C10.664 14.12 10.68 14.288 10.624 14.472L10.432 15.272C10.376 15.496 10.272 15.648 10.112 15.744C9.95199 15.84 9.77599 15.84 9.59199 15.76C9.41599 15.712 9.28799 15.624 9.19999 15.488C9.11199 15.352 9.07199 15.232 9.07199 15.104ZM10.056 21.464C10.056 21.44 10.064 21.408 10.072 21.36C10.08 21.312 10.088 21.288 10.088 21.264L10.32 20.472C10.368 20.28 10.48 20.136 10.64 20.04C10.8 19.944 10.976 19.92 11.16 19.976C11.344 20.032 11.472 20.136 11.568 20.304C11.664 20.472 11.672 20.64 11.624 20.824L11.424 21.656C11.336 21.984 11.128 22.144 10.784 22.144C10.744 22.144 10.68 22.136 10.592 22.112C10.5136 22.1011 10.4384 22.0742 10.3709 22.0329C10.3035 21.9916 10.2453 21.9368 10.2 21.872C10.1081 21.7557 10.0575 21.6122 10.056 21.464ZM11.128 17.648C11.128 17.6 11.136 17.536 11.16 17.448L11.376 16.624C11.432 16.44 11.536 16.304 11.704 16.216C11.864 16.12 12.04 16.104 12.224 16.16C12.3106 16.1813 12.3918 16.2204 12.4626 16.2747C12.5333 16.3291 12.5919 16.3976 12.6348 16.4758C12.6777 16.554 12.7038 16.6403 12.7116 16.7291C12.7194 16.818 12.7086 16.9075 12.68 16.992L12.488 17.784C12.384 18.144 12.192 18.328 11.912 18.328C11.88 18.328 11.792 18.312 11.664 18.28C11.5856 18.2691 11.5104 18.2422 11.4429 18.2009C11.3755 18.1596 11.3173 18.1048 11.272 18.04C11.1805 17.9297 11.1297 17.7913 11.128 17.648ZM13.384 18.992C13.384 18.936 13.392 18.872 13.408 18.8L13.632 18.008C13.688 17.816 13.792 17.672 13.96 17.576C14.128 17.48 14.288 17.456 14.464 17.504C14.648 17.56 14.792 17.664 14.888 17.832C14.984 17.992 15.008 18.16 14.96 18.336L14.728 19.184C14.648 19.512 14.44 19.672 14.096 19.672C14.024 19.672 13.952 19.664 13.888 19.648C13.8136 19.6349 13.7427 19.6068 13.6795 19.5656C13.6162 19.5243 13.562 19.4707 13.52 19.408C13.44 19.264 13.392 19.128 13.384 18.992ZM14.488 15.184C14.488 15.16 14.504 15.088 14.528 14.976L14.768 14.152C14.8 13.984 14.872 13.856 15 13.776C15.128 13.696 15.256 13.656 15.392 13.664C15.424 13.656 15.496 13.664 15.584 13.688C15.76 13.728 15.896 13.832 16 13.992C16.096 14.128 16.112 14.296 16.056 14.512L15.864 15.336C15.76 15.68 15.56 15.856 15.256 15.856C15.208 15.856 15.12 15.84 14.984 15.808C14.8445 15.7725 14.7204 15.6923 14.6308 15.5796C14.5412 15.4669 14.4911 15.3279 14.488 15.184Z"
    fill="#0f172a" />
</svg>
