<svg width="24" height="24" viewBox="0 0 24 24" fill="none" xmlns="http://www.w3.org/2000/svg">
  <path
    d="M3.25598 13.544C3.25598 14.608 3.63198 15.52 4.37598 16.288C5.11998 17.056 6.03198 17.464 7.09598 17.496C7.19198 17.496 7.23998 17.448 7.23998 17.36V16.288C7.23998 16.2 7.19198 16.152 7.09598 16.152C6.41598 16.12 5.83198 15.84 5.35198 15.328C4.87198 14.816 4.62398 14.216 4.62398 13.544C4.62398 12.864 4.84798 12.272 5.30398 11.776C5.75998 11.28 6.31998 11 6.98398 10.944L7.40798 10.888C7.51198 10.888 7.56798 10.84 7.56798 10.744L7.62398 10.336C7.71198 9.45598 8.07198 8.71997 8.71998 8.13597C9.36798 7.55198 10.128 7.25597 11.008 7.25597C11.88 7.25597 12.64 7.55198 13.296 8.13597C13.952 8.71997 14.328 9.44798 14.416 10.312L14.472 10.768C14.472 10.864 14.52 10.92 14.608 10.92H15.904C16.632 10.92 17.248 11.176 17.768 11.696C18.288 12.208 18.544 12.824 18.544 13.544C18.544 13.984 18.432 14.4 18.216 14.792C18 15.184 17.696 15.504 17.312 15.752C16.928 16 16.512 16.136 16.064 16.16C15.96 16.16 15.904 16.208 15.904 16.296V17.368C15.904 17.456 15.96 17.504 16.064 17.504C16.768 17.488 17.416 17.296 18 16.936C18.584 16.576 19.048 16.096 19.384 15.496C19.72 14.896 19.888 14.248 19.888 13.552C19.888 12.848 19.704 12.176 19.344 11.544C20.008 10.952 20.432 10.248 20.608 9.44798L20.72 8.90398C20.7278 8.89696 20.7341 8.88831 20.7382 8.87864C20.7423 8.86896 20.7443 8.8585 20.744 8.84798C20.744 8.79998 20.696 8.75997 20.608 8.71997L20.168 8.57597C19.712 8.43998 19.312 8.21597 18.992 7.89597C18.664 7.57597 18.432 7.24797 18.296 6.89597C18.16 6.55198 18.088 6.20798 18.088 5.86397C18.072 5.69597 18.096 5.47198 18.16 5.20798L18.264 4.74397C18.296 4.66397 18.264 4.59997 18.16 4.55997L17.52 4.36798C16.8897 4.19888 16.2275 4.18788 15.592 4.33598C15.288 4.40798 14.968 4.51197 14.64 4.66397C14.312 4.81597 13.992 5.03197 13.68 5.31197C13.368 5.59197 13.104 5.91997 12.88 6.29597C12.232 6.04797 11.6 5.92797 11 5.92797C9.87198 5.92797 8.86398 6.27997 7.99198 6.98397C7.11998 7.68797 6.55198 8.58398 6.30398 9.67998C5.40798 9.91198 4.67198 10.384 4.10398 11.096C3.53598 11.792 3.25598 12.616 3.25598 13.544ZM7.58398 19.184C7.58398 19.32 7.62398 19.456 7.71198 19.592C7.79998 19.728 7.92798 19.816 8.08798 19.872C8.27198 19.928 8.43998 19.92 8.59998 19.84C8.75998 19.76 8.85598 19.616 8.91198 19.392L9.02398 18.904C9.06398 18.72 9.03998 18.552 8.95198 18.4C8.9084 18.3209 8.84896 18.2516 8.77738 18.1966C8.7058 18.1415 8.62361 18.1018 8.53598 18.08C8.35198 18.024 8.18398 18.048 8.02398 18.144C7.86398 18.24 7.75198 18.384 7.70398 18.568L7.59998 19.032C7.58398 19.064 7.58398 19.112 7.58398 19.184ZM8.19198 16.864C8.19198 17.032 8.25598 17.184 8.39198 17.32C8.51998 17.456 8.66398 17.52 8.83998 17.52C9.03198 17.52 9.19198 17.456 9.31998 17.328C9.44798 17.2 9.51198 17.048 9.51198 16.856C9.51198 16.672 9.44798 16.512 9.31998 16.384C9.25732 16.3209 9.1824 16.2713 9.09985 16.2383C9.0173 16.2053 8.92886 16.1895 8.83998 16.192C8.65598 16.192 8.49598 16.256 8.37598 16.376C8.25598 16.496 8.19198 16.68 8.19198 16.864ZM8.67998 15.048C8.67198 15.176 8.70398 15.296 8.79198 15.408C8.87198 15.528 8.99998 15.608 9.17598 15.664C9.25819 15.6883 9.34446 15.6959 9.42967 15.6863C9.51487 15.6767 9.59727 15.6501 9.67198 15.608C9.83998 15.52 9.94398 15.384 9.99998 15.2L10.224 14.48C10.28 14.288 10.264 14.112 10.168 13.96C10.0684 13.8053 9.91414 13.6939 9.73598 13.648C9.6531 13.6192 9.56484 13.6093 9.47765 13.619C9.39046 13.6287 9.30653 13.6577 9.23198 13.704C9.07422 13.7889 8.95635 13.9326 8.90398 14.104L8.71198 14.84C8.71198 14.856 8.70398 14.888 8.69598 14.936C8.67998 14.976 8.67998 15.016 8.67998 15.048ZM9.60798 21.68C9.60798 21.824 9.64798 21.952 9.72798 22.08C9.80798 22.208 9.93598 22.296 10.112 22.344C10.176 22.36 10.248 22.368 10.312 22.368C10.656 22.368 10.864 22.208 10.944 21.88L11.056 21.408C11.104 21.2 11.08 21.024 10.992 20.864C10.904 20.704 10.76 20.608 10.576 20.568C10.493 20.5396 10.4048 20.5299 10.3177 20.5396C10.2306 20.5493 10.1467 20.5781 10.072 20.624C9.90398 20.72 9.79998 20.856 9.74398 21.032L9.63198 21.504C9.61598 21.576 9.60798 21.632 9.60798 21.68ZM10.232 19.36C10.232 19.536 10.296 19.688 10.432 19.824C10.56 19.952 10.712 20.016 10.888 20.016C11.08 20.016 11.232 19.952 11.36 19.832C11.488 19.704 11.544 19.552 11.544 19.36C11.544 19.176 11.48 19.024 11.36 18.896C11.24 18.768 11.08 18.712 10.888 18.712C10.696 18.712 10.544 18.776 10.416 18.896C10.3558 18.957 10.3085 19.0296 10.2769 19.1093C10.2453 19.189 10.23 19.2743 10.232 19.36ZM10.736 17.544C10.728 17.664 10.76 17.792 10.84 17.92C10.92 18.048 11.04 18.128 11.2 18.16C11.384 18.208 11.552 18.192 11.712 18.112C11.864 18.032 11.976 17.88 12.04 17.664L12.256 16.944C12.312 16.768 12.296 16.6 12.2 16.44C12.1538 16.3614 12.0926 16.2927 12.0198 16.2378C11.9471 16.1829 11.8642 16.1428 11.776 16.12C11.6 16.064 11.432 16.088 11.264 16.184C11.096 16.28 10.992 16.424 10.936 16.608L10.76 17.328C10.744 17.392 10.736 17.464 10.736 17.544ZM12.936 19.264C12.936 19.392 12.976 19.52 13.056 19.648C13.136 19.776 13.264 19.864 13.424 19.912C13.448 19.912 13.488 19.92 13.536 19.928C13.584 19.936 13.616 19.944 13.648 19.944C13.976 19.944 14.176 19.768 14.256 19.416L14.368 18.936C14.424 18.768 14.408 18.6 14.312 18.432C14.2706 18.3519 14.2129 18.2814 14.1426 18.2249C14.0724 18.1684 13.9911 18.1272 13.904 18.104C13.704 18.056 13.52 18.072 13.36 18.168C13.2 18.264 13.088 18.4 13.032 18.592L12.96 19.064C12.96 19.08 12.952 19.12 12.944 19.16C12.944 19.2 12.936 19.232 12.936 19.264ZM13.528 16.896C13.528 17.072 13.592 17.232 13.728 17.352C13.848 17.48 14 17.544 14.184 17.544C14.376 17.544 14.528 17.48 14.656 17.36C14.784 17.24 14.84 17.08 14.84 16.896C14.84 16.704 14.776 16.552 14.656 16.424C14.536 16.296 14.376 16.24 14.184 16.24C13.992 16.24 13.84 16.304 13.712 16.424C13.584 16.544 13.528 16.704 13.528 16.896ZM14.016 15.048C14.016 15.184 14.056 15.312 14.144 15.432C14.232 15.552 14.36 15.64 14.536 15.688C14.552 15.688 14.584 15.696 14.632 15.704C14.68 15.712 14.72 15.72 14.744 15.72C14.824 15.72 14.92 15.696 15.032 15.648C15.2 15.56 15.312 15.416 15.36 15.232L15.552 14.512C15.6 14.328 15.584 14.16 15.488 14.008C15.445 13.9299 15.3867 13.8613 15.3166 13.8063C15.2465 13.7514 15.166 13.7111 15.08 13.688C14.896 13.632 14.728 13.648 14.568 13.736C14.408 13.824 14.312 13.952 14.256 14.144L14.032 14.872C14.032 14.888 14.024 14.92 14.016 14.968C14.024 14.992 14.016 15.024 14.016 15.048ZM14.072 7.00798C14.328 6.54398 14.68 6.19198 15.12 5.93598C15.568 5.67998 16.024 5.55998 16.504 5.56798C16.576 5.56798 16.656 5.57597 16.744 5.59197V5.83998C16.736 6.62398 16.944 7.35998 17.36 8.04798C17.784 8.73598 18.376 9.24797 19.136 9.59998C18.984 9.92797 18.768 10.224 18.496 10.488C17.76 9.87997 16.896 9.57597 15.912 9.57597H15.664C15.416 8.52798 14.888 7.67198 14.072 7.00798Z"
    fill="#0f172a" />
</svg>
