<svg width="25" height="24" viewBox="0 0 25 24" fill="none" xmlns="http://www.w3.org/2000/svg">
  <path
    d="M4.21997 13.568C4.21997 14.624 4.59597 15.536 5.33997 16.296C6.08397 17.064 6.98797 17.464 8.04397 17.496C8.13997 17.496 8.18797 17.448 8.18797 17.36V16.296C8.18797 16.2 8.13997 16.152 8.04397 16.152C7.37197 16.12 6.78797 15.848 6.30797 15.336C5.82797 14.824 5.57997 14.24 5.57997 13.56C5.57997 12.888 5.80397 12.304 6.25997 11.808C6.71597 11.312 7.26797 11.032 7.93997 10.976L8.36397 10.92C8.45997 10.92 8.51597 10.872 8.51597 10.776L8.57197 10.376C8.65197 9.50402 9.01197 8.76802 9.65997 8.17602C10.308 7.58402 11.068 7.28802 11.948 7.28802C12.812 7.28802 13.572 7.58402 14.22 8.16802C14.868 8.75202 15.244 9.47202 15.34 10.336L15.396 10.8C15.396 10.896 15.444 10.944 15.548 10.944H16.828C17.548 10.944 18.164 11.2 18.684 11.72C19.196 12.232 19.46 12.848 19.46 13.56C19.46 14.232 19.22 14.824 18.74 15.336C18.26 15.84 17.676 16.112 16.996 16.152C16.892 16.152 16.836 16.2 16.836 16.296V17.36C16.836 17.448 16.892 17.496 16.996 17.496C18.06 17.464 18.964 17.064 19.7 16.296C20.436 15.528 20.804 14.624 20.804 13.56C20.804 12.848 20.628 12.184 20.268 11.576C19.9215 10.9761 19.4218 10.4792 18.82 10.136C18.212 9.78402 17.548 9.60802 16.836 9.60802H16.588C16.3416 8.564 15.7461 7.63543 14.9 6.97602C14.0673 6.30325 13.0264 5.94121 11.956 5.95202C10.828 5.95202 9.82797 6.30402 8.95597 7.00002C8.08397 7.69602 7.52397 8.59202 7.27597 9.68002C6.37197 9.91202 5.64397 10.384 5.07597 11.096C4.50797 11.808 4.21997 12.64 4.21997 13.568ZM8.53997 19.184C8.53997 19.32 8.57997 19.456 8.66797 19.592C8.75597 19.728 8.88397 19.816 9.04397 19.872C9.22797 19.928 9.39597 19.92 9.55597 19.84C9.70797 19.768 9.81997 19.616 9.86797 19.392L9.97997 18.904C10.0231 18.7301 9.99609 18.5462 9.90479 18.392C9.81348 18.2379 9.6652 18.1258 9.49197 18.08C9.31597 18.024 9.13997 18.048 8.97997 18.144C8.81997 18.24 8.70797 18.384 8.65997 18.568L8.54797 19.04C8.54797 19.064 8.53997 19.112 8.53997 19.184ZM9.14797 16.864C9.14797 17.032 9.21197 17.184 9.34797 17.32C9.47597 17.456 9.61997 17.52 9.79597 17.52C9.98797 17.52 10.148 17.456 10.276 17.328C10.404 17.2 10.468 17.048 10.468 16.856C10.468 16.672 10.404 16.512 10.276 16.384C10.2133 16.3209 10.1384 16.2714 10.0558 16.2383C9.97329 16.2053 9.88485 16.1896 9.79597 16.192C9.61197 16.192 9.45997 16.256 9.33197 16.376C9.21197 16.52 9.14797 16.68 9.14797 16.864ZM9.63597 15.048C9.62797 15.176 9.65997 15.296 9.74797 15.408C9.82797 15.528 9.95597 15.608 10.132 15.664C10.3 15.712 10.46 15.696 10.628 15.608C10.796 15.52 10.9 15.384 10.956 15.2L11.18 14.48C11.236 14.288 11.22 14.112 11.124 13.96C11.0244 13.8053 10.8701 13.6939 10.692 13.648C10.6091 13.6193 10.5208 13.6094 10.4336 13.6191C10.3465 13.6288 10.2625 13.6578 10.188 13.704C10.0302 13.7889 9.91234 13.9327 9.85997 14.104L9.66797 14.84C9.66797 14.856 9.65997 14.888 9.65197 14.936C9.64397 14.976 9.63597 15.016 9.63597 15.048ZM10.572 21.68C10.572 21.824 10.612 21.952 10.692 22.08C10.772 22.208 10.9 22.296 11.076 22.344C11.14 22.36 11.212 22.368 11.276 22.368C11.62 22.368 11.828 22.208 11.908 21.88L12.02 21.408C12.0694 21.2252 12.0465 21.0304 11.956 20.864C11.912 20.7876 11.8521 20.7217 11.7803 20.6706C11.7085 20.6195 11.6265 20.5845 11.54 20.568C11.457 20.5397 11.3688 20.53 11.2817 20.5397C11.1946 20.5493 11.1107 20.5781 11.036 20.624C10.868 20.72 10.764 20.856 10.708 21.032L10.596 21.504C10.58 21.576 10.572 21.632 10.572 21.68ZM11.188 19.36C11.188 19.536 11.252 19.688 11.388 19.824C11.516 19.952 11.668 20.016 11.844 20.016C12.036 20.016 12.188 19.952 12.316 19.832C12.444 19.704 12.5 19.552 12.5 19.36C12.5029 19.2734 12.4879 19.1872 12.4559 19.1067C12.4239 19.0262 12.3755 18.9532 12.3139 18.8923C12.2523 18.8314 12.1787 18.784 12.0978 18.753C12.0169 18.7219 11.9305 18.708 11.844 18.712C11.652 18.712 11.5 18.776 11.372 18.896C11.244 19.016 11.188 19.176 11.188 19.36ZM11.692 17.544C11.684 17.664 11.716 17.792 11.796 17.92C11.876 18.048 11.996 18.128 12.156 18.16C12.34 18.208 12.508 18.192 12.668 18.112C12.828 18.032 12.932 17.88 12.996 17.664L13.212 16.944C13.268 16.768 13.252 16.6 13.156 16.44C13.1098 16.3614 13.0486 16.2927 12.9758 16.2378C12.9031 16.1829 12.8202 16.1429 12.732 16.12C12.6471 16.0928 12.5573 16.0844 12.4689 16.0955C12.3805 16.1066 12.2955 16.1368 12.22 16.184C12.052 16.28 11.948 16.424 11.892 16.608L11.708 17.328C11.7 17.392 11.692 17.464 11.692 17.544ZM13.9 19.264C13.9 19.392 13.94 19.52 14.02 19.648C14.1 19.776 14.228 19.864 14.388 19.912C14.412 19.912 14.452 19.92 14.5 19.928C14.548 19.936 14.58 19.944 14.612 19.944C14.94 19.944 15.14 19.768 15.22 19.416L15.332 18.936C15.388 18.768 15.372 18.6 15.276 18.432C15.2346 18.3519 15.1769 18.2814 15.1066 18.2249C15.0364 18.1684 14.9551 18.1273 14.868 18.104C14.668 18.056 14.484 18.072 14.324 18.168C14.164 18.264 14.052 18.4 13.996 18.592L13.924 19.064C13.924 19.08 13.916 19.12 13.908 19.16C13.9 19.2 13.9 19.232 13.9 19.264ZM14.492 16.896C14.492 17.072 14.556 17.232 14.692 17.352C14.812 17.48 14.964 17.544 15.148 17.544C15.34 17.544 15.492 17.48 15.62 17.36C15.748 17.24 15.804 17.08 15.804 16.896C15.804 16.704 15.74 16.552 15.62 16.424C15.5 16.296 15.34 16.24 15.148 16.24C14.956 16.24 14.804 16.304 14.676 16.424C14.556 16.552 14.492 16.704 14.492 16.896ZM14.98 15.048C14.98 15.184 15.02 15.312 15.108 15.432C15.196 15.552 15.324 15.64 15.5 15.688C15.516 15.688 15.548 15.696 15.596 15.704C15.644 15.712 15.684 15.72 15.708 15.72C15.788 15.72 15.884 15.696 15.996 15.648C16.164 15.56 16.276 15.416 16.324 15.232L16.516 14.512C16.564 14.328 16.548 14.16 16.452 14.008C16.409 13.93 16.3507 13.8614 16.2806 13.8064C16.2105 13.7514 16.13 13.7111 16.044 13.688C15.96 13.6597 15.8711 13.6493 15.7829 13.6576C15.6947 13.6659 15.6092 13.6926 15.532 13.736C15.38 13.824 15.268 13.952 15.22 14.144L14.996 14.872C14.996 14.888 14.988 14.92 14.98 14.968V15.048Z"
    fill="#0f172a" />
</svg>
