<svg width="25" height="24" viewBox="0 0 25 24" fill="none" xmlns="http://www.w3.org/2000/svg">
  <path
    d="M3.75598 13.52C3.75598 14.584 4.13198 15.504 4.87598 16.272C5.61998 17.04 6.53198 17.448 7.59598 17.496C7.69198 17.496 7.73998 17.448 7.73998 17.36V16.288C7.73998 16.2 7.69198 16.152 7.59598 16.152C7.26405 16.1369 6.93837 16.0564 6.63769 15.915C6.33701 15.7735 6.06727 15.5741 5.84398 15.328C5.36398 14.816 5.12398 14.216 5.12398 13.52C5.12398 12.856 5.34798 12.28 5.80398 11.784C6.25998 11.288 6.81998 11.008 7.48398 10.928L7.90798 10.896C8.01198 10.896 8.06798 10.848 8.06798 10.76L8.12398 10.328C8.21198 9.46399 8.57998 8.73599 9.22798 8.15199C9.85046 7.57752 10.669 7.26271 11.516 7.27199C12.388 7.27199 13.148 7.56799 13.804 8.15199C14.46 8.73599 14.828 9.46399 14.924 10.328L14.988 10.784C14.988 10.88 15.036 10.928 15.124 10.928H16.42C17.132 10.928 17.756 11.184 18.276 11.696C18.796 12.208 19.06 12.816 19.06 13.52C19.06 14.216 18.82 14.816 18.34 15.328C17.86 15.84 17.276 16.112 16.588 16.152C16.476 16.152 16.42 16.2 16.42 16.288V17.36C16.42 17.448 16.476 17.496 16.588 17.496C17.652 17.464 18.556 17.056 19.292 16.288C20.036 15.512 20.404 14.592 20.404 13.528C20.404 12.824 20.22 12.168 19.86 11.56C20.508 10.976 20.924 10.28 21.124 9.46399L21.236 8.88799C21.244 8.87999 21.252 8.86399 21.252 8.83199C21.252 8.77599 21.212 8.72799 21.124 8.70399L20.676 8.55999C20.22 8.43199 19.828 8.20799 19.508 7.89599C19.18 7.58399 18.948 7.25599 18.812 6.91199C18.676 6.56799 18.604 6.22399 18.604 5.88799C18.588 5.71199 18.612 5.48799 18.668 5.23199L18.78 4.74399C18.812 4.66399 18.78 4.59999 18.668 4.55199L18.036 4.35999C17.676 4.27999 17.34 4.23999 17.02 4.23999C16.716 4.23999 16.412 4.27199 16.108 4.34399C15.796 4.41599 15.476 4.51999 15.148 4.67199C14.82 4.81599 14.5 5.03199 14.188 5.31199C13.876 5.59199 13.612 5.91199 13.388 6.28799C12.732 6.04799 12.108 5.92799 11.524 5.92799C10.396 5.92799 9.38798 6.27999 8.51598 6.98399C7.64398 7.68799 7.07598 8.58399 6.82798 9.67999C5.93998 9.88799 5.21198 10.344 4.63598 11.064C4.04398 11.776 3.75598 12.6 3.75598 13.52ZM8.20398 18.992C8.20398 19.128 8.24398 19.256 8.33198 19.384C8.41998 19.512 8.54798 19.6 8.72398 19.648C8.90798 19.704 9.08398 19.688 9.23598 19.616C9.39598 19.536 9.49998 19.392 9.55598 19.168L10.7 14.472C10.748 14.272 10.724 14.088 10.636 13.936C10.592 13.8596 10.5321 13.7936 10.4603 13.7425C10.3885 13.6915 10.3065 13.6565 10.22 13.64C10.1371 13.6112 10.0488 13.6014 9.96165 13.611C9.87446 13.6207 9.79053 13.6497 9.71598 13.696C9.55598 13.784 9.44398 13.92 9.38798 14.104L8.23598 18.824C8.23598 18.832 8.22798 18.856 8.21998 18.896C8.21198 18.936 8.20398 18.968 8.20398 18.992ZM10.292 21.448C10.292 21.576 10.332 21.696 10.412 21.816C10.492 21.936 10.612 22.016 10.772 22.064C10.86 22.088 10.924 22.096 10.964 22.096C11.316 22.096 11.532 21.936 11.62 21.624L13.42 14.48C13.468 14.288 13.452 14.112 13.364 13.96C13.2755 13.8086 13.1323 13.6969 12.964 13.648C12.78 13.592 12.604 13.608 12.436 13.704C12.268 13.8 12.164 13.928 12.124 14.104L10.316 21.24C10.316 21.248 10.316 21.28 10.308 21.336C10.292 21.384 10.292 21.424 10.292 21.448ZM13.62 19.056C13.62 19.344 13.788 19.536 14.124 19.648C14.236 19.68 14.316 19.696 14.364 19.696C14.452 19.696 14.548 19.68 14.644 19.64C14.812 19.576 14.916 19.416 14.956 19.176L16.1 14.48C16.148 14.288 16.132 14.12 16.036 13.96C15.9461 13.8065 15.7996 13.6945 15.628 13.648C15.5411 13.6192 15.449 13.6093 15.3579 13.619C15.2669 13.6286 15.1789 13.6576 15.1 13.704C14.932 13.792 14.836 13.928 14.796 14.112L13.652 18.832C13.636 18.96 13.62 19.04 13.62 19.056ZM14.564 7.01599C14.82 6.55199 15.164 6.19999 15.612 5.95199C16.052 5.71199 16.524 5.59199 17.02 5.59999C17.116 5.59999 17.188 5.59999 17.236 5.60799V5.84799C17.228 6.62399 17.428 7.35199 17.852 8.04799C18.268 8.73599 18.86 9.26399 19.62 9.62399C19.444 9.99199 19.228 10.272 18.988 10.48C18.252 9.87199 17.396 9.57599 16.404 9.57599H16.156C15.94 8.55999 15.412 7.71199 14.564 7.01599Z"
    fill="#0f172a" />
</svg>
