<svg width="25" height="24" viewBox="0 0 25 24" fill="none" xmlns="http://www.w3.org/2000/svg">
  <path
    d="M4.21204 13.528C4.21204 12.608 4.50004 11.792 5.07604 11.072C5.62306 10.3731 6.39445 9.88426 7.26004 9.68803C7.50804 8.60003 8.07604 7.70403 8.94804 7.00003C9.82004 6.29603 10.82 5.95203 11.948 5.95203C13.052 5.95203 14.028 6.29603 14.892 6.97603C15.756 7.65603 16.316 8.53603 16.572 9.60803H16.828C17.54 9.60803 18.204 9.78403 18.812 10.128C19.42 10.472 19.908 10.952 20.26 11.552C20.612 12.152 20.796 12.816 20.796 13.528C20.796 14.232 20.628 14.88 20.292 15.48C19.956 16.08 19.492 16.56 18.908 16.92C18.324 17.28 17.684 17.472 16.988 17.488C16.884 17.488 16.828 17.44 16.828 17.352V16.288C16.828 16.192 16.884 16.144 16.988 16.144C17.668 16.112 18.252 15.84 18.732 15.328C19.212 14.816 19.452 14.216 19.452 13.52C19.452 12.824 19.188 12.224 18.668 11.712C18.148 11.2 17.532 10.944 16.82 10.944H15.532C15.436 10.944 15.388 10.896 15.388 10.808L15.324 10.344C15.2474 9.50482 14.8489 8.72786 14.212 8.17603C13.556 7.59203 12.804 7.30403 11.932 7.30403C11.06 7.30403 10.292 7.59203 9.65204 8.17603C9.02029 8.72898 8.62981 9.50705 8.56404 10.344L8.50804 10.768C8.50804 10.864 8.45204 10.92 8.34804 10.92L7.92404 10.944C7.26004 11.024 6.70004 11.312 6.24404 11.8C5.78804 12.288 5.56404 12.864 5.56404 13.528C5.56404 14.224 5.80404 14.824 6.28404 15.336C6.76404 15.848 7.34804 16.12 8.02804 16.152C8.11604 16.152 8.16404 16.2 8.16404 16.296V17.36C8.16404 17.448 8.11604 17.496 8.02804 17.496C6.95604 17.448 6.05204 17.04 5.30804 16.272C4.56404 15.504 4.21204 14.592 4.21204 13.528ZM8.49204 18.88C8.49204 18.848 8.50004 18.792 8.52404 18.72L9.82804 14.104C9.87939 13.9381 9.9932 13.7986 10.1455 13.715C10.2977 13.6314 10.4765 13.6103 10.644 13.656C10.836 13.688 10.98 13.792 11.076 13.952C11.172 14.112 11.196 14.288 11.14 14.488L9.83604 19.072C9.74004 19.416 9.51604 19.584 9.18004 19.584C9.14804 19.584 9.12404 19.576 9.09204 19.568C9.04404 19.552 9.02004 19.544 9.01204 19.544C8.85345 19.507 8.71396 19.4131 8.62004 19.28C8.53834 19.1625 8.49376 19.0232 8.49204 18.88ZM10.588 21.128L12.54 14.112C12.572 13.96 12.652 13.84 12.78 13.76C12.908 13.68 13.036 13.64 13.172 13.64C13.244 13.64 13.316 13.648 13.388 13.664C13.564 13.712 13.692 13.816 13.78 13.976C13.868 14.136 13.884 14.304 13.836 14.488L11.892 21.512C11.86 21.648 11.788 21.76 11.66 21.856C11.532 21.952 11.404 22 11.252 22C11.18 22 11.108 21.984 11.052 21.96C10.892 21.92 10.756 21.816 10.636 21.648C10.548 21.504 10.532 21.336 10.588 21.128ZM13.892 18.896C13.892 18.864 13.9 18.808 13.924 18.712L15.228 14.096C15.2672 13.9555 15.3515 13.8318 15.468 13.744C15.588 13.664 15.708 13.624 15.836 13.624C15.9 13.624 15.972 13.632 16.044 13.648C16.212 13.696 16.332 13.776 16.412 13.896C16.492 14.016 16.532 14.144 16.532 14.272C16.532 14.296 16.524 14.336 16.516 14.384C16.508 14.432 16.5 14.464 16.5 14.48L15.196 19.064C15.164 19.216 15.092 19.344 14.972 19.432C14.852 19.52 14.716 19.568 14.564 19.568L14.372 19.528C14.2228 19.4893 14.0923 19.3985 14.004 19.272C13.9332 19.1592 13.8945 19.0292 13.892 18.896Z"
    fill="#0f172a" />
</svg>
