<svg width="24" height="24" viewBox="0 0 24 24" fill="none" xmlns="http://www.w3.org/2000/svg">
  <path
    d="M3.25598 13.544C3.25598 14.608 3.63198 15.52 4.37598 16.288C5.11998 17.056 6.03198 17.464 7.09598 17.496C7.19198 17.496 7.23998 17.448 7.23998 17.36V16.288C7.23998 16.2 7.19198 16.152 7.09598 16.152C6.41598 16.12 5.83198 15.84 5.35198 15.328C4.86398 14.816 4.62398 14.216 4.62398 13.536C4.62398 12.856 4.84798 12.272 5.30398 11.776C5.75998 11.28 6.31998 11.008 6.98398 10.952L7.40798 10.896C7.51198 10.896 7.56798 10.848 7.56798 10.76L7.62398 10.344C7.71198 9.47198 8.07198 8.73598 8.71998 8.14398C9.36798 7.55198 10.128 7.25598 11.008 7.25598C11.88 7.25598 12.64 7.55198 13.296 8.13598C13.952 8.71998 14.32 9.44798 14.416 10.312L14.48 10.768C14.48 10.864 14.528 10.912 14.616 10.912H15.912C16.64 10.912 17.256 11.168 17.776 11.688C18.296 12.2 18.552 12.816 18.552 13.536C18.552 14.216 18.312 14.816 17.824 15.328C17.336 15.84 16.76 16.112 16.08 16.152C15.968 16.152 15.912 16.2 15.912 16.288V17.36C15.912 17.448 15.968 17.496 16.08 17.496C16.7622 17.4847 17.4286 17.2884 18.008 16.928C18.592 16.568 19.056 16.088 19.392 15.488C19.728 14.888 19.896 14.24 19.896 13.544C19.896 12.816 19.72 12.152 19.376 11.56C19.968 11.032 20.368 10.344 20.592 9.49598L20.728 8.91998C20.736 8.91198 20.744 8.88798 20.744 8.85598C20.744 8.79998 20.704 8.75198 20.616 8.72798L20.128 8.59198C19.776 8.48798 19.464 8.33598 19.192 8.13598C18.92 7.93598 18.704 7.71198 18.544 7.46398C18.384 7.21598 18.272 6.96798 18.192 6.70398C18.112 6.44798 18.072 6.19198 18.072 5.94398C18.072 5.72798 18.096 5.49598 18.152 5.25598L18.24 4.75998C18.256 4.68798 18.224 4.62398 18.128 4.58398L17.488 4.39198C17.136 4.30398 16.808 4.26398 16.488 4.26398C16.192 4.26398 15.896 4.29598 15.592 4.36798C15.288 4.43998 14.976 4.54398 14.648 4.69598C14.32 4.84798 14.008 5.05598 13.704 5.33598C13.4 5.61598 13.136 5.93598 12.912 6.31198C12.264 6.04798 11.632 5.91198 11.008 5.91198C9.87998 5.91198 8.87198 6.26398 7.99998 6.96798C7.12798 7.67198 6.55998 8.56798 6.31198 9.66398C5.41598 9.88798 4.67998 10.36 4.11198 11.072C3.54398 11.792 3.25598 12.616 3.25598 13.544ZM8.36798 16.816C8.36798 17.008 8.43198 17.168 8.55998 17.296C8.68798 17.432 8.83998 17.496 9.03198 17.496C9.22398 17.496 9.38398 17.432 9.51198 17.296C9.63998 17.16 9.70398 17 9.70398 16.816C9.70398 16.64 9.63998 16.48 9.51198 16.352C9.38398 16.224 9.22398 16.16 9.03198 16.16C8.84798 16.16 8.68798 16.224 8.55998 16.352C8.43198 16.48 8.36798 16.632 8.36798 16.816ZM8.36798 19.728C8.36798 19.912 8.43198 20.064 8.55998 20.192C8.68798 20.32 8.84798 20.384 9.02398 20.384C9.21598 20.384 9.37598 20.32 9.50398 20.2C9.63198 20.072 9.69598 19.92 9.69598 19.728C9.69598 19.536 9.63198 19.384 9.50398 19.256C9.44087 19.194 9.36569 19.1457 9.28311 19.1141C9.20053 19.0824 9.11233 19.0681 9.02398 19.072C8.83198 19.072 8.67998 19.136 8.55198 19.256C8.43198 19.376 8.36798 19.536 8.36798 19.728ZM10.928 18.368C10.928 18.56 10.992 18.72 11.12 18.84C11.248 18.968 11.408 19.032 11.584 19.032C11.776 19.032 11.936 18.968 12.072 18.84C12.208 18.712 12.272 18.552 12.272 18.368C12.272 18.176 12.208 18.016 12.072 17.88C11.936 17.744 11.776 17.672 11.584 17.672C11.408 17.672 11.256 17.744 11.12 17.88C10.984 18.016 10.928 18.176 10.928 18.368ZM10.928 15.456C10.928 15.648 10.992 15.8 11.12 15.92C11.248 16.048 11.408 16.112 11.584 16.112C11.776 16.112 11.944 16.048 12.072 15.928C12.2 15.808 12.272 15.648 12.272 15.456C12.272 15.272 12.208 15.112 12.072 14.976C11.936 14.84 11.776 14.776 11.584 14.776C11.408 14.776 11.248 14.84 11.12 14.976C10.992 15.112 10.928 15.272 10.928 15.456ZM10.928 21.304C10.928 21.48 10.992 21.632 11.12 21.76C11.256 21.896 11.408 21.96 11.584 21.96C11.776 21.96 11.936 21.896 12.072 21.768C12.208 21.64 12.272 21.488 12.272 21.296C12.272 21.104 12.208 20.944 12.072 20.808C12.0092 20.7417 11.9335 20.689 11.8496 20.6533C11.7656 20.6175 11.6752 20.5993 11.584 20.6C11.408 20.6 11.256 20.672 11.12 20.808C11 20.952 10.928 21.12 10.928 21.304ZM13.52 16.816C13.52 17.008 13.584 17.168 13.72 17.296C13.856 17.424 14.008 17.496 14.2 17.496C14.392 17.496 14.544 17.432 14.672 17.296C14.8 17.16 14.864 17 14.864 16.816C14.864 16.64 14.8 16.48 14.672 16.352C14.544 16.224 14.392 16.16 14.2 16.16C14.008 16.16 13.856 16.224 13.72 16.352C13.584 16.48 13.52 16.632 13.52 16.816ZM13.52 19.728C13.52 19.912 13.584 20.064 13.712 20.192C13.84 20.32 14 20.384 14.192 20.384C14.384 20.384 14.536 20.32 14.664 20.192C14.792 20.064 14.848 19.912 14.848 19.72C14.848 19.528 14.784 19.376 14.664 19.248C14.536 19.12 14.384 19.064 14.192 19.064C14 19.064 13.84 19.128 13.712 19.248C13.584 19.376 13.52 19.536 13.52 19.728ZM14.064 7.01598C14.312 6.58398 14.664 6.24798 15.104 6.00798C15.544 5.76798 16 5.64798 16.472 5.63998C16.592 5.63998 16.68 5.64798 16.736 5.65598V5.90398C16.736 6.67998 16.944 7.40798 17.36 8.09598C17.776 8.78398 18.36 9.30398 19.096 9.66398C18.968 9.95198 18.768 10.24 18.488 10.52C17.776 9.88798 16.92 9.57598 15.904 9.57598H15.656C15.44 8.59198 14.912 7.74398 14.064 7.01598Z"
    fill="#0f172a" />
</svg>
