<svg width="24" height="24" viewBox="0 0 24 24" fill="none" xmlns="http://www.w3.org/2000/svg">
  <path
    d="M5.96788 11.528C5.96788 11.376 6.02388 11.24 6.12788 11.128C6.17609 11.0741 6.23533 11.0312 6.30159 11.0022C6.36785 10.9732 6.43957 10.9588 6.51188 10.96C6.66388 10.96 6.79988 11.016 6.90388 11.128C7.00788 11.24 7.06388 11.368 7.06388 11.528C7.06388 11.68 7.00788 11.808 6.90388 11.912C6.85377 11.963 6.79401 12.0035 6.72808 12.0311C6.66215 12.0588 6.59137 12.073 6.51988 12.073C6.44839 12.073 6.37762 12.0588 6.31169 12.0311C6.24576 12.0035 6.18599 11.963 6.13588 11.912C6.08172 11.864 6.03864 11.8048 6.00963 11.7385C5.98062 11.6722 5.96637 11.6003 5.96788 11.528ZM7.55188 11.528C7.55188 11.376 7.60788 11.24 7.71188 11.128C7.76009 11.0741 7.81933 11.0312 7.88559 11.0022C7.95185 10.9732 8.02357 10.9588 8.09588 10.96H10.6799L8.85588 9.13598C8.80147 9.08992 8.75812 9.03221 8.72903 8.96713C8.69995 8.90204 8.68589 8.83124 8.68788 8.75998C8.68788 8.60798 8.74388 8.47998 8.85588 8.36798C8.96788 8.25598 9.09588 8.19998 9.24788 8.19998C9.39988 8.19998 9.52788 8.25598 9.63988 8.36798L11.4559 10.184V7.61598C11.4559 7.46398 11.5119 7.32798 11.6239 7.21598C11.7359 7.10398 11.8639 7.04798 12.0239 7.04798C12.1759 7.04798 12.3039 7.10398 12.4079 7.21598C12.5119 7.32798 12.5679 7.45598 12.5679 7.61598V10.2L14.3999 8.35998C14.5119 8.24798 14.6399 8.19198 14.7839 8.19198C14.9279 8.19198 15.0639 8.24798 15.1759 8.35998C15.2719 8.47198 15.3199 8.59998 15.3199 8.75198C15.3199 8.90398 15.2719 9.03198 15.1759 9.12798L13.3519 10.952H15.9359C16.0799 10.952 16.2079 11.008 16.3119 11.12C16.4159 11.232 16.4719 11.36 16.4719 11.52C16.4719 11.664 16.4159 11.792 16.3119 11.896C16.2633 11.9467 16.2049 11.987 16.1403 12.0145C16.0756 12.042 16.0061 12.0561 15.9359 12.056H13.3519L15.1839 13.888C15.2799 13.984 15.3279 14.112 15.3279 14.264C15.3279 14.416 15.2799 14.544 15.1839 14.656C15.0719 14.768 14.9359 14.824 14.7919 14.824C14.6479 14.824 14.5119 14.768 14.4079 14.656L12.5759 12.816V15.408C12.5759 15.56 12.5199 15.696 12.4159 15.8C12.3119 15.904 12.1839 15.96 12.0319 15.96C11.8829 15.9604 11.7395 15.903 11.6319 15.8C11.5778 15.7502 11.5348 15.6896 11.5058 15.622C11.4769 15.5544 11.4626 15.4815 11.4639 15.408V12.832L9.64788 14.648C9.53588 14.76 9.40788 14.816 9.25588 14.816C9.10388 14.816 8.97588 14.76 8.86388 14.648C8.75188 14.536 8.69588 14.408 8.69588 14.256C8.69588 14.104 8.75188 13.984 8.86388 13.88L10.7039 12.048H8.11188C7.95988 12.048 7.83188 11.992 7.72788 11.888C7.67017 11.8481 7.62367 11.794 7.59285 11.731C7.56203 11.6679 7.54793 11.598 7.55188 11.528ZM7.55988 15.4C7.55988 15.256 7.61588 15.12 7.72788 15.016C7.82388 14.904 7.95188 14.848 8.10388 14.848C8.25588 14.848 8.38388 14.904 8.49588 15.016C8.60788 15.128 8.66388 15.256 8.66388 15.4C8.66388 15.544 8.60788 15.68 8.49588 15.784C8.38388 15.896 8.25588 15.952 8.10388 15.952C7.95188 15.952 7.82388 15.896 7.72788 15.784C7.67397 15.7358 7.63106 15.6765 7.60207 15.6103C7.57308 15.544 7.55869 15.4723 7.55988 15.4ZM7.55988 7.63198C7.55988 7.48798 7.61588 7.35198 7.72788 7.24798C7.82388 7.13598 7.95188 7.07998 8.10388 7.07998C8.25588 7.07998 8.38388 7.13598 8.49588 7.24798C8.60788 7.35998 8.66388 7.48798 8.66388 7.63198C8.66388 7.77598 8.60788 7.91198 8.49588 8.02398C8.38388 8.13598 8.25588 8.19198 8.10388 8.19198C7.95188 8.19198 7.82388 8.13598 7.72788 8.02398C7.67503 7.97324 7.63292 7.91239 7.60406 7.84505C7.5752 7.77771 7.56017 7.70525 7.55988 7.63198ZM11.4399 17C11.4399 16.856 11.4959 16.728 11.6079 16.624C11.7199 16.52 11.8479 16.464 12.0079 16.464C12.1599 16.464 12.2879 16.52 12.3919 16.624C12.4959 16.728 12.5519 16.856 12.5519 17C12.5519 17.152 12.4959 17.288 12.3919 17.392C12.2879 17.496 12.1599 17.552 12.0079 17.552C11.8589 17.5524 11.7155 17.495 11.6079 17.392C11.5531 17.3427 11.5098 17.2822 11.4808 17.2145C11.4517 17.1468 11.4378 17.0736 11.4399 17ZM11.4399 6.03198C11.4399 5.87998 11.4959 5.74398 11.6079 5.63998C11.7199 5.53598 11.8479 5.47998 12.0079 5.47998C12.1599 5.47998 12.2879 5.53598 12.3919 5.63998C12.4677 5.71605 12.5193 5.81287 12.5402 5.91822C12.5611 6.02357 12.5503 6.13274 12.5092 6.23198C12.4682 6.33122 12.3986 6.41608 12.3094 6.47588C12.2202 6.53567 12.1153 6.56772 12.0079 6.56798C11.8589 6.56839 11.7155 6.51105 11.6079 6.40798C11.5547 6.36086 11.5123 6.30295 11.4833 6.23811C11.4543 6.17327 11.4395 6.103 11.4399 6.03198ZM15.3359 15.4C15.3359 15.256 15.3919 15.12 15.5039 15.016C15.5999 14.904 15.7279 14.848 15.8799 14.848C16.0319 14.848 16.1599 14.904 16.2719 15.016C16.3839 15.128 16.4399 15.256 16.4399 15.4C16.4399 15.544 16.3839 15.68 16.2719 15.784C16.1599 15.896 16.0319 15.952 15.8799 15.952C15.7279 15.952 15.5999 15.896 15.5039 15.784C15.45 15.7358 15.4071 15.6765 15.3781 15.6103C15.3491 15.544 15.3347 15.4723 15.3359 15.4ZM15.3359 7.63198C15.3359 7.48798 15.3919 7.35198 15.5039 7.24798C15.5999 7.13598 15.7279 7.07998 15.8799 7.07998C16.0319 7.07998 16.1599 7.13598 16.2719 7.24798C16.3839 7.35998 16.4399 7.48798 16.4399 7.63198C16.4399 7.77598 16.3839 7.91198 16.2719 8.02398C16.1599 8.13598 16.0319 8.19198 15.8799 8.19198C15.7279 8.19198 15.5999 8.13598 15.5039 8.02398C15.451 7.97324 15.4089 7.91239 15.3801 7.84505C15.3512 7.77771 15.3362 7.70525 15.3359 7.63198ZM16.9359 11.528C16.9359 11.376 16.9919 11.24 17.0959 11.128C17.1999 11.016 17.3359 10.96 17.4879 10.96C17.6319 10.96 17.7599 11.016 17.8639 11.128C17.9679 11.24 18.0239 11.368 18.0239 11.528C18.0239 11.672 17.9679 11.8 17.8639 11.904C17.7619 12.0056 17.6238 12.0626 17.4799 12.0626C17.3359 12.0626 17.1978 12.0056 17.0959 11.904C17.0452 11.8554 17.0049 11.797 16.9774 11.7324C16.9499 11.6677 16.9358 11.5982 16.9359 11.528Z"
    fill="#0f172a" />
</svg>
