<svg width="24" height="24" viewBox="0 0 24 24" fill="none" xmlns="http://www.w3.org/2000/svg">
  <path
    d="M3.2561 13.544C3.2561 14.608 3.6321 15.52 4.3761 16.288C5.1201 17.056 6.0321 17.464 7.0961 17.496C7.1921 17.496 7.2401 17.448 7.2401 17.36V16.288C7.2401 16.2 7.1921 16.152 7.0961 16.152C6.4161 16.12 5.8321 15.84 5.3521 15.328C4.8721 14.816 4.6241 14.216 4.6241 13.544C4.6241 12.864 4.8481 12.272 5.3041 11.776C5.7601 11.28 6.3201 11 6.9841 10.944L7.4081 10.888C7.5121 10.888 7.5681 10.84 7.5681 10.744L7.6241 10.336C7.7121 9.45598 8.0721 8.71997 8.7201 8.13597C9.3681 7.55198 10.1281 7.25597 11.0081 7.25597C11.8801 7.25597 12.6401 7.55198 13.2961 8.13597C13.9521 8.71997 14.3281 9.44798 14.4161 10.312L14.4721 10.768C14.4721 10.864 14.5201 10.92 14.6081 10.92H15.9041C16.6321 10.92 17.2481 11.176 17.7681 11.696C18.2881 12.208 18.5441 12.824 18.5441 13.544C18.5441 13.984 18.4321 14.4 18.2161 14.792C18.0001 15.184 17.6961 15.504 17.3121 15.752C16.9281 16 16.5121 16.136 16.0641 16.16C15.9601 16.16 15.9041 16.208 15.9041 16.296V17.368C15.9041 17.456 15.9601 17.504 16.0641 17.504C16.7681 17.488 17.4161 17.296 18.0001 16.936C18.5841 16.576 19.0481 16.096 19.3841 15.496C19.7201 14.896 19.8881 14.248 19.8881 13.552C19.8881 12.848 19.7041 12.176 19.3441 11.544C20.0081 10.952 20.4321 10.248 20.6081 9.44798L20.7201 8.90398C20.728 8.89696 20.7342 8.88831 20.7383 8.87864C20.7425 8.86896 20.7444 8.8585 20.7441 8.84798C20.7441 8.79998 20.6961 8.75997 20.6081 8.71997L20.1681 8.57597C19.7121 8.43998 19.3121 8.21597 18.9921 7.89597C18.6641 7.57597 18.4321 7.24797 18.2961 6.89597C18.1601 6.55198 18.0881 6.20798 18.0881 5.86397C18.0721 5.69597 18.0961 5.47198 18.1601 5.20798L18.2641 4.74397C18.2961 4.66397 18.2641 4.59997 18.1601 4.55997L17.5201 4.36798C16.8899 4.19888 16.2276 4.18788 15.5921 4.33598C15.2881 4.40798 14.9681 4.51197 14.6401 4.66397C14.3121 4.81597 13.9921 5.03197 13.6801 5.31197C13.3681 5.59197 13.1041 5.91997 12.8801 6.29597C12.2321 6.04797 11.6001 5.92797 11.0001 5.92797C9.8721 5.92797 8.8641 6.27997 7.9921 6.98397C7.1201 7.68797 6.5521 8.58398 6.3041 9.67998C5.4081 9.91198 4.6721 10.384 4.1041 11.096C3.5361 11.792 3.2561 12.616 3.2561 13.544ZM7.5841 19.184C7.5841 19.32 7.6241 19.456 7.7121 19.592C7.8001 19.728 7.9281 19.816 8.0881 19.872C8.2721 19.928 8.4401 19.92 8.6001 19.84C8.7601 19.76 8.8561 19.616 8.9121 19.392L9.0241 18.904C9.0641 18.72 9.0401 18.552 8.9521 18.4C8.90852 18.3209 8.84908 18.2516 8.7775 18.1966C8.70592 18.1415 8.62374 18.1018 8.5361 18.08C8.3521 18.024 8.1841 18.048 8.0241 18.144C7.8641 18.24 7.7521 18.384 7.7041 18.568L7.6001 19.032C7.5841 19.064 7.5841 19.112 7.5841 19.184ZM8.1921 16.864C8.1921 17.032 8.2561 17.184 8.3921 17.32C8.5201 17.456 8.6641 17.52 8.8401 17.52C9.0321 17.52 9.1921 17.456 9.3201 17.328C9.4481 17.2 9.5121 17.048 9.5121 16.856C9.5121 16.672 9.4481 16.512 9.3201 16.384C9.25744 16.3209 9.18253 16.2713 9.09997 16.2383C9.01742 16.2053 8.92898 16.1895 8.8401 16.192C8.6561 16.192 8.4961 16.256 8.3761 16.376C8.2561 16.496 8.1921 16.68 8.1921 16.864ZM8.6801 15.048C8.6721 15.176 8.7041 15.296 8.7921 15.408C8.8721 15.528 9.0001 15.608 9.1761 15.664C9.25831 15.6883 9.34458 15.6959 9.42979 15.6863C9.51499 15.6767 9.5974 15.6501 9.6721 15.608C9.8401 15.52 9.9441 15.384 10.0001 15.2L10.2241 14.48C10.2801 14.288 10.2641 14.112 10.1681 13.96C10.0685 13.8053 9.91426 13.6939 9.7361 13.648C9.65322 13.6192 9.56497 13.6093 9.47778 13.619C9.39058 13.6287 9.30665 13.6577 9.2321 13.704C9.07434 13.7889 8.95647 13.9326 8.9041 14.104L8.7121 14.84C8.7121 14.856 8.7041 14.888 8.6961 14.936C8.6801 14.976 8.6801 15.016 8.6801 15.048ZM9.6081 21.68C9.6081 21.824 9.6481 21.952 9.7281 22.08C9.8081 22.208 9.9361 22.296 10.1121 22.344C10.1761 22.36 10.2481 22.368 10.3121 22.368C10.6561 22.368 10.8641 22.208 10.9441 21.88L11.0561 21.408C11.1041 21.2 11.0801 21.024 10.9921 20.864C10.9041 20.704 10.7601 20.608 10.5761 20.568C10.4932 20.5396 10.405 20.5299 10.3178 20.5396C10.2307 20.5493 10.1468 20.5781 10.0721 20.624C9.9041 20.72 9.8001 20.856 9.7441 21.032L9.6321 21.504C9.6161 21.576 9.6081 21.632 9.6081 21.68ZM10.2321 19.36C10.2321 19.536 10.2961 19.688 10.4321 19.824C10.5601 19.952 10.7121 20.016 10.8881 20.016C11.0801 20.016 11.2321 19.952 11.3601 19.832C11.4881 19.704 11.5441 19.552 11.5441 19.36C11.5441 19.176 11.4801 19.024 11.3601 18.896C11.2401 18.768 11.0801 18.712 10.8881 18.712C10.6961 18.712 10.5441 18.776 10.4161 18.896C10.3559 18.957 10.3086 19.0296 10.277 19.1093C10.2454 19.189 10.2301 19.2743 10.2321 19.36ZM10.7361 17.544C10.7281 17.664 10.7601 17.792 10.8401 17.92C10.9201 18.048 11.0401 18.128 11.2001 18.16C11.3841 18.208 11.5521 18.192 11.7121 18.112C11.8641 18.032 11.9761 17.88 12.0401 17.664L12.2561 16.944C12.3121 16.768 12.2961 16.6 12.2001 16.44C12.1539 16.3614 12.0927 16.2927 12.02 16.2378C11.9472 16.1829 11.8643 16.1428 11.7761 16.12C11.6001 16.064 11.4321 16.088 11.2641 16.184C11.0961 16.28 10.9921 16.424 10.9361 16.608L10.7601 17.328C10.7441 17.392 10.7361 17.464 10.7361 17.544ZM12.9361 19.264C12.9361 19.392 12.9761 19.52 13.0561 19.648C13.1361 19.776 13.2641 19.864 13.4241 19.912C13.4481 19.912 13.4881 19.92 13.5361 19.928C13.5841 19.936 13.6161 19.944 13.6481 19.944C13.9761 19.944 14.1761 19.768 14.2561 19.416L14.3681 18.936C14.4241 18.768 14.4081 18.6 14.3121 18.432C14.2707 18.3519 14.213 18.2814 14.1427 18.2249C14.0725 18.1684 13.9912 18.1272 13.9041 18.104C13.7041 18.056 13.5201 18.072 13.3601 18.168C13.2001 18.264 13.0881 18.4 13.0321 18.592L12.9601 19.064C12.9601 19.08 12.9521 19.12 12.9441 19.16C12.9441 19.2 12.9361 19.232 12.9361 19.264ZM13.5281 16.896C13.5281 17.072 13.5921 17.232 13.7281 17.352C13.8481 17.48 14.0001 17.544 14.1841 17.544C14.3761 17.544 14.5281 17.48 14.6561 17.36C14.7841 17.24 14.8401 17.08 14.8401 16.896C14.8401 16.704 14.7761 16.552 14.6561 16.424C14.5361 16.296 14.3761 16.24 14.1841 16.24C13.9921 16.24 13.8401 16.304 13.7121 16.424C13.5841 16.544 13.5281 16.704 13.5281 16.896ZM14.0161 15.048C14.0161 15.184 14.0561 15.312 14.1441 15.432C14.2321 15.552 14.3601 15.64 14.5361 15.688C14.5521 15.688 14.5841 15.696 14.6321 15.704C14.6801 15.712 14.7201 15.72 14.7441 15.72C14.8241 15.72 14.9201 15.696 15.0321 15.648C15.2001 15.56 15.3121 15.416 15.3601 15.232L15.5521 14.512C15.6001 14.328 15.5841 14.16 15.4881 14.008C15.4452 13.9299 15.3869 13.8613 15.3168 13.8063C15.2466 13.7514 15.1662 13.7111 15.0801 13.688C14.8961 13.632 14.7281 13.648 14.5681 13.736C14.4081 13.824 14.3121 13.952 14.2561 14.144L14.0321 14.872C14.0321 14.888 14.0241 14.92 14.0161 14.968C14.0241 14.992 14.0161 15.024 14.0161 15.048ZM14.0721 7.00798C14.3281 6.54398 14.6801 6.19198 15.1201 5.93598C15.5681 5.67998 16.0241 5.55998 16.5041 5.56798C16.5761 5.56798 16.6561 5.57597 16.7441 5.59197V5.83998C16.7361 6.62398 16.9441 7.35998 17.3601 8.04798C17.7841 8.73598 18.3761 9.24797 19.1361 9.59998C18.9841 9.92797 18.7681 10.224 18.4961 10.488C17.7601 9.87997 16.8961 9.57597 15.9121 9.57597H15.6641C15.4161 8.52798 14.8881 7.67198 14.0721 7.00798Z"
    fill="#0f172a" />
</svg>
