<svg width="24" height="24" viewBox="0 0 24 24" fill="none" xmlns="http://www.w3.org/2000/svg">
  <path
    d="M3.2561 13.52C3.2561 14.584 3.6321 15.504 4.3761 16.272C5.1201 17.04 6.0321 17.448 7.0961 17.496C7.1921 17.496 7.2401 17.448 7.2401 17.36V16.288C7.2401 16.2 7.1921 16.152 7.0961 16.152C6.76417 16.1369 6.43849 16.0564 6.13781 15.915C5.83713 15.7735 5.56739 15.5741 5.3441 15.328C4.8641 14.816 4.6241 14.216 4.6241 13.52C4.6241 12.856 4.8481 12.28 5.3041 11.784C5.7601 11.288 6.3201 11.008 6.9841 10.928L7.4081 10.896C7.5121 10.896 7.5681 10.848 7.5681 10.76L7.6241 10.328C7.7121 9.46399 8.0801 8.73599 8.7281 8.15199C9.35058 7.57752 10.1691 7.26271 11.0161 7.27199C11.8881 7.27199 12.6481 7.56799 13.3041 8.15199C13.9601 8.73599 14.3281 9.46399 14.4241 10.328L14.4881 10.784C14.4881 10.88 14.5361 10.928 14.6241 10.928H15.9201C16.6321 10.928 17.2561 11.184 17.7761 11.696C18.2961 12.208 18.5601 12.816 18.5601 13.52C18.5601 14.216 18.3201 14.816 17.8401 15.328C17.3601 15.84 16.7761 16.112 16.0881 16.152C15.9761 16.152 15.9201 16.2 15.9201 16.288V17.36C15.9201 17.448 15.9761 17.496 16.0881 17.496C17.1521 17.464 18.0561 17.056 18.7921 16.288C19.5361 15.512 19.9041 14.592 19.9041 13.528C19.9041 12.824 19.7201 12.168 19.3601 11.56C20.0081 10.976 20.4241 10.28 20.6241 9.46399L20.7361 8.88799C20.7441 8.87999 20.7521 8.86399 20.7521 8.83199C20.7521 8.77599 20.7121 8.72799 20.6241 8.70399L20.1761 8.55999C19.7201 8.43199 19.3281 8.20799 19.0081 7.89599C18.6801 7.58399 18.4481 7.25599 18.3121 6.91199C18.1761 6.56799 18.1041 6.22399 18.1041 5.88799C18.0881 5.71199 18.1121 5.48799 18.1681 5.23199L18.2801 4.74399C18.3121 4.66399 18.2801 4.59999 18.1681 4.55199L17.5361 4.35999C17.1761 4.27999 16.8401 4.23999 16.5201 4.23999C16.2161 4.23999 15.9121 4.27199 15.6081 4.34399C15.2961 4.41599 14.9761 4.51999 14.6481 4.67199C14.3201 4.81599 14.0001 5.03199 13.6881 5.31199C13.3761 5.59199 13.1121 5.91199 12.8881 6.28799C12.2321 6.04799 11.6081 5.92799 11.0241 5.92799C9.8961 5.92799 8.8881 6.27999 8.0161 6.98399C7.1441 7.68799 6.5761 8.58399 6.3281 9.67999C5.4401 9.88799 4.7121 10.344 4.1361 11.064C3.5441 11.776 3.2561 12.6 3.2561 13.52ZM7.7041 18.992C7.7041 19.128 7.7441 19.256 7.8321 19.384C7.9201 19.512 8.0481 19.6 8.2241 19.648C8.4081 19.704 8.5841 19.688 8.7361 19.616C8.8961 19.536 9.0001 19.392 9.0561 19.168L10.2001 14.472C10.2481 14.272 10.2241 14.088 10.1361 13.936C10.0922 13.8596 10.0322 13.7936 9.96044 13.7425C9.88865 13.6915 9.80667 13.6565 9.7201 13.64C9.63722 13.6112 9.54897 13.6014 9.46178 13.611C9.37458 13.6207 9.29065 13.6497 9.2161 13.696C9.0561 13.784 8.9441 13.92 8.8881 14.104L7.7361 18.824C7.7361 18.832 7.7281 18.856 7.7201 18.896C7.7121 18.936 7.7041 18.968 7.7041 18.992ZM9.7921 21.448C9.7921 21.576 9.8321 21.696 9.9121 21.816C9.9921 21.936 10.1121 22.016 10.2721 22.064C10.3601 22.088 10.4241 22.096 10.4641 22.096C10.8161 22.096 11.0321 21.936 11.1201 21.624L12.9201 14.48C12.9681 14.288 12.9521 14.112 12.8641 13.96C12.7756 13.8086 12.6325 13.6969 12.4641 13.648C12.2801 13.592 12.1041 13.608 11.9361 13.704C11.7681 13.8 11.6641 13.928 11.6241 14.104L9.8161 21.24C9.8161 21.248 9.8161 21.28 9.8081 21.336C9.7921 21.384 9.7921 21.424 9.7921 21.448ZM13.1201 19.056C13.1201 19.344 13.2881 19.536 13.6241 19.648C13.7361 19.68 13.8161 19.696 13.8641 19.696C13.9521 19.696 14.0481 19.68 14.1441 19.64C14.3121 19.576 14.4161 19.416 14.4561 19.176L15.6001 14.48C15.6481 14.288 15.6321 14.12 15.5361 13.96C15.4463 13.8065 15.2997 13.6945 15.1281 13.648C15.0412 13.6192 14.9491 13.6093 14.8581 13.619C14.767 13.6286 14.6791 13.6576 14.6001 13.704C14.4321 13.792 14.3361 13.928 14.2961 14.112L13.1521 18.832C13.1361 18.96 13.1201 19.04 13.1201 19.056ZM14.0641 7.01599C14.3201 6.55199 14.6641 6.19999 15.1121 5.95199C15.5521 5.71199 16.0241 5.59199 16.5201 5.59999C16.6161 5.59999 16.6881 5.59999 16.7361 5.60799V5.84799C16.7281 6.62399 16.9281 7.35199 17.3521 8.04799C17.7681 8.73599 18.3601 9.26399 19.1201 9.62399C18.9441 9.99199 18.7281 10.272 18.4881 10.48C17.7521 9.87199 16.8961 9.57599 15.9041 9.57599H15.6561C15.4401 8.55999 14.9121 7.71199 14.0641 7.01599Z"
    fill="#0f172a" />
</svg>
