<svg width="24" height="24" viewBox="0 0 24 24" fill="none" xmlns="http://www.w3.org/2000/svg">
  <path
    d="M3.27197 13.704V13.408C3.30397 12.512 3.60797 11.72 4.17597 11.032C4.74397 10.344 5.46397 9.89601 6.31997 9.69601C6.56797 8.60801 7.13597 7.71201 8.00797 7.00801C8.87997 6.30401 9.88797 5.96001 11.016 5.96001C11.608 5.96001 12.24 6.08001 12.92 6.32801C13.144 5.96001 13.408 5.64001 13.712 5.36801C14.016 5.09601 14.328 4.88801 14.656 4.73601C14.984 4.59201 15.296 4.48001 15.608 4.41601C15.912 4.35201 16.216 4.32001 16.512 4.32001C16.824 4.32001 17.152 4.35201 17.504 4.42401L18.144 4.62401C18.24 4.67201 18.28 4.72801 18.256 4.80801L18.16 5.30401C18.104 5.53601 18.08 5.76001 18.08 5.97601C18.08 6.22401 18.12 6.47201 18.2 6.73601C18.28 6.99201 18.392 7.24801 18.552 7.49601C18.712 7.74401 18.92 7.96801 19.192 8.17601C19.464 8.38401 19.768 8.53601 20.12 8.64001L20.616 8.77601C20.696 8.80001 20.736 8.84001 20.736 8.90401C20.736 8.93601 20.736 8.95201 20.728 8.96001L20.576 9.50401C20.3865 10.3056 19.9666 11.0342 19.368 11.6C19.72 12.208 19.896 12.864 19.896 13.56C19.896 14.632 19.528 15.552 18.784 16.32C18.04 17.096 17.136 17.496 16.072 17.528C15.976 17.528 15.92 17.48 15.92 17.376V16.288C15.92 16.192 15.968 16.144 16.072 16.144C16.768 16.096 17.352 15.816 17.832 15.32C18.312 14.824 18.552 14.232 18.552 13.552C18.552 12.84 18.296 12.224 17.776 11.72C17.256 11.216 16.64 10.96 15.912 10.96H14.616C14.528 10.96 14.48 10.912 14.48 10.816L14.424 10.352C14.336 9.49601 13.96 8.76801 13.304 8.18401C12.648 7.60001 11.888 7.30401 11.016 7.30401C10.144 7.30401 9.37597 7.60001 8.73597 8.18401C8.08797 8.76801 7.71997 9.49601 7.63997 10.36L7.58397 10.776C7.58397 10.864 7.52797 10.912 7.42397 10.912L6.99997 10.968C6.32797 11.048 5.76797 11.336 5.31997 11.824C4.86397 12.32 4.63997 12.896 4.63997 13.56V13.576L4.64797 13.584H4.66397C4.66397 14 4.75997 14.4 4.95197 14.768C5.14397 15.136 5.39997 15.44 5.72797 15.68H5.73597L5.74397 15.688L5.75197 15.696C5.92797 15.824 6.08797 15.912 6.24797 15.976C6.51997 16.096 6.79997 16.16 7.10397 16.168C7.19197 16.168 7.23997 16.216 7.23997 16.304V17.376C7.23997 17.472 7.19197 17.52 7.10397 17.52C6.35997 17.488 5.67997 17.264 5.06397 16.864H5.05597C4.52797 16.52 4.10397 16.072 3.78397 15.512C3.46397 14.952 3.29597 14.352 3.27197 13.704ZM7.67197 19.28C7.67197 19.256 7.67997 19.224 7.68797 19.176C7.69597 19.128 7.70397 19.104 7.70397 19.08L7.77597 18.608C7.83197 18.416 7.93597 18.28 8.10397 18.184C8.27197 18.088 8.44797 18.072 8.64797 18.12C8.83197 18.176 8.95997 18.288 9.05597 18.448C9.14397 18.616 9.15997 18.784 9.11197 18.952L8.99997 19.432C8.91997 19.776 8.71997 19.952 8.39197 19.952C8.36797 19.952 8.32797 19.952 8.27197 19.944C8.21597 19.936 8.18397 19.936 8.16797 19.936C8.01592 19.8986 7.88412 19.8041 7.79997 19.672C7.71738 19.5579 7.67261 19.4208 7.67197 19.28ZM8.26397 16.928C8.26397 16.736 8.32797 16.584 8.44797 16.456C8.56797 16.328 8.72797 16.272 8.91997 16.272C9.11197 16.272 9.26397 16.336 9.39197 16.456C9.51997 16.576 9.57597 16.736 9.57597 16.928C9.57597 17.112 9.51197 17.272 9.39197 17.392C9.27197 17.512 9.11197 17.576 8.91997 17.576C8.73597 17.576 8.58397 17.512 8.46397 17.376C8.40095 17.3196 8.35056 17.2506 8.31609 17.1734C8.28162 17.0962 8.26386 17.0126 8.26397 16.928ZM9.57597 21.728C9.57597 21.696 9.58397 21.64 9.60797 21.552L9.71197 21.08C9.76797 20.896 9.87997 20.76 10.04 20.672C10.208 20.576 10.376 20.56 10.544 20.616C10.728 20.648 10.872 20.752 10.968 20.912C11.064 21.072 11.088 21.256 11.032 21.456L10.928 21.928C10.848 22.256 10.632 22.416 10.288 22.416C10.232 22.416 10.16 22.408 10.096 22.392C9.93738 22.355 9.79789 22.2611 9.70397 22.128C9.62397 21.992 9.57597 21.864 9.57597 21.728ZM10.208 19.4C10.205 19.3134 10.22 19.2272 10.252 19.1467C10.2841 19.0662 10.3324 18.9932 10.394 18.9323C10.4557 18.8714 10.5292 18.824 10.6101 18.793C10.691 18.7619 10.7774 18.748 10.864 18.752C11.056 18.752 11.208 18.816 11.336 18.936C11.464 19.064 11.52 19.216 11.52 19.4C11.52 19.592 11.456 19.744 11.336 19.872C11.208 20 11.056 20.056 10.864 20.056C10.68 20.056 10.528 19.992 10.4 19.864C10.3378 19.804 10.2886 19.7319 10.2556 19.652C10.2225 19.5722 10.2063 19.4864 10.208 19.4ZM10.704 17.584C10.704 17.512 10.712 17.44 10.728 17.368L10.912 16.648C10.968 16.464 11.08 16.32 11.24 16.224C11.408 16.128 11.576 16.104 11.752 16.16C11.944 16.216 12.08 16.32 12.176 16.48C12.272 16.64 12.288 16.808 12.232 16.984L12.024 17.704C11.96 17.928 11.848 18.072 11.696 18.152C11.544 18.232 11.368 18.248 11.184 18.2C11.1104 18.1878 11.0402 18.1601 10.9781 18.1188C10.9161 18.0774 10.8635 18.0233 10.824 17.96C10.739 17.8537 10.6963 17.7198 10.704 17.584ZM12.912 19.296C12.912 19.272 12.912 19.232 12.92 19.192C12.928 19.152 12.928 19.12 12.928 19.104L13 18.632C13.056 18.44 13.16 18.304 13.328 18.208C13.496 18.112 13.672 18.096 13.872 18.144C14.056 18.2 14.192 18.312 14.28 18.472C14.376 18.64 14.392 18.808 14.336 18.976L14.224 19.456C14.144 19.808 13.944 19.984 13.616 19.984C13.592 19.984 13.552 19.976 13.504 19.968C13.456 19.96 13.416 19.952 13.392 19.952C13.232 19.904 13.112 19.816 13.032 19.688C12.952 19.56 12.912 19.432 12.912 19.296ZM13.504 16.944C13.504 16.752 13.568 16.6 13.688 16.472C13.808 16.344 13.968 16.288 14.16 16.288C14.352 16.288 14.504 16.352 14.632 16.472C14.76 16.6 14.816 16.752 14.816 16.944C14.8189 17.0306 14.8039 17.1168 14.7719 17.1973C14.7399 17.2778 14.6915 17.3508 14.6299 17.4117C14.5683 17.4726 14.4947 17.52 14.4138 17.5511C14.3329 17.5821 14.2465 17.596 14.16 17.592C13.968 17.592 13.816 17.528 13.696 17.4C13.6348 17.341 13.5862 17.2701 13.5532 17.1917C13.5202 17.1133 13.5034 17.0291 13.504 16.944ZM14.072 7.05601C14.904 7.73601 15.432 8.57601 15.656 9.58401H15.92C16.904 9.58401 17.76 9.89601 18.496 10.528C18.768 10.28 18.968 10.008 19.104 9.69601C18.608 9.45601 18.184 9.13601 17.816 8.72801C17.456 8.32001 17.184 7.88001 17 7.40001C16.816 6.92001 16.728 6.42401 16.728 5.91201V5.67201H16.552C16.056 5.67201 15.584 5.79201 15.136 6.03201C14.688 6.27201 14.336 6.61601 14.072 7.05601Z"
    fill="#0f172a" />
</svg>
