<svg width="24" height="24" viewBox="0 0 24 24" fill="none" xmlns="http://www.w3.org/2000/svg">
  <path
    d="M3.2561 13.544C3.2561 14.608 3.6321 15.52 4.3761 16.288C5.1201 17.056 6.0321 17.464 7.0961 17.496C7.1921 17.496 7.2401 17.448 7.2401 17.36V16.288C7.2401 16.2 7.1921 16.152 7.0961 16.152C6.4161 16.12 5.8321 15.84 5.3521 15.328C4.8641 14.816 4.6241 14.216 4.6241 13.536C4.6241 12.856 4.8481 12.272 5.3041 11.776C5.7601 11.28 6.3201 11.008 6.9841 10.952L7.4081 10.896C7.5121 10.896 7.5681 10.848 7.5681 10.76L7.6241 10.344C7.7121 9.47198 8.0721 8.73598 8.7201 8.14398C9.3681 7.55198 10.1281 7.25598 11.0081 7.25598C11.8801 7.25598 12.6401 7.55198 13.2961 8.13598C13.9521 8.71998 14.3201 9.44798 14.4161 10.312L14.4801 10.768C14.4801 10.864 14.5281 10.912 14.6161 10.912H15.9121C16.6401 10.912 17.2561 11.168 17.7761 11.688C18.2961 12.2 18.5521 12.816 18.5521 13.536C18.5521 14.216 18.3121 14.816 17.8241 15.328C17.3361 15.84 16.7601 16.112 16.0801 16.152C15.9681 16.152 15.9121 16.2 15.9121 16.288V17.36C15.9121 17.448 15.9681 17.496 16.0801 17.496C16.7623 17.4847 17.4287 17.2884 18.0081 16.928C18.5921 16.568 19.0561 16.088 19.3921 15.488C19.7281 14.888 19.8961 14.24 19.8961 13.544C19.8961 12.816 19.7201 12.152 19.3761 11.56C19.9681 11.032 20.3681 10.344 20.5921 9.49598L20.7281 8.91998C20.7361 8.91198 20.7441 8.88798 20.7441 8.85598C20.7441 8.79998 20.7041 8.75198 20.6161 8.72798L20.1281 8.59198C19.7761 8.48798 19.4641 8.33598 19.1921 8.13598C18.9201 7.93598 18.7041 7.71198 18.5441 7.46398C18.3841 7.21598 18.2721 6.96798 18.1921 6.70398C18.1121 6.44798 18.0721 6.19198 18.0721 5.94398C18.0721 5.72798 18.0961 5.49598 18.1521 5.25598L18.2401 4.75998C18.2561 4.68798 18.2241 4.62398 18.1281 4.58398L17.4881 4.39198C17.1361 4.30398 16.8081 4.26398 16.4881 4.26398C16.1921 4.26398 15.8961 4.29598 15.5921 4.36798C15.2881 4.43998 14.9761 4.54398 14.6481 4.69598C14.3201 4.84798 14.0081 5.05598 13.7041 5.33598C13.4001 5.61598 13.1361 5.93598 12.9121 6.31198C12.2641 6.04798 11.6321 5.91198 11.0081 5.91198C9.8801 5.91198 8.8721 6.26398 8.0001 6.96798C7.1281 7.67198 6.5601 8.56798 6.3121 9.66398C5.4161 9.88798 4.6801 10.36 4.1121 11.072C3.5441 11.792 3.2561 12.616 3.2561 13.544ZM8.3681 16.816C8.3681 17.008 8.4321 17.168 8.5601 17.296C8.6881 17.432 8.8401 17.496 9.0321 17.496C9.2241 17.496 9.3841 17.432 9.5121 17.296C9.6401 17.16 9.7041 17 9.7041 16.816C9.7041 16.64 9.6401 16.48 9.5121 16.352C9.3841 16.224 9.2241 16.16 9.0321 16.16C8.8481 16.16 8.6881 16.224 8.5601 16.352C8.4321 16.48 8.3681 16.632 8.3681 16.816ZM8.3681 19.728C8.3681 19.912 8.4321 20.064 8.5601 20.192C8.6881 20.32 8.8481 20.384 9.0241 20.384C9.2161 20.384 9.3761 20.32 9.5041 20.2C9.6321 20.072 9.6961 19.92 9.6961 19.728C9.6961 19.536 9.6321 19.384 9.5041 19.256C9.44099 19.194 9.36581 19.1457 9.28323 19.1141C9.20066 19.0824 9.11245 19.0681 9.0241 19.072C8.8321 19.072 8.6801 19.136 8.5521 19.256C8.4321 19.376 8.3681 19.536 8.3681 19.728ZM10.9281 18.368C10.9281 18.56 10.9921 18.72 11.1201 18.84C11.2481 18.968 11.4081 19.032 11.5841 19.032C11.7761 19.032 11.9361 18.968 12.0721 18.84C12.2081 18.712 12.2721 18.552 12.2721 18.368C12.2721 18.176 12.2081 18.016 12.0721 17.88C11.9361 17.744 11.7761 17.672 11.5841 17.672C11.4081 17.672 11.2561 17.744 11.1201 17.88C10.9841 18.016 10.9281 18.176 10.9281 18.368ZM10.9281 15.456C10.9281 15.648 10.9921 15.8 11.1201 15.92C11.2481 16.048 11.4081 16.112 11.5841 16.112C11.7761 16.112 11.9441 16.048 12.0721 15.928C12.2001 15.808 12.2721 15.648 12.2721 15.456C12.2721 15.272 12.2081 15.112 12.0721 14.976C11.9361 14.84 11.7761 14.776 11.5841 14.776C11.4081 14.776 11.2481 14.84 11.1201 14.976C10.9921 15.112 10.9281 15.272 10.9281 15.456ZM10.9281 21.304C10.9281 21.48 10.9921 21.632 11.1201 21.76C11.2561 21.896 11.4081 21.96 11.5841 21.96C11.7761 21.96 11.9361 21.896 12.0721 21.768C12.2081 21.64 12.2721 21.488 12.2721 21.296C12.2721 21.104 12.2081 20.944 12.0721 20.808C12.0094 20.7417 11.9337 20.689 11.8497 20.6533C11.7658 20.6175 11.6754 20.5993 11.5841 20.6C11.4081 20.6 11.2561 20.672 11.1201 20.808C11.0001 20.952 10.9281 21.12 10.9281 21.304ZM13.5201 16.816C13.5201 17.008 13.5841 17.168 13.7201 17.296C13.8561 17.424 14.0081 17.496 14.2001 17.496C14.3921 17.496 14.5441 17.432 14.6721 17.296C14.8001 17.16 14.8641 17 14.8641 16.816C14.8641 16.64 14.8001 16.48 14.6721 16.352C14.5441 16.224 14.3921 16.16 14.2001 16.16C14.0081 16.16 13.8561 16.224 13.7201 16.352C13.5841 16.48 13.5201 16.632 13.5201 16.816ZM13.5201 19.728C13.5201 19.912 13.5841 20.064 13.7121 20.192C13.8401 20.32 14.0001 20.384 14.1921 20.384C14.3841 20.384 14.5361 20.32 14.6641 20.192C14.7921 20.064 14.8481 19.912 14.8481 19.72C14.8481 19.528 14.7841 19.376 14.6641 19.248C14.5361 19.12 14.3841 19.064 14.1921 19.064C14.0001 19.064 13.8401 19.128 13.7121 19.248C13.5841 19.376 13.5201 19.536 13.5201 19.728ZM14.0641 7.01598C14.3121 6.58398 14.6641 6.24798 15.1041 6.00798C15.5441 5.76798 16.0001 5.64798 16.4721 5.63998C16.5921 5.63998 16.6801 5.64798 16.7361 5.65598V5.90398C16.7361 6.67998 16.9441 7.40798 17.3601 8.09598C17.7761 8.78398 18.3601 9.30398 19.0961 9.66398C18.9681 9.95198 18.7681 10.24 18.4881 10.52C17.7761 9.88798 16.9201 9.57598 15.9041 9.57598H15.6561C15.4401 8.59198 14.9121 7.74398 14.0641 7.01598Z"
    fill="#0f172a" />
</svg>
