<svg width="24" height="24" viewBox="0 0 24 24" fill="none" xmlns="http://www.w3.org/2000/svg">
  <path
    d="M3.2561 13.528C3.2561 14.592 3.6241 15.512 4.3681 16.272C5.1121 17.032 6.0161 17.448 7.0881 17.496C7.1761 17.496 7.2241 17.448 7.2241 17.36V16.264C7.2241 16.168 7.1761 16.12 7.0881 16.12C6.3921 16.064 5.8081 15.792 5.3361 15.288C4.8641 14.792 4.6241 14.2 4.6241 13.52C4.6241 12.856 4.8481 12.288 5.2961 11.792C5.7441 11.296 6.3041 11.016 6.9761 10.936L7.4001 10.88C7.5041 10.88 7.5601 10.832 7.5601 10.744L7.6161 10.328C7.7041 9.46403 8.0641 8.73603 8.7121 8.16003C9.3601 7.57603 10.1201 7.28803 10.9921 7.28803C11.8641 7.28803 12.6241 7.57603 13.2721 8.16003C13.9201 8.73603 14.2961 9.46403 14.3841 10.336L14.4481 10.8C14.4481 10.896 14.4961 10.944 14.5921 10.944H15.8801C16.6001 10.944 17.2161 11.2 17.7361 11.704C18.2481 12.208 18.5121 12.816 18.5121 13.528C18.5121 14.208 18.2721 14.8 17.8001 15.296C17.3281 15.792 16.7361 16.072 16.0481 16.128C15.9441 16.128 15.8881 16.176 15.8881 16.272V17.368C15.8881 17.456 15.9441 17.504 16.0481 17.504C17.1121 17.472 18.0161 17.064 18.7521 16.296C19.4881 15.528 19.8561 14.608 19.8561 13.536C19.8561 12.84 19.6801 12.192 19.3361 11.592C19.9841 11.008 20.4081 10.312 20.6001 9.49603V9.39203L20.7521 8.76003L20.1441 8.59203C19.4961 8.40003 18.9921 8.03203 18.6321 7.51203C18.2721 6.98403 18.0961 6.44003 18.0961 5.88803C18.0961 5.68003 18.1201 5.47203 18.1601 5.26403L18.3201 4.62403L17.6401 4.42403L17.5201 4.39203C17.191 4.32351 16.8562 4.28602 16.5201 4.28003C16.2161 4.28003 15.9121 4.31203 15.6081 4.38403C15.2961 4.45603 14.9761 4.56003 14.6481 4.71203C14.3121 4.86403 13.9921 5.07203 13.6881 5.35203C13.3841 5.63203 13.1121 5.96003 12.8881 6.33603C12.2961 6.07203 11.6641 5.94403 11.0001 5.94403C9.8721 5.94403 8.8721 6.29603 8.0001 6.99203C7.1281 7.68803 6.5841 8.58403 6.3441 9.68003C5.4481 9.88803 4.7041 10.344 4.1281 11.056C3.5441 11.784 3.2561 12.608 3.2561 13.528ZM7.5761 18.944C7.5761 19.064 7.6161 19.184 7.6961 19.304C7.7761 19.424 7.8961 19.512 8.0561 19.568C8.2321 19.624 8.4001 19.616 8.5681 19.528C8.7361 19.44 8.8401 19.304 8.8961 19.12L9.1201 18.272C9.1761 18.104 9.1601 17.944 9.0641 17.776C8.97644 17.6174 8.82989 17.4996 8.6561 17.448C8.4721 17.4 8.2961 17.424 8.1361 17.512C7.9761 17.6 7.8641 17.752 7.8001 17.936L7.6161 18.728C7.5921 18.856 7.5761 18.928 7.5761 18.944ZM8.6161 15.16C8.6161 15.248 8.6401 15.344 8.6961 15.448C8.7521 15.584 8.8961 15.688 9.1201 15.752C9.3121 15.8 9.4881 15.784 9.6481 15.704C9.8001 15.624 9.9121 15.48 9.9681 15.288L10.1921 14.464C10.2481 14.28 10.2321 14.104 10.1361 13.952C10.0922 13.8756 10.0335 13.8086 9.96345 13.755C9.8934 13.7015 9.8134 13.6624 9.7281 13.64C9.54889 13.589 9.35691 13.6091 9.1921 13.696C9.113 13.7396 9.04375 13.7991 8.98869 13.8706C8.93362 13.9422 8.89393 14.0244 8.8721 14.112L8.6561 14.92C8.6321 15.024 8.6161 15.104 8.6161 15.16ZM9.6161 21.44C9.6161 21.576 9.6561 21.704 9.7361 21.832C9.8161 21.96 9.9361 22.048 10.0961 22.096C10.1841 22.12 10.2401 22.136 10.2801 22.136C10.3521 22.136 10.4481 22.112 10.5841 22.056C10.7441 21.992 10.8561 21.84 10.9281 21.616L11.1681 20.776C11.2241 20.608 11.2081 20.44 11.1121 20.272C11.0679 20.1923 11.0083 20.1221 10.9367 20.0656C10.8651 20.0091 10.7831 19.9673 10.6953 19.9428C10.6075 19.9182 10.5156 19.9113 10.4251 19.9225C10.3346 19.9337 10.2473 19.9628 10.1681 20.008C10.0081 20.104 9.8961 20.24 9.8401 20.432L9.6401 21.24C9.6241 21.304 9.6161 21.376 9.6161 21.44ZM10.6801 17.624C10.6861 17.766 10.7363 17.9025 10.8239 18.0144C10.9114 18.1263 11.0318 18.208 11.1681 18.248C11.3441 18.304 11.5201 18.288 11.6801 18.2C11.8401 18.112 11.9441 17.976 12.0001 17.784L12.2161 16.952C12.2721 16.784 12.2561 16.616 12.1681 16.456C12.1276 16.3782 12.0722 16.3091 12.0049 16.2529C11.9376 16.1966 11.8599 16.1541 11.7761 16.128C11.5841 16.08 11.4001 16.104 11.2321 16.192C11.0641 16.28 10.9521 16.432 10.8961 16.616L10.7041 17.416L10.6801 17.624ZM12.9281 19.032C12.9281 19.336 13.0961 19.528 13.4401 19.632C13.5121 19.648 13.5761 19.656 13.6321 19.656C13.7521 19.656 13.8481 19.64 13.9281 19.6C14.0961 19.536 14.2161 19.384 14.2801 19.144L14.4961 18.328C14.5441 18.128 14.5281 17.952 14.4321 17.792C14.3361 17.632 14.2001 17.536 14.0081 17.496C13.8241 17.44 13.6481 17.456 13.4961 17.552C13.3441 17.648 13.2321 17.784 13.1761 17.96L12.9601 18.792C12.9601 18.808 12.9521 18.848 12.9441 18.912C12.9281 18.968 12.9281 19.008 12.9281 19.032ZM14.0401 15.184C14.0426 15.3269 14.0915 15.4652 14.1796 15.5778C14.2677 15.6903 14.39 15.7712 14.5281 15.808C14.6401 15.832 14.7041 15.848 14.7121 15.848C14.7841 15.848 14.8801 15.824 15.0161 15.768C15.1841 15.704 15.2961 15.552 15.3681 15.328L15.5921 14.496C15.6401 14.32 15.6161 14.152 15.5281 13.992C15.4401 13.832 15.2881 13.728 15.1041 13.672C14.9281 13.616 14.7601 13.632 14.6001 13.728C14.4401 13.824 14.3361 13.96 14.2801 14.144L14.0721 14.992C14.0481 15.064 14.0401 15.136 14.0401 15.184ZM14.0641 7.04803C14.3201 6.60003 14.6721 6.24803 15.1281 6.00003C15.571 5.75377 16.0693 5.62437 16.5761 5.62403H16.7441C16.7361 5.69603 16.7361 5.79203 16.7361 5.92803C16.7361 6.68803 16.9441 7.40803 17.3601 8.09603C17.7761 8.78403 18.3601 9.30403 19.0961 9.66403C18.9201 10.008 18.7121 10.304 18.4721 10.544C17.7281 9.89603 16.8561 9.57603 15.8721 9.57603H15.6161C15.4161 8.62403 14.9041 7.78403 14.0641 7.04803Z"
    fill="#0f172a" />
</svg>
