<svg width="24" height="24" viewBox="0 0 24 24" fill="none" xmlns="http://www.w3.org/2000/svg">
  <path
    d="M3.27197 13.512C3.27197 14.4 3.53597 15.192 4.06397 15.888C4.59197 16.584 5.27997 17.064 6.12797 17.32L5.60797 18.68C5.57597 18.792 5.60797 18.848 5.71997 18.848H7.41597L6.38397 22.192H6.60797L9.99197 17.696C10.024 17.664 10.024 17.624 10.008 17.584C9.98397 17.544 9.95197 17.528 9.89597 17.528H8.15197L10.128 13.816C10.184 13.704 10.152 13.64 10.024 13.64H7.65597C7.58397 13.64 7.52797 13.68 7.47997 13.76L6.62397 16.064C6.05597 15.92 5.58397 15.608 5.19997 15.128C4.81597 14.648 4.63197 14.112 4.63197 13.52C4.63197 12.856 4.85597 12.28 5.31197 11.784C5.76797 11.296 6.32797 11.008 6.99197 10.928L7.41597 10.872C7.51997 10.872 7.57597 10.824 7.57597 10.728L7.63197 10.32C7.71997 9.45601 8.07997 8.72801 8.72797 8.14401C9.37597 7.56001 10.136 7.26401 11.008 7.26401C11.88 7.26401 12.64 7.56001 13.296 8.14401C13.952 8.72801 14.32 9.45601 14.416 10.312L14.472 10.768C14.472 10.864 14.52 10.92 14.608 10.92H15.904C16.632 10.92 17.248 11.176 17.768 11.68C18.288 12.184 18.544 12.8 18.544 13.504C18.544 14.184 18.304 14.776 17.824 15.272C17.344 15.768 16.76 16.048 16.064 16.096C15.968 16.096 15.912 16.144 15.912 16.248V17.336C15.912 17.432 15.96 17.48 16.064 17.48C17.128 17.448 18.032 17.04 18.776 16.272C19.52 15.496 19.888 14.576 19.888 13.512C19.888 12.816 19.712 12.168 19.36 11.552C19.968 10.96 20.376 10.264 20.568 9.45601L20.72 8.91201C20.728 8.90401 20.728 8.88801 20.728 8.85601C20.728 8.79201 20.688 8.75201 20.608 8.72801L20.112 8.59201C19.656 8.45601 19.264 8.23201 18.944 7.92001C18.624 7.60801 18.4 7.28001 18.264 6.94401C18.128 6.60801 18.064 6.27201 18.072 5.93601C18.072 5.71201 18.096 5.48801 18.152 5.25601L18.24 4.76801C18.256 4.68801 18.224 4.62401 18.128 4.58401L17.488 4.39201C17.112 4.32001 16.784 4.28001 16.496 4.28001C16.2 4.27201 15.896 4.30401 15.592 4.37601C15.288 4.44001 14.968 4.55201 14.64 4.69601C14.312 4.84001 14 5.05601 13.696 5.32801C13.392 5.60001 13.128 5.92001 12.904 6.28801C12.24 6.04001 11.608 5.92001 11.016 5.92001C9.88797 5.92001 8.87997 6.27201 8.00797 6.97601C7.13597 7.68001 6.56797 8.57601 6.31997 9.66401C5.43197 9.87201 4.70397 10.336 4.12797 11.056C3.55997 11.768 3.27197 12.592 3.27197 13.512ZM9.57597 21.68C9.57597 21.816 9.61597 21.944 9.70397 22.072C9.79197 22.2 9.91997 22.288 10.096 22.336C10.168 22.352 10.232 22.36 10.288 22.36C10.632 22.36 10.848 22.2 10.928 21.872L11.032 21.4C11.0814 21.2172 11.0585 21.0224 10.968 20.856C10.9233 20.7786 10.8622 20.712 10.7889 20.6608C10.7156 20.6097 10.632 20.5753 10.544 20.56C10.461 20.5317 10.3728 20.522 10.2857 20.5317C10.1986 20.5413 10.1147 20.5701 10.04 20.616C9.87197 20.712 9.76797 20.848 9.71197 21.024L9.60797 21.496C9.58397 21.592 9.57597 21.656 9.57597 21.68ZM10.208 19.36C10.208 19.544 10.272 19.696 10.4 19.824C10.528 19.952 10.688 20.016 10.864 20.016C11.056 20.016 11.208 19.952 11.336 19.832C11.464 19.704 11.52 19.552 11.52 19.36C11.5229 19.2734 11.5079 19.1872 11.4759 19.1067C11.4439 19.0262 11.3955 18.9532 11.3339 18.8923C11.2723 18.8314 11.1987 18.784 11.1178 18.753C11.0369 18.7219 10.9505 18.708 10.864 18.712C10.672 18.712 10.52 18.776 10.392 18.896C10.3318 18.9571 10.2845 19.0296 10.2529 19.1093C10.2213 19.189 10.206 19.2743 10.208 19.36ZM10.704 17.544C10.696 17.664 10.728 17.792 10.816 17.92C10.896 18.048 11.016 18.128 11.176 18.16C11.36 18.208 11.528 18.192 11.688 18.112C11.848 18.032 11.952 17.88 12.016 17.664L12.224 16.944C12.28 16.768 12.264 16.6 12.168 16.44C12.1218 16.3614 12.0606 16.2927 11.9878 16.2378C11.9151 16.1829 11.8322 16.1429 11.744 16.12C11.568 16.064 11.4 16.088 11.232 16.184C11.064 16.28 10.96 16.424 10.904 16.608L10.72 17.328C10.712 17.392 10.704 17.464 10.704 17.544ZM12.912 19.264C12.912 19.4 12.952 19.528 13.032 19.648C13.112 19.768 13.232 19.856 13.4 19.904C13.424 19.904 13.464 19.912 13.512 19.92C13.56 19.928 13.6 19.936 13.624 19.936C13.952 19.936 14.152 19.76 14.232 19.408L14.344 18.928C14.4 18.76 14.384 18.592 14.288 18.424C14.2003 18.2654 14.0538 18.1475 13.88 18.096C13.68 18.048 13.496 18.064 13.336 18.16C13.176 18.256 13.064 18.392 13.008 18.584L12.936 19.056C12.936 19.064 12.936 19.096 12.928 19.144C12.92 19.2 12.912 19.232 12.912 19.264ZM13.504 16.896C13.504 17.08 13.568 17.232 13.696 17.352C13.816 17.48 13.968 17.544 14.16 17.544C14.352 17.544 14.504 17.48 14.632 17.36C14.76 17.232 14.816 17.08 14.816 16.896C14.816 16.704 14.752 16.552 14.632 16.424C14.5704 16.3622 14.4966 16.3139 14.4154 16.2822C14.3341 16.2506 14.2471 16.2362 14.16 16.24C13.968 16.24 13.816 16.304 13.688 16.424C13.56 16.544 13.504 16.704 13.504 16.896ZM14.072 7.01601C14.336 6.56801 14.696 6.22401 15.144 5.98401C15.592 5.74401 16.064 5.62401 16.552 5.62401H16.728V5.88001C16.728 6.39201 16.816 6.88801 17 7.36801C17.184 7.84801 17.448 8.28801 17.816 8.69601C18.176 9.10401 18.608 9.42401 19.104 9.66401C18.968 9.96801 18.768 10.24 18.496 10.488C17.768 9.86401 16.912 9.55201 15.92 9.55201H15.656C15.424 8.54401 14.896 7.69601 14.072 7.01601Z"
    fill="#0f172a" />
</svg>
