<svg width="24" height="24" viewBox="0 0 24 24" fill="none" xmlns="http://www.w3.org/2000/svg">
  <path
    d="M3.27197 13.512C3.27197 14.4 3.53597 15.192 4.06397 15.888C4.59197 16.584 5.27997 17.064 6.12797 17.32L5.60797 18.68C5.57597 18.792 5.60797 18.848 5.71997 18.848H7.41597L6.38397 22.192H6.60797L9.99197 17.696C10.024 17.664 10.024 17.624 10.008 17.584C9.98397 17.544 9.95197 17.528 9.89597 17.528H8.15197L10.128 13.816C10.184 13.704 10.152 13.64 10.024 13.64H7.65597C7.58397 13.64 7.52797 13.68 7.47997 13.76L6.62397 16.064C6.05597 15.92 5.58397 15.608 5.19997 15.128C4.81597 14.648 4.63197 14.112 4.63197 13.52C4.63197 12.856 4.85597 12.28 5.31197 11.784C5.76797 11.296 6.32797 11.008 6.99197 10.928L7.41597 10.872C7.51997 10.872 7.57597 10.824 7.57597 10.728L7.63197 10.32C7.71997 9.45601 8.07997 8.72801 8.72797 8.14401C9.37597 7.56001 10.136 7.26401 11.008 7.26401C11.88 7.26401 12.64 7.56001 13.296 8.14401C13.952 8.72801 14.32 9.45601 14.416 10.312L14.472 10.768C14.472 10.864 14.52 10.92 14.608 10.92H15.904C16.632 10.92 17.248 11.176 17.768 11.68C18.288 12.184 18.544 12.8 18.544 13.504C18.544 14.184 18.304 14.776 17.824 15.272C17.344 15.768 16.76 16.048 16.064 16.096C15.968 16.096 15.912 16.144 15.912 16.248V17.336C15.912 17.432 15.96 17.48 16.064 17.48C17.128 17.448 18.032 17.04 18.776 16.272C19.52 15.496 19.888 14.576 19.888 13.512C19.888 12.816 19.712 12.168 19.36 11.552C19.968 10.96 20.376 10.264 20.568 9.45601L20.72 8.91201C20.728 8.90401 20.728 8.88801 20.728 8.85601C20.728 8.79201 20.688 8.75201 20.608 8.72801L20.112 8.59201C19.656 8.45601 19.264 8.23201 18.944 7.92001C18.624 7.60801 18.4 7.28001 18.264 6.94401C18.128 6.60801 18.064 6.27201 18.072 5.93601C18.072 5.71201 18.096 5.48801 18.152 5.25601L18.24 4.76801C18.256 4.68801 18.224 4.62401 18.128 4.58401L17.488 4.39201C17.112 4.32001 16.784 4.28001 16.496 4.28001C16.2 4.27201 15.896 4.30401 15.592 4.37601C15.288 4.44001 14.968 4.55201 14.64 4.69601C14.312 4.84001 14 5.05601 13.696 5.32801C13.392 5.60001 13.128 5.92001 12.904 6.28801C12.24 6.04001 11.608 5.92001 11.016 5.92001C9.88797 5.92001 8.87997 6.27201 8.00797 6.97601C7.13597 7.68001 6.56797 8.57601 6.31997 9.66401C5.43197 9.87201 4.70397 10.336 4.12797 11.056C3.55997 11.768 3.27197 12.592 3.27197 13.512ZM10.944 18.368C10.944 18.56 11.008 18.72 11.136 18.84C11.264 18.968 11.424 19.032 11.6 19.032C11.792 19.032 11.952 18.968 12.088 18.84C12.224 18.712 12.288 18.552 12.288 18.368C12.288 18.176 12.224 18.016 12.088 17.88C11.952 17.744 11.792 17.672 11.6 17.672C11.424 17.672 11.272 17.744 11.136 17.88C11 18.016 10.944 18.176 10.944 18.368ZM10.944 15.456C10.944 15.648 11.008 15.8 11.136 15.92C11.264 16.048 11.424 16.112 11.6 16.112C11.792 16.112 11.96 16.048 12.088 15.928C12.216 15.808 12.288 15.648 12.288 15.456C12.288 15.272 12.224 15.112 12.088 14.976C11.952 14.84 11.792 14.776 11.6 14.776C11.416 14.776 11.264 14.84 11.136 14.976C11.008 15.112 10.944 15.272 10.944 15.456ZM10.944 21.304C10.944 21.48 11.008 21.632 11.136 21.76C11.272 21.896 11.424 21.96 11.6 21.96C11.792 21.96 11.952 21.896 12.088 21.768C12.224 21.64 12.288 21.488 12.288 21.296C12.288 21.104 12.224 20.944 12.088 20.808C12.0252 20.7417 11.9495 20.6891 11.8656 20.6533C11.7816 20.6175 11.6912 20.5994 11.6 20.6C11.424 20.6 11.272 20.672 11.136 20.808C11.008 20.952 10.944 21.12 10.944 21.304ZM13.528 16.816C13.528 17.008 13.592 17.168 13.728 17.296C13.864 17.424 14.016 17.496 14.208 17.496C14.392 17.496 14.552 17.432 14.68 17.296C14.808 17.16 14.872 17 14.872 16.816C14.872 16.64 14.808 16.48 14.68 16.352C14.6189 16.289 14.5454 16.2395 14.4642 16.2064C14.3829 16.1733 14.2957 16.1575 14.208 16.16C14.024 16.16 13.864 16.224 13.728 16.352C13.592 16.48 13.528 16.632 13.528 16.816ZM13.528 19.728C13.528 19.912 13.592 20.064 13.72 20.192C13.848 20.32 14.008 20.384 14.2 20.384C14.392 20.384 14.544 20.32 14.672 20.192C14.8 20.064 14.856 19.912 14.856 19.72C14.856 19.528 14.792 19.376 14.672 19.248C14.6104 19.1862 14.5366 19.1379 14.4554 19.1062C14.3741 19.0746 14.2871 19.0602 14.2 19.064C14.008 19.064 13.848 19.128 13.72 19.248C13.592 19.376 13.528 19.536 13.528 19.728ZM14.072 7.01601C14.336 6.56801 14.696 6.22401 15.144 5.98401C15.592 5.74401 16.064 5.62401 16.552 5.62401H16.728V5.88001C16.728 6.39201 16.816 6.88801 17 7.36801C17.184 7.84801 17.448 8.28801 17.816 8.69601C18.176 9.10401 18.608 9.42401 19.104 9.66401C18.968 9.96801 18.768 10.24 18.496 10.488C17.768 9.86401 16.912 9.55201 15.92 9.55201H15.656C15.424 8.54401 14.896 7.69601 14.072 7.01601Z"
    fill="#0f172a" />
</svg>
