<svg width="32" height="32" viewBox="0 0 32 32" fill="none" xmlns="http://www.w3.org/2000/svg">
<rect width="32" height="32" rx="16" fill="#191919"/>
<path d="M7.22134 20.9173C7.22134 21.952 7.59467 22.848 8.352 23.6053C9.10934 24.3627 10.0053 24.736 11.04 24.736H18.3467C19.3813 24.736 20.2667 24.3627 21.0027 23.616C21.7387 22.8693 22.112 21.9733 22.112 20.9173C22.112 20.4053 22.0373 19.968 21.888 19.6053C22.7733 19.04 23.4773 18.2827 23.9893 17.344C24.5013 16.4053 24.768 15.392 24.768 14.3147C24.768 13.4507 24.5973 12.6187 24.2667 11.8293C23.9253 11.04 23.4773 10.3573 22.9013 9.79201C22.3253 9.22667 21.6533 8.76801 20.864 8.42667C20.0747 8.08534 19.2533 7.91467 18.3893 7.91467C17.2267 7.91467 16.1493 8.20267 15.168 8.77867C14.1867 9.35467 13.408 10.1333 12.8427 11.104C12.2773 12.0853 12 13.152 12 14.3147V14.6773C10.9227 15.2853 10.2187 16.1813 9.87734 17.3333C9.06667 17.5893 8.42667 18.0373 7.94667 18.688C7.46762 19.3318 7.21283 20.1149 7.22134 20.9173V20.9173ZM9.33334 20.9173C9.33334 20.4693 9.472 20.0853 9.76 19.7653C10.048 19.4453 10.4107 19.264 10.848 19.2213L11.52 19.136C11.648 19.136 11.7227 19.0507 11.7227 18.8907L11.8293 18.2933C11.904 17.6747 12.16 17.1627 12.608 16.7573C13.056 16.3413 13.5787 16.1387 14.1867 16.1387C14.8053 16.1387 15.3493 16.3413 15.7973 16.7573C16.256 17.1733 16.5227 17.6853 16.5973 18.2933L16.6827 18.9867C16.7467 19.1467 16.8427 19.232 16.9493 19.232H18.3467C18.8053 19.232 19.2 19.4027 19.5413 19.7333C19.8827 20.064 20.0427 20.4587 20.0427 20.928C20.0427 21.408 19.872 21.8133 19.5413 22.1547C19.2107 22.496 18.8053 22.6667 18.3467 22.6667H11.04C10.56 22.6667 10.1547 22.496 9.824 22.1547C9.49334 21.8133 9.33334 21.3973 9.33334 20.9173V20.9173ZM14.0587 14.1013C14.1333 12.9387 14.5813 11.9573 15.4133 11.1573C16.2453 10.368 17.2373 9.96267 18.4 9.96267C19.584 9.96267 20.5973 10.3893 21.4293 11.232C22.2613 12.0747 22.6773 13.1093 22.6773 14.3147C22.6773 15.0613 22.496 15.7547 22.1333 16.3947C21.7707 17.0347 21.28 17.5467 20.6613 17.9413C20.032 17.4187 19.3067 17.1627 18.496 17.1627C18.1867 16.224 17.632 15.488 16.8533 14.9333C16.0747 14.3787 15.1893 14.1013 14.1973 14.1013H14.0587V14.1013Z" fill="#FAFAFA"/>
</svg>
