<svg width="24" height="24" viewBox="0 0 24 24" fill="none" xmlns="http://www.w3.org/2000/svg">
  <path
    d="M3.496 11.696C3.496 11.504 3.56 11.336 3.696 11.2C3.832 11.072 4 11.008 4.176 11.008H5.808C5.992 11.008 6.144 11.072 6.272 11.208C6.392 11.344 6.456 11.504 6.456 11.696C6.456 11.888 6.4 12.048 6.28 12.184C6.16 12.32 6 12.384 5.816 12.384H4.184C4 12.384 3.84 12.32 3.704 12.184C3.63773 12.1213 3.58507 12.0456 3.54929 11.9616C3.5135 11.8777 3.49537 11.7873 3.496 11.696V11.696ZM5.784 17.24C5.784 17.056 5.848 16.896 5.968 16.752L7.144 15.608C7.264 15.48 7.424 15.424 7.616 15.424C7.808 15.424 7.968 15.488 8.096 15.608C8.224 15.728 8.288 15.88 8.288 16.064C8.288 16.256 8.224 16.432 8.096 16.576L6.96 17.712C6.632 17.968 6.304 17.968 5.976 17.712C5.91365 17.6505 5.86447 17.5769 5.83147 17.4958C5.79846 17.4146 5.78231 17.3276 5.784 17.24V17.24ZM5.784 6.16801C5.784 5.98401 5.848 5.82401 5.968 5.68001C6.128 5.54401 6.296 5.48001 6.48 5.48001C6.656 5.48001 6.816 5.54401 6.952 5.67201L8.096 6.84801C8.224 6.96801 8.288 7.12801 8.288 7.32001C8.288 7.51201 8.224 7.67201 8.096 7.80001C7.968 7.92801 7.808 7.99201 7.616 7.99201C7.424 7.99201 7.264 7.92801 7.144 7.80001L5.976 6.65601C5.91281 6.59177 5.86323 6.51544 5.83024 6.43159C5.79725 6.34774 5.78152 6.25809 5.784 6.16801V6.16801ZM7.824 11.696C7.824 10.952 8.008 10.256 8.384 9.61601C8.76 8.97601 9.264 8.46401 9.912 8.08801C10.56 7.71201 11.248 7.52801 11.992 7.52801C12.552 7.52801 13.088 7.64001 13.608 7.86401C14.12 8.08801 14.568 8.38401 14.936 8.76001C15.312 9.13601 15.608 9.57601 15.824 10.088C16.04 10.6 16.152 11.144 16.152 11.704C16.152 12.456 15.968 13.152 15.592 13.792C15.216 14.432 14.712 14.936 14.072 15.312C13.432 15.688 12.736 15.872 11.984 15.872C11.232 15.872 10.536 15.688 9.896 15.312C9.256 14.936 8.752 14.432 8.376 13.792C8.016 13.144 7.824 12.448 7.824 11.696V11.696ZM9.184 11.696C9.184 12.48 9.456 13.144 10.008 13.696C10.552 14.248 11.216 14.528 12 14.528C12.784 14.528 13.448 14.248 14 13.696C14.552 13.144 14.832 12.48 14.832 11.696C14.832 10.928 14.552 10.272 14 9.72001C13.448 9.17601 12.784 8.90401 12 8.90401C11.224 8.90401 10.56 9.17601 10.016 9.72001C9.456 10.272 9.184 10.928 9.184 11.696ZM11.312 17.92C11.312 17.728 11.376 17.568 11.512 17.44C11.648 17.312 11.808 17.248 11.992 17.248C12.184 17.248 12.352 17.312 12.48 17.44C12.608 17.568 12.672 17.728 12.672 17.92V19.512C12.672 19.704 12.608 19.872 12.472 20.008C12.336 20.144 12.176 20.208 11.992 20.208C11.808 20.208 11.64 20.144 11.512 20.008C11.4467 19.9433 11.3953 19.8659 11.3609 19.7806C11.3265 19.6953 11.3099 19.6039 11.312 19.512V17.92ZM11.312 5.52001V3.88801C11.312 3.70401 11.376 3.54401 11.512 3.40801C11.648 3.27201 11.808 3.20001 12 3.20001C12.192 3.20001 12.344 3.26401 12.48 3.40001C12.616 3.53601 12.68 3.69601 12.68 3.88001V5.52001C12.68 5.70401 12.616 5.85601 12.48 5.98401C12.344 6.11201 12.184 6.16801 12 6.16801C11.816 6.16801 11.648 6.10401 11.52 5.98401C11.392 5.86401 11.312 5.70401 11.312 5.52001V5.52001ZM15.728 16.064C15.728 15.88 15.792 15.728 15.912 15.616C16.032 15.488 16.184 15.432 16.36 15.432C16.552 15.432 16.712 15.496 16.84 15.616L18.008 16.76C18.136 16.896 18.2 17.064 18.2 17.248C18.2 17.432 18.136 17.592 18.008 17.72C17.688 17.968 17.368 17.968 17.048 17.72L15.912 16.584C15.7893 16.4389 15.7239 16.254 15.728 16.064ZM15.728 7.32801C15.728 7.12801 15.792 6.96801 15.912 6.85601L17.048 5.68001C17.174 5.55653 17.3436 5.48757 17.52 5.48801C17.712 5.48801 17.872 5.55201 18 5.68801C18.136 5.82401 18.2 5.98401 18.2 6.16801C18.2 6.36801 18.136 6.53601 18.008 6.66401L16.84 7.80801C16.696 7.93601 16.536 8.00001 16.36 8.00001C16.176 8.00001 16.032 7.93601 15.912 7.80801C15.792 7.68001 15.728 7.52001 15.728 7.32801V7.32801ZM17.536 11.696C17.536 11.504 17.6 11.344 17.728 11.2C17.856 11.072 18.008 11.008 18.184 11.008H19.8C19.984 11.008 20.144 11.08 20.28 11.216C20.416 11.352 20.488 11.512 20.488 11.696C20.488 11.88 20.416 12.04 20.28 12.176C20.144 12.312 19.984 12.376 19.8 12.376H18.184C18 12.376 17.84 12.312 17.72 12.176C17.6 12.04 17.536 11.888 17.536 11.696Z"
    fill="#0f172a" />
</svg>
