<svg width="24" height="24" viewBox="0 0 24 24" fill="none" xmlns="http://www.w3.org/2000/svg">
  <path
    d="M1.248 13.52C1.248 14.24 1.424 14.904 1.776 15.512C2.128 16.12 2.608 16.6 3.216 16.952C3.824 17.304 4.48 17.48 5.192 17.48H13.856C14.568 17.48 15.232 17.304 15.84 16.952C16.448 16.6 16.936 16.12 17.288 15.512C17.64 14.904 17.824 14.24 17.824 13.52C17.824 12.992 17.712 12.456 17.488 11.92C18.096 11.184 18.4 10.296 18.4 9.28003C18.4 8.71203 18.288 8.16803 18.072 7.64803C17.856 7.12803 17.552 6.68803 17.176 6.31203C16.8 5.93603 16.36 5.63203 15.84 5.41603C15.32 5.19203 14.776 5.08803 14.208 5.08803C13.024 5.08803 11.992 5.55203 11.104 6.48003C10.488 6.12803 9.768 5.95203 8.944 5.95203C7.816 5.95203 6.824 6.30403 5.96 7.00003C5.10936 7.67161 4.52065 8.61977 4.296 9.68003C3.4 9.88803 2.672 10.344 2.104 11.064C1.536 11.784 1.248 12.6 1.248 13.52V13.52ZM2.616 13.52C2.616 12.848 2.84 12.272 3.288 11.784C3.736 11.296 4.296 11.016 4.968 10.936L5.368 10.912C5.464 10.912 5.52 10.864 5.52 10.768L5.576 10.336C5.688 9.47203 6.064 8.74403 6.704 8.16803C7.344 7.58403 8.096 7.29603 8.952 7.29603C9.832 7.29603 10.6 7.59203 11.248 8.17603C11.8848 8.726 12.2787 9.50515 12.344 10.344L12.4 10.808C12.416 10.896 12.472 10.944 12.568 10.944H13.856C14.56 10.944 15.168 11.2 15.68 11.712C16.192 12.224 16.448 12.824 16.448 13.528C16.448 14.256 16.192 14.872 15.688 15.384C15.184 15.896 14.568 16.152 13.864 16.152H5.192C4.488 16.152 3.888 15.896 3.376 15.376C2.872 14.856 2.616 14.24 2.616 13.52V13.52ZM7.976 3.70403C7.976 3.89603 8.04 4.06403 8.168 4.20803L8.696 4.72003C8.896 4.87203 9.064 4.93603 9.208 4.92003C9.376 4.92003 9.52 4.84803 9.648 4.71203C9.776 4.57603 9.84 4.40803 9.84 4.21603C9.84 4.02403 9.768 3.86403 9.632 3.74403L9.16 3.21603C9.02777 3.09213 8.8532 3.02345 8.672 3.02403C8.48 3.02403 8.312 3.08803 8.176 3.22403C8.04 3.35203 7.976 3.51203 7.976 3.70403V3.70403ZM12.248 7.24803C12.8 6.71203 13.456 6.44803 14.208 6.44803C15 6.44803 15.672 6.72003 16.224 7.27203C16.776 7.82403 17.056 8.48803 17.056 9.28003C17.056 9.77603 16.92 10.272 16.648 10.752C15.872 9.98403 14.944 9.60003 13.856 9.60003H13.6C13.4 8.72803 12.952 7.94403 12.248 7.24803ZM13.552 3.02403C13.552 3.23203 13.616 3.39203 13.736 3.52003C13.856 3.64803 14.016 3.70403 14.208 3.70403C14.416 3.70403 14.576 3.64003 14.704 3.52003C14.832 3.39203 14.888 3.23203 14.888 3.02403V1.38403C14.888 1.19203 14.824 1.04003 14.696 0.912027C14.568 0.784027 14.408 0.728027 14.208 0.728027C14.016 0.728027 13.864 0.792027 13.736 0.912027C13.608 1.03203 13.552 1.19203 13.552 1.38403V3.02403V3.02403ZM17.968 4.85603C17.968 5.06403 18.024 5.22403 18.144 5.35203C18.312 5.48003 18.48 5.54403 18.64 5.54403C18.784 5.54403 18.944 5.48003 19.112 5.35203L20.256 4.20803C20.384 4.06403 20.448 3.89603 20.448 3.69603C20.448 3.50403 20.384 3.34403 20.256 3.21603C20.1945 3.15368 20.1209 3.1045 20.0397 3.07149C19.9586 3.03848 19.8716 3.02233 19.784 3.02403C19.592 3.02403 19.44 3.08803 19.32 3.21603L18.144 4.36003C18.024 4.51203 17.968 4.67203 17.968 4.85603V4.85603ZM18.6 14.328C18.6 14.52 18.664 14.688 18.8 14.832L19.32 15.336C19.44 15.464 19.592 15.528 19.784 15.528C19.976 15.528 20.136 15.464 20.264 15.328C20.3273 15.2622 20.3769 15.1845 20.4099 15.0993C20.4428 15.0142 20.4585 14.9233 20.456 14.832C20.456 14.656 20.392 14.496 20.264 14.368L19.744 13.848C19.6851 13.7866 19.6143 13.7379 19.5359 13.7048C19.4574 13.6718 19.3731 13.6552 19.288 13.656C19.096 13.656 18.936 13.72 18.808 13.848C18.672 13.976 18.6 14.136 18.6 14.328V14.328ZM19.776 9.28003C19.776 9.46403 19.848 9.61603 19.984 9.74403C20.112 9.87203 20.28 9.93603 20.472 9.93603H22.104C22.288 9.93603 22.44 9.87203 22.568 9.75203C22.696 9.63203 22.752 9.47203 22.752 9.28003C22.752 9.08803 22.688 8.92803 22.568 8.80003C22.448 8.67203 22.288 8.60003 22.104 8.60003H20.472C20.28 8.60003 20.12 8.66403 19.984 8.80003C19.9171 8.86055 19.8639 8.9347 19.828 9.0175C19.7921 9.10029 19.7744 9.18981 19.776 9.28003V9.28003Z"
    fill="#0f172a" />
</svg>
