<svg width="24" height="24" viewBox="0 0 24 24" fill="none" xmlns="http://www.w3.org/2000/svg">
  <path
    d="M3.688 13.504C3.688 12.584 3.976 11.768 4.552 11.048C5.128 10.328 5.856 9.86399 6.744 9.66399C6.992 8.56799 7.56 7.67199 8.432 6.96799C9.304 6.26399 10.312 5.91199 11.44 5.91199C12.544 5.91199 13.528 6.25599 14.392 6.93599C15.256 7.61599 15.816 8.49599 16.072 9.56799H16.336C17.056 9.56799 17.72 9.74399 18.328 10.088C18.936 10.432 19.424 10.912 19.776 11.52C20.128 12.128 20.312 12.784 20.312 13.504C20.3171 14.1854 20.146 14.8566 19.8152 15.4523C19.4844 16.048 19.0051 16.5481 18.424 16.904C17.84 17.264 17.192 17.456 16.496 17.48H7.528C6.456 17.432 5.552 17.024 4.808 16.256C4.064 15.496 3.688 14.576 3.688 13.504V13.504ZM5.056 13.504C5.056 14.2 5.296 14.8 5.776 15.312C6.256 15.824 6.84 16.096 7.528 16.136H16.48C17.168 16.104 17.752 15.824 18.232 15.312C18.72 14.8 18.96 14.192 18.96 13.504C18.96 12.8 18.696 12.2 18.176 11.688C17.656 11.176 17.04 10.92 16.32 10.92H15.04C14.952 10.92 14.904 10.872 14.904 10.776L14.848 10.32C14.76 9.45599 14.384 8.72799 13.728 8.14399C13.072 7.55999 12.312 7.26399 11.44 7.26399C10.568 7.26399 9.8 7.55999 9.16 8.14399C8.512 8.72799 8.144 9.45599 8.064 10.32L8 10.776C8 10.872 7.944 10.92 7.84 10.92H7.416C6.744 11 6.184 11.288 5.736 11.776C5.288 12.264 5.056 12.84 5.056 13.504V13.504Z"
    fill="#0f172a" />
</svg>
