<svg width="24" height="24" viewBox="0 0 24 24" fill="none" xmlns="http://www.w3.org/2000/svg">
  <path
    d="M2.09601 16.84C2.09601 16.648 2.16001 16.48 2.29601 16.352C2.43201 16.224 2.60001 16.16 2.80001 16.16H17.736C17.8262 16.1567 17.9161 16.1721 18 16.2051C18.084 16.2381 18.1603 16.2881 18.2241 16.3519C18.2879 16.4157 18.3378 16.492 18.3709 16.576C18.4039 16.6599 18.4193 16.7498 18.416 16.84C18.416 17.024 18.352 17.184 18.216 17.304C18.08 17.432 17.92 17.488 17.736 17.488H2.80001C2.60001 17.488 2.43201 17.424 2.29601 17.304C2.23128 17.2456 2.1799 17.1739 2.14538 17.0938C2.11087 17.0137 2.09403 16.9271 2.09601 16.84V16.84ZM4.19201 14.328C4.19201 14.136 4.26401 13.976 4.40001 13.848C4.52001 13.728 4.68001 13.664 4.87201 13.664H19.808C19.992 13.664 20.144 13.728 20.272 13.856C20.4 13.984 20.456 14.136 20.456 14.328C20.456 14.52 20.392 14.68 20.272 14.808C20.144 14.944 19.992 15.008 19.808 15.008H4.87201C4.68001 15.008 4.52001 14.944 4.39201 14.808C4.32757 14.7459 4.27656 14.6713 4.24216 14.5887C4.20775 14.5062 4.19068 14.4174 4.19201 14.328V14.328ZM4.29601 12.416C4.29601 12.488 4.33601 12.52 4.41601 12.52H5.56001C5.60801 12.52 5.66401 12.48 5.72001 12.392C5.91201 11.976 6.19201 11.64 6.56801 11.376C6.94401 11.112 7.36001 10.96 7.80801 10.928L8.24801 10.872C8.33601 10.872 8.38401 10.824 8.38401 10.728L8.44001 10.328C8.52801 9.46397 8.88801 8.74397 9.53601 8.16797C10.184 7.59197 10.944 7.30397 11.816 7.30397C12.68 7.30397 13.432 7.59197 14.08 8.15997C14.72 8.72797 15.088 9.44797 15.176 10.304L15.24 10.76C15.24 10.848 15.296 10.896 15.4 10.896H16.672C17.184 10.896 17.656 11.032 18.08 11.312C18.504 11.592 18.816 11.952 19.024 12.408C19.08 12.496 19.136 12.536 19.192 12.536H20.336C20.432 12.536 20.472 12.48 20.448 12.352C20.216 11.536 19.744 10.864 19.056 10.344C18.36 9.82397 17.568 9.56797 16.68 9.56797H16.424C16.16 8.50397 15.6 7.63197 14.744 6.95197C13.888 6.27197 12.92 5.93597 11.824 5.93597C10.704 5.93597 9.71201 6.28797 8.84001 6.99197C7.96801 7.69597 7.41601 8.59197 7.16801 9.67997C6.48801 9.83997 5.88801 10.16 5.37601 10.648C4.86401 11.136 4.50401 11.712 4.30401 12.392V12.36C4.29601 12.36 4.29601 12.384 4.29601 12.416V12.416ZM5.58401 19.288C5.58401 19.096 5.65601 18.944 5.79201 18.816C5.91201 18.696 6.07201 18.632 6.27201 18.632H21.216C21.408 18.632 21.568 18.696 21.696 18.816C21.832 18.944 21.896 19.096 21.896 19.28C21.896 19.472 21.832 19.632 21.696 19.768C21.56 19.904 21.4 19.968 21.216 19.968H6.27201C6.08801 19.968 5.92801 19.896 5.79201 19.76C5.72541 19.7009 5.67235 19.6282 5.63645 19.5467C5.60055 19.4652 5.58267 19.377 5.58401 19.288V19.288Z"
    fill="#0f172a" />
</svg>
