<svg width="24" height="24" viewBox="0 0 24 24" fill="none" xmlns="http://www.w3.org/2000/svg">
  <path
    d="M1.26401 13.512C1.26401 14.208 1.43201 14.856 1.77601 15.448C2.11201 16.048 2.57601 16.528 3.16001 16.888C3.74401 17.248 4.38401 17.44 5.08001 17.472C5.17601 17.472 5.22401 17.424 5.22401 17.336V16.272C5.22401 16.176 5.17601 16.12 5.08001 16.12C4.40001 16.088 3.81601 15.816 3.33601 15.304C2.85601 14.792 2.61601 14.2 2.61601 13.504C2.61601 12.848 2.84001 12.272 3.28801 11.784C3.73601 11.296 4.29601 11.016 4.96001 10.936L5.37601 10.912C5.47201 10.912 5.52801 10.864 5.52801 10.768L5.59201 10.336C5.68001 9.47201 6.04001 8.75201 6.68001 8.16801C7.32001 7.58401 8.08001 7.29601 8.96001 7.29601C9.81601 7.29601 10.576 7.58401 11.232 8.16801C11.8678 8.71831 12.2686 9.49129 12.352 10.328L12.408 10.792C12.408 10.88 12.456 10.928 12.544 10.928H13.84C14.544 10.928 15.16 11.184 15.672 11.696C16.192 12.208 16.448 12.808 16.448 13.504C16.448 14.192 16.208 14.792 15.728 15.304C15.248 15.808 14.664 16.08 13.984 16.12C13.888 16.12 13.84 16.168 13.84 16.272V17.336C13.84 17.424 13.888 17.472 13.984 17.472C14.68 17.456 15.32 17.264 15.904 16.896C16.488 16.528 16.952 16.056 17.288 15.456C17.624 14.856 17.792 14.208 17.792 13.512C17.792 12.92 17.68 12.392 17.464 11.912C18.088 11.152 18.392 10.272 18.392 9.27201C18.392 8.52001 18.208 7.81601 17.832 7.17601C17.456 6.53601 16.952 6.02401 16.312 5.65601C15.672 5.28001 14.976 5.09601 14.224 5.09601C12.984 5.09601 11.952 5.56001 11.128 6.48001C10.472 6.12801 9.75201 5.95201 8.97601 5.95201C7.84801 5.95201 6.85601 6.30401 5.98401 7.00001C5.11201 7.69601 4.56001 8.59201 4.31201 9.67201C3.43201 9.88001 2.70401 10.344 2.13601 11.056C1.54401 11.784 1.26401 12.6 1.26401 13.512V13.512ZM5.98401 14.216C5.98401 14.52 6.09601 14.784 6.32001 15C6.54401 15.216 6.81601 15.32 7.12801 15.32C7.44801 15.32 7.71201 15.216 7.92801 15C8.14401 14.784 8.24801 14.528 8.24801 14.216C8.24801 14.024 8.15201 13.752 7.96801 13.416C7.78401 13.072 7.60801 12.808 7.44801 12.624C7.28001 12.448 7.16801 12.328 7.12801 12.288L6.84001 12.608C6.62401 12.84 6.42401 13.112 6.24801 13.432C6.07201 13.752 5.98401 14.016 5.98401 14.216ZM7.97601 3.72801C7.97601 3.93601 8.04001 4.09601 8.16801 4.21601L8.68801 4.74401C9.02401 4.99201 9.34401 4.99201 9.65601 4.74401C9.77938 4.60192 9.84753 4.42019 9.84801 4.23201C9.84801 4.04801 9.78401 3.88801 9.65601 3.76001L9.14401 3.24001C9.01294 3.11334 8.83828 3.04176 8.65601 3.04001C8.46401 3.04001 8.29601 3.10401 8.16801 3.24001C8.04001 3.37601 7.97601 3.53601 7.97601 3.72801V3.72801ZM8.36001 17.384C8.36001 17.912 8.54401 18.352 8.90401 18.704C9.26401 19.056 9.70401 19.24 10.224 19.24C10.744 19.24 11.184 19.056 11.552 18.696C11.92 18.328 12.096 17.896 12.096 17.384C12.096 16.952 11.88 16.432 11.448 15.808C11.08 15.32 10.736 14.928 10.424 14.616C10.36 14.568 10.288 14.512 10.216 14.432L10.032 14.616C9.74401 14.872 9.40801 15.272 9.01601 15.792C8.58401 16.4 8.36001 16.928 8.36001 17.384ZM9.54401 12.088C9.54401 12.288 9.62401 12.464 9.77601 12.608C9.92801 12.752 10.112 12.824 10.328 12.824C10.536 12.824 10.712 12.752 10.856 12.608C11 12.464 11.072 12.288 11.072 12.088C11.072 11.76 10.824 11.328 10.328 10.808L10.136 11.008C9.99201 11.168 9.85601 11.352 9.73601 11.568C9.60001 11.784 9.54401 11.952 9.54401 12.088V12.088ZM12.24 7.24801C12.768 6.72001 13.424 6.45601 14.216 6.45601C15 6.45601 15.656 6.72801 16.208 7.28001C16.752 7.83201 17.032 8.49601 17.032 9.28001C17.032 9.75201 16.896 10.24 16.616 10.752C15.84 9.98401 14.912 9.60001 13.84 9.60001H13.576C13.3618 8.70556 12.8986 7.89009 12.24 7.24801V7.24801ZM13.52 3.04001C13.52 3.23201 13.592 3.39201 13.728 3.52801C13.864 3.66401 14.024 3.72801 14.208 3.72801C14.392 3.72801 14.552 3.66401 14.672 3.52801C14.8 3.39201 14.856 3.23201 14.856 3.04001V1.40801C14.856 1.21601 14.792 1.06401 14.672 0.936014C14.552 0.808014 14.4 0.752014 14.216 0.752014C14.032 0.752014 13.864 0.816014 13.728 0.936014C13.592 1.05601 13.52 1.21601 13.52 1.40801V3.04001V3.04001ZM17.936 4.88801C17.936 5.08001 18 5.24001 18.136 5.36001C18.272 5.48801 18.424 5.55201 18.584 5.55201C18.72 5.55201 18.888 5.48801 19.072 5.36001L20.216 4.21601C20.36 4.07201 20.432 3.90401 20.432 3.72001C20.432 3.52801 20.368 3.36001 20.232 3.23201C20.1673 3.16941 20.0909 3.12022 20.0072 3.08727C19.9234 3.05431 19.834 3.03826 19.744 3.04001C19.568 3.04001 19.416 3.10401 19.28 3.24001L18.136 4.38401C18 4.52001 17.936 4.68801 17.936 4.88801V4.88801ZM18.576 14.312C18.576 14.512 18.64 14.68 18.76 14.824L19.28 15.288C19.392 15.432 19.552 15.504 19.752 15.504C19.944 15.504 20.104 15.432 20.216 15.288C20.36 15.16 20.432 15 20.432 14.824C20.432 14.648 20.36 14.496 20.216 14.36L19.728 13.84C19.5958 13.7161 19.4212 13.6474 19.24 13.648C19.048 13.648 18.888 13.712 18.76 13.84C18.632 13.968 18.576 14.128 18.576 14.312V14.312ZM19.736 9.28001C19.736 9.45601 19.8 9.61601 19.936 9.74401C20.072 9.87201 20.24 9.93601 20.44 9.93601H22.056C22.248 9.93601 22.408 9.87201 22.536 9.74401C22.672 9.61601 22.736 9.46401 22.736 9.27201C22.736 9.08001 22.672 8.92001 22.536 8.79201C22.4 8.66401 22.24 8.59201 22.056 8.59201H20.44C20.248 8.59201 20.088 8.65601 19.944 8.79201C19.8 8.92801 19.736 9.09601 19.736 9.28001V9.28001Z"
    fill="#0f172a" />
</svg>
