<svg width="24" height="24" viewBox="0 0 24 24" fill="none" xmlns="http://www.w3.org/2000/svg">
  <path
    d="M1.26401 13.544C1.26401 14.232 1.43201 14.88 1.77601 15.472C2.11201 16.064 2.57601 16.544 3.16801 16.904C3.75201 17.264 4.40001 17.456 5.08801 17.472C5.17601 17.472 5.22401 17.424 5.22401 17.336V16.272C5.22401 16.176 5.17601 16.12 5.08801 16.12C4.40801 16.088 3.82401 15.816 3.34401 15.304C2.86401 14.792 2.62401 14.208 2.62401 13.536C2.62401 12.88 2.84801 12.304 3.30401 11.808C3.76001 11.32 4.31201 11.032 4.98401 10.952L5.40801 10.904C5.50401 10.904 5.55201 10.856 5.55201 10.752L5.61601 10.344C5.70401 9.47201 6.06401 8.74401 6.70401 8.16001C7.34401 7.57601 8.10401 7.28801 8.98401 7.28801C9.85601 7.28801 10.616 7.57601 11.264 8.16001C11.92 8.74401 12.288 9.46401 12.368 10.32L12.424 10.784C12.424 10.872 12.472 10.92 12.56 10.92H13.848C14.568 10.92 15.184 11.176 15.696 11.688C16.208 12.2 16.464 12.808 16.464 13.52C16.464 14.192 16.224 14.776 15.744 15.288C15.264 15.792 14.68 16.064 14.008 16.104C13.912 16.104 13.856 16.152 13.856 16.256V17.32C13.856 17.408 13.904 17.456 14.008 17.456C15.072 17.424 15.968 17.024 16.712 16.256C17.456 15.488 17.824 14.584 17.824 13.528C17.824 12.92 17.712 12.384 17.48 11.904C18.08 11.16 18.4 10.28 18.4 9.28001C18.4 8.52801 18.216 7.83201 17.84 7.19201C17.464 6.55201 16.952 6.04001 16.312 5.66401C15.672 5.28801 14.968 5.10401 14.216 5.10401C12.984 5.10401 11.952 5.56801 11.12 6.48801C10.472 6.13601 9.75201 5.96001 8.96801 5.96001C7.84001 5.96001 6.84801 6.31201 5.97601 7.00801C5.10401 7.70401 4.55201 8.60001 4.30401 9.68001C3.40801 9.90401 2.68001 10.368 2.11201 11.08C1.54401 11.8 1.26401 12.616 1.26401 13.544V13.544ZM6.33601 16.784C6.33601 16.976 6.40001 17.136 6.52801 17.272C6.65601 17.408 6.80801 17.472 7.00001 17.472C7.18401 17.472 7.34401 17.408 7.47201 17.272C7.60001 17.136 7.66401 16.976 7.66401 16.784C7.66401 16.6 7.60001 16.448 7.47201 16.32C7.34401 16.192 7.19201 16.128 7.00001 16.128C6.81601 16.128 6.65601 16.192 6.52801 16.32C6.40001 16.448 6.33601 16.608 6.33601 16.784ZM6.33601 19.688C6.33601 19.856 6.40001 20.008 6.52801 20.144C6.67201 20.272 6.82401 20.336 6.99201 20.336C7.18401 20.336 7.33601 20.272 7.46401 20.152C7.59201 20.024 7.64801 19.872 7.64801 19.688C7.64801 19.496 7.58401 19.344 7.45601 19.216C7.39445 19.1542 7.32068 19.1059 7.23941 19.0742C7.15814 19.0426 7.07115 19.0282 6.98401 19.032C6.80869 19.0294 6.63931 19.0955 6.51201 19.216C6.40001 19.336 6.33601 19.496 6.33601 19.688V19.688ZM7.97601 3.74401C7.97601 3.93601 8.04001 4.09601 8.16801 4.21601L8.69601 4.74401C8.82401 4.87201 8.96801 4.94401 9.12001 4.94401C9.28801 4.96801 9.44801 4.91201 9.60801 4.76801C9.76801 4.62401 9.84801 4.45601 9.84801 4.26401C9.84801 4.07201 9.78401 3.89601 9.65601 3.75201L9.14401 3.26401C9.08658 3.19806 9.01507 3.14585 8.93476 3.11124C8.85445 3.07662 8.76739 3.06048 8.68001 3.06401C8.48001 3.06401 8.31201 3.12801 8.17601 3.26401C8.04001 3.39201 7.97601 3.55201 7.97601 3.74401V3.74401ZM8.88001 18.32C8.88001 18.496 8.94401 18.656 9.07201 18.8C9.20001 18.928 9.36001 18.992 9.53601 18.992C9.72801 18.992 9.88801 18.928 10.016 18.8C10.144 18.672 10.216 18.512 10.216 18.32C10.216 18.136 10.152 17.976 10.016 17.84C9.88001 17.704 9.72001 17.64 9.53601 17.64C9.35201 17.64 9.20001 17.704 9.07201 17.84C8.94401 17.976 8.88001 18.136 8.88001 18.32ZM8.88001 15.44C8.88001 15.624 8.94401 15.776 9.07201 15.904C9.20001 16.032 9.36001 16.096 9.53601 16.096C9.72801 16.096 9.88801 16.032 10.016 15.904C10.152 15.776 10.216 15.624 10.216 15.432C10.216 15.248 10.152 15.088 10.016 14.96C9.88001 14.832 9.72001 14.768 9.53601 14.768C9.35201 14.768 9.20001 14.832 9.07201 14.96C8.94401 15.088 8.88001 15.256 8.88001 15.44ZM8.88001 21.248C8.88001 21.424 8.94401 21.576 9.07201 21.704C9.20801 21.84 9.36001 21.904 9.53601 21.904C9.72801 21.904 9.88801 21.84 10.016 21.72C10.152 21.592 10.216 21.44 10.216 21.248C10.216 21.056 10.152 20.896 10.016 20.768C9.95397 20.7036 9.87935 20.6526 9.79678 20.6182C9.71421 20.5838 9.62545 20.5667 9.53601 20.568C9.36001 20.568 9.20801 20.632 9.07201 20.768C8.94401 20.904 8.88001 21.064 8.88001 21.248ZM11.456 16.784C11.456 16.976 11.52 17.136 11.648 17.272C11.776 17.408 11.936 17.472 12.12 17.472C12.304 17.472 12.464 17.408 12.592 17.272C12.72 17.136 12.784 16.976 12.784 16.784C12.784 16.6 12.72 16.448 12.592 16.32C12.464 16.192 12.312 16.128 12.12 16.128C11.928 16.128 11.776 16.192 11.648 16.32C11.52 16.448 11.456 16.608 11.456 16.784ZM11.456 19.688C11.456 19.856 11.52 20.008 11.64 20.144C11.784 20.272 11.944 20.336 12.12 20.336C12.312 20.336 12.464 20.272 12.592 20.152C12.72 20.024 12.776 19.872 12.776 19.688C12.776 19.496 12.712 19.344 12.584 19.216C12.5225 19.1542 12.4487 19.1059 12.3674 19.0742C12.2861 19.0426 12.1992 19.0282 12.112 19.032C11.92 19.032 11.76 19.096 11.632 19.224C11.52 19.344 11.456 19.504 11.456 19.688V19.688ZM12.24 7.24801C12.792 6.72001 13.448 6.45601 14.216 6.45601C14.992 6.45601 15.656 6.73601 16.2 7.28801C16.752 7.84001 17.024 8.51201 17.024 9.28001C17.024 9.77601 16.888 10.272 16.616 10.752C15.856 9.98401 14.928 9.60001 13.84 9.60001H13.584C13.344 8.66401 12.896 7.88001 12.24 7.24801V7.24801ZM13.52 3.07201C13.52 3.25601 13.584 3.41601 13.72 3.53601C13.856 3.65601 14.016 3.72001 14.208 3.72001C14.4 3.72001 14.552 3.65601 14.68 3.53601C14.808 3.40801 14.864 3.25601 14.864 3.07201V1.44001C14.864 1.24801 14.8 1.08801 14.672 0.952014C14.544 0.816014 14.4 0.752014 14.216 0.752014C14.032 0.752014 13.872 0.824014 13.736 0.960014C13.6 1.09601 13.528 1.25601 13.528 1.44001V3.07201H13.52ZM17.936 4.88801C17.936 5.07201 18 5.23201 18.136 5.36001C18.256 5.48801 18.408 5.55201 18.584 5.56801C18.76 5.58401 18.928 5.51201 19.08 5.36001L20.224 4.21601C20.368 4.07201 20.432 3.91201 20.432 3.72801C20.432 3.53601 20.36 3.37601 20.224 3.24001C20.162 3.17557 20.0874 3.12456 20.0048 3.09016C19.9222 3.05575 19.8335 3.03869 19.744 3.04001C19.568 3.04001 19.416 3.10401 19.28 3.24001L18.136 4.40801C18 4.53601 17.936 4.69601 17.936 4.88801V4.88801ZM18.576 14.328C18.576 14.528 18.64 14.696 18.768 14.824L19.28 15.328C19.472 15.456 19.648 15.52 19.792 15.52C19.96 15.52 20.104 15.448 20.24 15.312C20.376 15.176 20.44 15.008 20.44 14.824C20.44 14.64 20.368 14.488 20.232 14.36L19.736 13.84C19.592 13.712 19.432 13.648 19.248 13.648C19.064 13.648 18.904 13.712 18.776 13.848C18.64 13.976 18.576 14.136 18.576 14.328V14.328ZM19.736 9.28001C19.736 9.47201 19.808 9.62401 19.944 9.75201C20.08 9.89601 20.248 9.96801 20.44 9.96801H22.056C22.24 9.96801 22.4 9.90401 22.536 9.76801C22.672 9.63201 22.736 9.47201 22.736 9.28001C22.736 9.08801 22.672 8.92801 22.536 8.80001C22.4 8.67201 22.24 8.60001 22.056 8.60001H20.44C20.248 8.60001 20.088 8.66401 19.944 8.80001C19.8 8.93601 19.736 9.09601 19.736 9.28001Z"
    fill="#0f172a" />
</svg>
