<svg width="24" height="24" viewBox="0 0 24 24" fill="none" xmlns="http://www.w3.org/2000/svg">
  <path
    d="M1.19202 13.536C1.19202 12.6 1.48002 11.784 2.05602 11.064C2.63202 10.344 3.36802 9.87999 4.24802 9.67199C4.49602 8.57599 5.05602 7.67999 5.92802 6.96799C6.80802 6.26399 7.80802 5.91199 8.94402 5.91199C9.73602 5.91199 10.464 6.08799 11.12 6.43999C11.52 6.01599 11.992 5.67999 12.528 5.43999C13.064 5.19999 13.624 5.07999 14.2 5.07999C14.96 5.07999 15.664 5.27199 16.312 5.64799C16.96 6.02399 17.472 6.53599 17.848 7.18399C18.224 7.83199 18.416 8.53599 18.416 9.29599C18.416 10.28 18.112 11.16 17.504 11.928C17.736 12.416 17.848 12.952 17.848 13.544C17.848 14.248 17.68 14.904 17.336 15.504C17 16.104 16.536 16.592 15.944 16.952C15.36 17.32 14.712 17.512 14.008 17.528C13.904 17.528 13.848 17.48 13.848 17.384V16.312C13.848 16.216 13.904 16.168 14.008 16.168C14.696 16.136 15.272 15.856 15.752 15.344C16.232 14.832 16.472 14.224 16.472 13.536C16.472 12.824 16.216 12.216 15.696 11.704C15.176 11.192 14.568 10.936 13.848 10.936H12.56C12.464 10.936 12.416 10.888 12.416 10.8L12.352 10.328C12.264 9.46399 11.888 8.73599 11.232 8.15199C10.576 7.56799 9.80802 7.27199 8.94402 7.27199C8.06402 7.27199 7.30402 7.56799 6.65602 8.15199C6.00802 8.73599 5.64002 9.46399 5.56002 10.328L5.50402 10.8C5.48002 10.872 5.41602 10.904 5.32802 10.904L4.92002 10.936C4.24802 11.016 3.68002 11.296 3.23202 11.784C2.78402 12.272 2.56002 12.856 2.56002 13.528V13.568H2.58402C2.59202 14.352 2.88802 14.992 3.47202 15.512C3.64802 15.664 3.84802 15.8 4.06402 15.904V15.92C4.39202 16.072 4.72002 16.152 5.03202 16.168C5.12002 16.168 5.16802 16.216 5.16802 16.304V17.376C5.16802 17.464 5.12002 17.512 5.03202 17.512C4.61602 17.488 4.22402 17.408 3.84802 17.272V17.288C3.18402 17.056 2.61602 16.672 2.16002 16.144C1.70402 15.616 1.40002 14.992 1.27202 14.296V14.264C1.26402 14.256 1.26402 14.248 1.26402 14.24C1.20802 14.032 1.19202 13.8 1.19202 13.536V13.536ZM5.59202 19.272C5.59202 19.248 5.60002 19.216 5.60802 19.168C5.61602 19.128 5.62402 19.096 5.62402 19.072L5.69602 18.6C5.75202 18.408 5.85602 18.272 6.02402 18.176C6.18402 18.08 6.36802 18.064 6.56802 18.112C6.75202 18.168 6.88002 18.272 6.97602 18.44C7.06402 18.6 7.08002 18.768 7.03202 18.936L6.92002 19.416C6.84002 19.768 6.64002 19.944 6.31202 19.944C6.28802 19.944 6.24802 19.944 6.19202 19.936C6.13602 19.928 6.10402 19.928 6.08802 19.928C5.93596 19.8906 5.80417 19.796 5.72002 19.664C5.63632 19.5505 5.59144 19.413 5.59202 19.272V19.272ZM6.18402 16.92C6.18402 16.728 6.24802 16.576 6.36802 16.448C6.49602 16.32 6.64802 16.264 6.84002 16.264C7.03202 16.264 7.18402 16.328 7.31202 16.448C7.44002 16.576 7.49602 16.728 7.49602 16.92C7.49602 17.104 7.43202 17.256 7.31202 17.384C7.19202 17.512 7.03202 17.568 6.84002 17.568C6.65602 17.568 6.50402 17.504 6.38402 17.376C6.32006 17.3187 6.26912 17.2483 6.23463 17.1697C6.20013 17.091 6.18287 17.0059 6.18402 16.92ZM7.49602 21.704C7.49602 21.672 7.50402 21.616 7.52802 21.52L7.63202 21.056C7.68802 20.872 7.80002 20.736 7.96002 20.648C8.12802 20.552 8.29602 20.536 8.46402 20.592C8.64802 20.624 8.79202 20.728 8.88802 20.888C8.98402 21.048 9.00802 21.232 8.95202 21.432L8.84802 21.904C8.76802 22.232 8.55202 22.392 8.20802 22.392C8.16802 22.392 8.10402 22.384 8.01602 22.36C7.85743 22.323 7.71794 22.229 7.62402 22.096C7.54142 21.9819 7.49665 21.8448 7.49602 21.704V21.704ZM7.92002 3.69599C7.92002 3.50399 7.98402 3.34399 8.12002 3.21599C8.25602 3.08799 8.42402 3.02399 8.62402 3.02399C8.81602 3.02399 8.97602 3.08799 9.10402 3.21599L9.60802 3.74399C9.74402 3.87999 9.80802 4.03999 9.80802 4.22399C9.80802 4.41599 9.72802 4.59199 9.56802 4.73599C9.40802 4.87999 9.24802 4.94399 9.08002 4.91999C8.91211 4.90337 8.75586 4.82666 8.64002 4.70399L8.12002 4.17599C7.99291 4.04846 7.92107 3.87604 7.92002 3.69599V3.69599ZM8.12802 19.384C8.12505 19.2974 8.14005 19.2112 8.17207 19.1307C8.2041 19.0502 8.25245 18.9772 8.31408 18.9163C8.37571 18.8554 8.44929 18.808 8.53017 18.7769C8.61105 18.7459 8.69748 18.732 8.78402 18.736C8.97602 18.736 9.12802 18.8 9.25602 18.92C9.38402 19.048 9.44002 19.2 9.44002 19.384C9.44002 19.576 9.37602 19.728 9.25602 19.856C9.12802 19.984 8.97602 20.04 8.78402 20.04C8.60802 20.04 8.45602 19.976 8.32002 19.84C8.25858 19.7811 8.20985 19.7103 8.17682 19.6319C8.1438 19.5534 8.12719 19.4691 8.12802 19.384V19.384ZM8.62402 17.568C8.62402 17.496 8.63202 17.424 8.64802 17.36L8.83202 16.64C8.88802 16.456 9.00002 16.312 9.16002 16.216C9.32802 16.12 9.49602 16.096 9.67202 16.152C9.86402 16.208 10 16.312 10.096 16.472C10.192 16.632 10.208 16.792 10.152 16.968L9.94402 17.688C9.88002 17.904 9.76802 18.056 9.61602 18.144C9.46402 18.232 9.28802 18.24 9.10402 18.192C9.03042 18.1798 8.96025 18.1521 8.89818 18.1107C8.83611 18.0694 8.78355 18.0153 8.74402 17.952C8.64802 17.808 8.60802 17.688 8.62402 17.568V17.568ZM10.832 19.28C10.832 19.256 10.832 19.224 10.84 19.176C10.848 19.128 10.848 19.104 10.848 19.088L10.92 18.616C10.976 18.424 11.08 18.288 11.248 18.192C11.408 18.096 11.592 18.08 11.792 18.128C11.976 18.184 12.112 18.296 12.2 18.456C12.296 18.624 12.312 18.792 12.256 18.96L12.144 19.44C12.064 19.784 11.864 19.96 11.536 19.96C11.512 19.96 11.472 19.96 11.416 19.952C11.36 19.944 11.328 19.944 11.312 19.944C11.1632 19.9042 11.0347 19.81 10.952 19.68C10.876 19.5602 10.8345 19.4218 10.832 19.28V19.28ZM11.424 16.928C11.424 16.736 11.488 16.584 11.608 16.456C11.736 16.328 11.888 16.272 12.08 16.272C12.272 16.272 12.424 16.336 12.552 16.456C12.68 16.584 12.736 16.736 12.736 16.928C12.739 17.0146 12.724 17.1008 12.692 17.1813C12.6599 17.2618 12.6116 17.3348 12.55 17.3957C12.4883 17.4566 12.4147 17.504 12.3339 17.535C12.253 17.5661 12.1666 17.58 12.08 17.576C11.896 17.576 11.736 17.512 11.616 17.376C11.5541 17.3192 11.5049 17.2499 11.4718 17.1726C11.4387 17.0954 11.4224 17.012 11.424 16.928V16.928ZM12.248 7.23999C12.92 7.84799 13.368 8.63199 13.608 9.58399H13.856C14.96 9.58399 15.896 9.96799 16.672 10.744C16.92 10.304 17.048 9.81599 17.048 9.28799C17.048 8.50399 16.768 7.83999 16.216 7.28799C15.9542 7.02236 15.6413 6.81244 15.2962 6.67083C14.9511 6.52923 14.581 6.45887 14.208 6.46399C13.44 6.46399 12.784 6.71999 12.248 7.23999ZM13.528 3.02399V1.38399C13.528 1.19199 13.592 1.03199 13.728 0.895988C13.864 0.759988 14.024 0.687988 14.208 0.687988C14.4 0.687988 14.56 0.751988 14.688 0.887988C14.816 1.02399 14.88 1.19199 14.88 1.38399V3.02399C14.88 3.21599 14.816 3.38399 14.688 3.51999C14.56 3.65599 14.4 3.71999 14.208 3.71999C14.024 3.71999 13.864 3.64799 13.728 3.51199C13.6628 3.44885 13.6114 3.3729 13.577 3.28892C13.5425 3.20493 13.5259 3.11473 13.528 3.02399V3.02399ZM17.992 4.85599C17.992 4.66399 18.056 4.50399 18.176 4.37599L19.328 3.21599C19.3854 3.15004 19.457 3.09783 19.5373 3.06321C19.6176 3.02859 19.7046 3.01246 19.792 3.01599C19.984 3.01599 20.144 3.07999 20.272 3.21599C20.416 3.34399 20.48 3.50399 20.48 3.69599C20.48 3.88799 20.408 4.04799 20.272 4.17599L19.12 5.34399C19.0562 5.4132 18.978 5.46765 18.891 5.50358C18.8039 5.5395 18.7101 5.55602 18.616 5.55199C18.5325 5.54865 18.4504 5.52852 18.3748 5.49278C18.2992 5.45704 18.2316 5.40644 18.176 5.34399C18.048 5.21599 17.992 5.05599 17.992 4.85599V4.85599ZM18.608 14.384C18.608 14.192 18.672 14.032 18.808 13.896C18.944 13.76 19.104 13.696 19.288 13.696C19.472 13.696 19.632 13.768 19.776 13.904L20.272 14.408C20.416 14.544 20.48 14.712 20.48 14.896C20.48 15.088 20.408 15.248 20.272 15.376C20.16 15.512 20.016 15.584 19.84 15.584L19.824 15.568C19.632 15.568 19.472 15.504 19.328 15.376L18.808 14.864C18.6809 14.7365 18.6091 14.564 18.608 14.384ZM19.784 9.28799C19.784 9.09599 19.848 8.93599 19.984 8.80799C20.12 8.67999 20.28 8.61599 20.472 8.61599H22.12C22.2097 8.61352 22.2989 8.6291 22.3825 8.6618C22.466 8.69449 22.5421 8.74364 22.6063 8.80632C22.6705 8.869 22.7214 8.94394 22.756 9.02668C22.7907 9.10942 22.8084 9.19828 22.808 9.28799C22.808 9.47999 22.744 9.63999 22.608 9.77599C22.472 9.91199 22.312 9.97599 22.12 9.97599H20.472C20.381 9.97768 20.2908 9.95919 20.2078 9.92184C20.1248 9.88449 20.0511 9.82922 19.992 9.75999C19.9234 9.70261 19.8689 9.63017 19.8328 9.54831C19.7968 9.46644 19.7801 9.37736 19.784 9.28799V9.28799Z"
    fill="#0f172a" />
</svg>
