<svg width="24" height="24" viewBox="0 0 24 24" fill="none" xmlns="http://www.w3.org/2000/svg">
  <path
    d="M1.216 13.52C1.216 14.408 1.48 15.192 2 15.888C2.52 16.584 3.208 17.056 4.056 17.312L3.544 18.672C3.512 18.784 3.544 18.84 3.656 18.84H5.36L4.36 22H4.592L7.928 17.688C7.96 17.656 7.96 17.616 7.936 17.576C7.92 17.536 7.88 17.52 7.824 17.52H6.088L8.064 13.816C8.12 13.704 8.08 13.64 7.952 13.64H5.6C5.528 13.64 5.464 13.68 5.416 13.752L4.56 16.056C3.992 15.912 3.52 15.6 3.144 15.128C2.768 14.656 2.584 14.12 2.584 13.52C2.584 12.856 2.808 12.28 3.264 11.784C3.72 11.288 4.28 11.008 4.944 10.928L5.36 10.88C5.464 10.88 5.52 10.832 5.52 10.736L5.568 10.328C5.656 9.46398 6.024 8.73598 6.672 8.15198C7.29448 7.57752 8.113 7.2627 8.96 7.27198C9.832 7.27198 10.592 7.56798 11.24 8.15198C11.888 8.73598 12.264 9.46398 12.36 10.328L12.408 10.792C12.408 10.88 12.456 10.928 12.552 10.928H13.84C14.568 10.928 15.184 11.184 15.696 11.688C16.208 12.192 16.464 12.8 16.464 13.52C16.464 14.2 16.224 14.792 15.752 15.288C15.28 15.784 14.696 16.064 14 16.12C13.896 16.12 13.84 16.168 13.84 16.264V17.36C13.84 17.448 13.896 17.496 14 17.496C15.064 17.464 15.968 17.056 16.712 16.288C17.456 15.52 17.824 14.6 17.824 13.528C17.824 12.936 17.712 12.4 17.48 11.92C18.112 11.152 18.424 10.272 18.424 9.26398C18.424 8.51198 18.232 7.81598 17.856 7.16798C17.489 6.52901 16.959 5.99894 16.32 5.63198C15.672 5.25598 14.976 5.06398 14.224 5.06398C12.992 5.06398 11.952 5.52798 11.12 6.44798C10.472 6.10398 9.752 5.92798 8.96 5.92798C7.832 5.92798 6.824 6.27998 5.952 6.97598C5.08 7.67198 4.52 8.56798 4.272 9.66398C3.384 9.87198 2.656 10.328 2.088 11.048C1.52 11.768 1.216 12.6 1.216 13.52V13.52ZM7.688 21.184C7.68 21.304 7.712 21.424 7.8 21.536C7.888 21.648 8.008 21.736 8.168 21.8C8.224 21.816 8.28 21.824 8.336 21.824C8.472 21.824 8.608 21.784 8.744 21.704C8.88 21.624 8.968 21.496 9.016 21.328L10.848 14.472C10.8732 14.3872 10.8813 14.2983 10.8717 14.2103C10.8621 14.1224 10.835 14.0373 10.792 13.96C10.7513 13.8832 10.6956 13.8154 10.6283 13.7604C10.561 13.7054 10.4834 13.6645 10.4 13.64C10.3145 13.611 10.2236 13.601 10.1338 13.6106C10.044 13.6203 9.95741 13.6494 9.88 13.696C9.72 13.784 9.608 13.92 9.56 14.104L7.712 20.984C7.696 21.04 7.688 21.112 7.688 21.184V21.184ZM7.952 3.70398C7.952 3.89598 8.016 4.04798 8.152 4.17598L8.664 4.70398C8.8 4.83998 8.96 4.90398 9.152 4.91198C9.344 4.91198 9.496 4.84798 9.608 4.70398C9.76 4.58398 9.832 4.42398 9.832 4.22398C9.832 4.03198 9.768 3.87998 9.632 3.75198L9.128 3.22398C8.99659 3.09881 8.82148 3.02991 8.64 3.03198C8.44 3.03198 8.272 3.09598 8.144 3.22398C8.016 3.35198 7.952 3.51198 7.952 3.70398ZM11.016 18.744C11.016 18.84 11.048 18.936 11.104 19.048C11.208 19.208 11.336 19.32 11.504 19.392C11.56 19.416 11.64 19.432 11.744 19.432C11.864 19.432 11.952 19.416 12.008 19.384C12.168 19.32 12.28 19.16 12.336 18.92L13.528 14.48C13.576 14.288 13.56 14.12 13.472 13.96C13.3822 13.8065 13.2356 13.6945 13.064 13.648C12.9798 13.6188 12.8903 13.6086 12.8017 13.6183C12.7131 13.628 12.6279 13.6573 12.552 13.704C12.474 13.746 12.4059 13.804 12.3521 13.8744C12.2983 13.9447 12.2601 14.0257 12.24 14.112L11.04 18.56C11.04 18.576 11.032 18.608 11.024 18.648C11.016 18.696 11.016 18.72 11.016 18.744V18.744ZM12.24 7.23198C12.776 6.71998 13.432 6.45598 14.224 6.45598C15 6.45598 15.672 6.72798 16.224 7.27198C16.776 7.81598 17.056 8.47998 17.056 9.25598C17.056 9.75198 16.92 10.248 16.64 10.736C15.848 9.95198 14.912 9.55998 13.84 9.55998H13.592C13.344 8.62398 12.888 7.84798 12.24 7.23198V7.23198ZM13.528 3.03198C13.528 3.21598 13.6 3.37598 13.736 3.51198C13.872 3.64798 14.032 3.71998 14.216 3.71998C14.408 3.71998 14.56 3.65598 14.688 3.51998C14.816 3.38398 14.872 3.22398 14.872 3.03198V1.38398C14.872 1.19198 14.808 1.03198 14.688 0.895984C14.568 0.759984 14.408 0.695984 14.216 0.695984C14.032 0.695984 13.872 0.759984 13.736 0.895984C13.6 1.03198 13.528 1.19198 13.528 1.38398V3.03198V3.03198ZM17.952 4.85598C17.952 5.04798 18.024 5.20798 18.16 5.33598C18.272 5.47198 18.424 5.53598 18.616 5.53598C18.808 5.53598 18.968 5.47198 19.096 5.33598L20.248 4.17598C20.384 4.04798 20.456 3.89598 20.456 3.70398C20.456 3.51198 20.392 3.35198 20.256 3.21598C20.1929 3.15077 20.1169 3.09934 20.0329 3.06492C19.9489 3.0305 19.8587 3.01384 19.768 3.01598C19.592 3.01598 19.44 3.08798 19.312 3.22398L18.16 4.37598C18.024 4.50398 17.952 4.66398 17.952 4.85598V4.85598ZM18.6 14.344C18.6 14.52 18.664 14.68 18.792 14.824L19.32 15.328C19.416 15.44 19.568 15.512 19.752 15.52L19.76 15.528H19.84C19.992 15.528 20.128 15.456 20.264 15.32C20.4 15.192 20.472 15.032 20.472 14.84C20.472 14.656 20.4 14.496 20.264 14.352L19.744 13.864C19.687 13.7964 19.616 13.742 19.5359 13.7047C19.4557 13.6674 19.3684 13.648 19.28 13.648C19.096 13.648 18.936 13.712 18.8 13.848C18.664 13.992 18.6 14.16 18.6 14.344V14.344ZM19.76 9.26398C19.76 9.44798 19.832 9.60798 19.976 9.74398C20.12 9.88798 20.28 9.95998 20.464 9.95998H22.088C22.272 9.95998 22.432 9.88798 22.568 9.75198C22.704 9.61598 22.776 9.44798 22.776 9.26398C22.776 9.07998 22.712 8.91998 22.576 8.79198C22.5113 8.72938 22.4349 8.68019 22.3512 8.64724C22.2674 8.61428 22.178 8.59823 22.088 8.59998H20.464C20.264 8.59998 20.096 8.66398 19.96 8.79198C19.824 8.91998 19.76 9.07998 19.76 9.26398V9.26398Z"
    fill="#0f172a" />
</svg>
