<svg width="25" height="24" viewBox="0 0 25 24" fill="none" xmlns="http://www.w3.org/2000/svg">
  <path
    d="M2.59598 16.84C2.59598 16.648 2.65998 16.48 2.79598 16.352C2.93198 16.224 3.09998 16.16 3.29998 16.16H18.236C18.3262 16.1567 18.416 16.1721 18.5 16.2051C18.584 16.2381 18.6602 16.2881 18.724 16.3519C18.7878 16.4157 18.8378 16.492 18.8708 16.576C18.9039 16.6599 18.9192 16.7498 18.916 16.84C18.916 17.024 18.852 17.184 18.716 17.304C18.58 17.432 18.42 17.488 18.236 17.488H3.29998C3.09998 17.488 2.93198 17.424 2.79598 17.304C2.73125 17.2456 2.67987 17.1739 2.64535 17.0938C2.61084 17.0137 2.594 16.9271 2.59598 16.84V16.84ZM4.69198 14.328C4.69198 14.136 4.76398 13.976 4.89998 13.848C5.01998 13.728 5.17998 13.664 5.37198 13.664H20.308C20.492 13.664 20.644 13.728 20.772 13.856C20.9 13.984 20.956 14.136 20.956 14.328C20.956 14.52 20.892 14.68 20.772 14.808C20.644 14.944 20.492 15.008 20.308 15.008H5.37198C5.17998 15.008 5.01998 14.944 4.89198 14.808C4.82754 14.7459 4.77653 14.6713 4.74213 14.5887C4.70772 14.5062 4.69065 14.4174 4.69198 14.328V14.328ZM4.79598 12.416C4.79598 12.488 4.83598 12.52 4.91598 12.52H6.05998C6.10798 12.52 6.16398 12.48 6.21998 12.392C6.41198 11.976 6.69198 11.64 7.06798 11.376C7.44398 11.112 7.85998 10.96 8.30798 10.928L8.74798 10.872C8.83598 10.872 8.88398 10.824 8.88398 10.728L8.93998 10.328C9.02798 9.46397 9.38798 8.74397 10.036 8.16797C10.684 7.59197 11.444 7.30397 12.316 7.30397C13.18 7.30397 13.932 7.59197 14.58 8.15997C15.22 8.72797 15.588 9.44797 15.676 10.304L15.74 10.76C15.74 10.848 15.796 10.896 15.9 10.896H17.172C17.684 10.896 18.156 11.032 18.58 11.312C19.004 11.592 19.316 11.952 19.524 12.408C19.58 12.496 19.636 12.536 19.692 12.536H20.836C20.932 12.536 20.972 12.48 20.948 12.352C20.716 11.536 20.244 10.864 19.556 10.344C18.86 9.82397 18.068 9.56797 17.18 9.56797H16.924C16.66 8.50397 16.1 7.63197 15.244 6.95197C14.388 6.27197 13.42 5.93597 12.324 5.93597C11.204 5.93597 10.212 6.28797 9.33998 6.99197C8.46798 7.69597 7.91598 8.59197 7.66798 9.67997C6.98798 9.83997 6.38798 10.16 5.87598 10.648C5.36398 11.136 5.00398 11.712 4.80398 12.392V12.36C4.79598 12.36 4.79598 12.384 4.79598 12.416V12.416ZM6.08398 19.288C6.08398 19.096 6.15598 18.944 6.29198 18.816C6.41198 18.696 6.57198 18.632 6.77198 18.632H21.716C21.908 18.632 22.068 18.696 22.196 18.816C22.332 18.944 22.396 19.096 22.396 19.28C22.396 19.472 22.332 19.632 22.196 19.768C22.06 19.904 21.9 19.968 21.716 19.968H6.77198C6.58798 19.968 6.42798 19.896 6.29198 19.76C6.22538 19.7009 6.17232 19.6282 6.13642 19.5467C6.10052 19.4652 6.08264 19.377 6.08398 19.288V19.288Z"
    fill="#0f172a" />
</svg>
