<svg width="24" height="24" viewBox="0 0 24 24" fill="none" xmlns="http://www.w3.org/2000/svg">
  <path
    d="M1.18396 13.56C1.18396 14.616 1.55196 15.528 2.27996 16.28C3.00796 17.032 3.91196 17.44 4.98396 17.488C5.07996 17.488 5.12796 17.44 5.12796 17.352V16.288C5.12796 16.192 5.07996 16.144 4.98396 16.144C4.29596 16.112 3.71996 15.84 3.24796 15.344C2.77596 14.848 2.54396 14.248 2.54396 13.552C2.54396 12.88 2.76796 12.288 3.21596 11.8C3.66396 11.304 4.22396 11.032 4.89596 10.976L5.31996 10.912C5.40796 10.912 5.44796 10.872 5.44796 10.8L5.51196 10.36C5.60796 9.48798 5.98396 8.75998 6.61596 8.18398C7.24796 7.60798 7.99996 7.32798 8.87996 7.32798C9.75996 7.32798 10.52 7.61598 11.168 8.19198C11.824 8.76798 12.192 9.48798 12.272 10.344L12.328 10.808C12.344 10.896 12.408 10.944 12.504 10.944H13.784C14.496 10.944 15.104 11.2 15.616 11.712C16.128 12.224 16.384 12.84 16.384 13.56C16.384 14.256 16.152 14.848 15.68 15.352C15.208 15.856 14.632 16.112 13.944 16.152C13.84 16.152 13.784 16.2 13.784 16.296V17.36C13.784 17.448 13.84 17.496 13.944 17.496C15.008 17.464 15.904 17.064 16.64 16.304C17.368 15.544 17.736 14.632 17.736 13.568C17.736 13.024 17.632 12.496 17.432 11.96C18.056 11.192 18.36 10.296 18.36 9.27998C18.36 8.71198 18.248 8.17598 18.032 7.65598C17.816 7.13598 17.512 6.69598 17.136 6.31998C16.76 5.94398 16.312 5.64798 15.8 5.42398C15.288 5.19998 14.736 5.08798 14.168 5.08798C12.936 5.08798 11.904 5.55198 11.08 6.47998C10.368 6.12798 9.63196 5.95198 8.88796 5.95198C7.75996 5.95198 6.75996 6.30398 5.89596 6.99998C5.03196 7.69598 4.47996 8.59998 4.23196 9.70398C3.33596 9.91198 2.59996 10.368 2.03196 11.088C1.46396 11.808 1.18396 12.632 1.18396 13.56V13.56ZM5.46396 19.184C5.46396 19.32 5.50396 19.456 5.59196 19.592C5.67996 19.728 5.80796 19.816 5.96796 19.872C6.15196 19.928 6.32796 19.92 6.47996 19.84C6.63996 19.768 6.74396 19.616 6.79996 19.392L6.91196 18.904C6.95196 18.72 6.92796 18.552 6.83196 18.4C6.74004 18.2434 6.59088 18.1287 6.41596 18.08C6.23196 18.024 6.06396 18.048 5.90396 18.144C5.74396 18.24 5.64796 18.376 5.59996 18.56L5.48796 19.032C5.47196 19.08 5.46396 19.128 5.46396 19.184V19.184ZM6.07996 16.864C6.07996 17.04 6.14396 17.192 6.27196 17.32C6.39996 17.464 6.55196 17.528 6.71996 17.528C6.91196 17.528 7.07196 17.464 7.19996 17.336C7.33596 17.208 7.39996 17.056 7.39996 16.864C7.39996 16.68 7.33596 16.52 7.19996 16.392C7.07162 16.2671 6.89905 16.198 6.71996 16.2C6.53596 16.2 6.38396 16.264 6.25596 16.384C6.12796 16.504 6.07996 16.68 6.07996 16.864V16.864ZM6.56796 15.048C6.55996 15.176 6.59196 15.296 6.67196 15.408C6.75196 15.528 6.87996 15.608 7.05596 15.664C7.13817 15.6884 7.22444 15.696 7.30965 15.6863C7.39485 15.6767 7.47725 15.6501 7.55196 15.608C7.71996 15.52 7.83196 15.384 7.88796 15.2L8.10396 14.48C8.15996 14.288 8.14396 14.112 8.04796 13.96C7.94839 13.8053 7.79411 13.6939 7.61596 13.648C7.53308 13.6192 7.44482 13.6093 7.35763 13.619C7.27044 13.6287 7.18651 13.6577 7.11196 13.704C6.9542 13.7889 6.83633 13.9326 6.78396 14.104L6.59196 14.84C6.57596 14.968 6.56796 15.04 6.56796 15.048V15.048ZM7.48796 21.68C7.48796 21.816 7.52796 21.944 7.61596 22.072C7.70396 22.2 7.83196 22.288 8.00796 22.336C8.07996 22.352 8.14396 22.36 8.19996 22.36C8.54396 22.36 8.75996 22.2 8.83996 21.872L8.94396 21.4C8.99196 21.192 8.96796 21.016 8.87996 20.856C8.79196 20.696 8.64796 20.6 8.46396 20.56C8.38101 20.5316 8.29282 20.5219 8.2057 20.5316C8.11857 20.5413 8.03466 20.5701 7.95996 20.616C7.79196 20.712 7.68796 20.848 7.63196 21.024L7.51996 21.504C7.49596 21.592 7.48796 21.656 7.48796 21.68V21.68ZM7.93596 3.72798C7.93596 3.91998 7.99996 4.07998 8.12796 4.20798L8.65596 4.71998C8.76796 4.84798 8.91196 4.91198 9.08796 4.92798C9.26396 4.94398 9.43196 4.87198 9.58396 4.71998C9.71196 4.59198 9.77596 4.43198 9.77596 4.24798C9.77596 4.05598 9.71196 3.89598 9.58396 3.76798L9.07996 3.24798C8.95711 3.12254 8.79134 3.04824 8.61596 3.03998C8.43196 3.03998 8.27196 3.10398 8.13596 3.23998C8.00796 3.37598 7.93596 3.53598 7.93596 3.72798V3.72798ZM8.11996 19.36C8.11996 19.544 8.18396 19.696 8.31196 19.824C8.43996 19.952 8.59996 20.016 8.77596 20.016C8.96796 20.016 9.11996 19.952 9.24796 19.832C9.37596 19.704 9.43196 19.552 9.43196 19.36C9.43493 19.2734 9.41993 19.1871 9.3879 19.1067C9.35588 19.0262 9.30753 18.9532 9.2459 18.8923C9.18426 18.8314 9.11069 18.784 9.02981 18.7529C8.94893 18.7219 8.8625 18.708 8.77596 18.712C8.58396 18.712 8.43196 18.776 8.30396 18.896C8.17596 19.016 8.11996 19.176 8.11996 19.36V19.36ZM8.61596 17.544C8.60796 17.664 8.63996 17.792 8.72796 17.92C8.80796 18.048 8.92796 18.128 9.08796 18.16C9.27196 18.208 9.43996 18.192 9.59996 18.112C9.75996 18.032 9.86396 17.88 9.92796 17.664L10.136 16.944C10.192 16.768 10.176 16.6 10.08 16.44C10.0338 16.3614 9.97256 16.2927 9.89981 16.2378C9.82706 16.1829 9.74419 16.1428 9.65596 16.12C9.47996 16.064 9.31196 16.088 9.14396 16.184C8.97596 16.28 8.87196 16.424 8.81596 16.608L8.63996 17.328C8.62396 17.392 8.61596 17.464 8.61596 17.544V17.544ZM10.824 19.264C10.824 19.4 10.864 19.528 10.944 19.648C11.024 19.768 11.144 19.856 11.312 19.904C11.336 19.904 11.376 19.912 11.424 19.92C11.472 19.928 11.512 19.936 11.536 19.936C11.864 19.936 12.064 19.76 12.144 19.408L12.256 18.928C12.312 18.76 12.296 18.592 12.2 18.424C12.1123 18.2653 11.9657 18.1475 11.792 18.096C11.592 18.048 11.408 18.064 11.248 18.16C11.088 18.256 10.976 18.392 10.92 18.584L10.848 19.056C10.848 19.064 10.848 19.096 10.84 19.144C10.832 19.2 10.824 19.232 10.824 19.264V19.264ZM11.416 16.896C11.416 17.08 11.48 17.232 11.608 17.352C11.728 17.48 11.88 17.544 12.072 17.544C12.264 17.544 12.416 17.48 12.544 17.36C12.672 17.232 12.728 17.08 12.728 16.896C12.728 16.704 12.664 16.552 12.544 16.424C12.416 16.296 12.264 16.24 12.072 16.24C11.88 16.24 11.728 16.304 11.6 16.424C11.472 16.544 11.416 16.704 11.416 16.896ZM11.904 15.048C11.904 15.184 11.944 15.312 12.032 15.432C12.12 15.552 12.248 15.64 12.424 15.688C12.44 15.688 12.472 15.696 12.52 15.704C12.568 15.712 12.608 15.72 12.632 15.72C12.72 15.72 12.816 15.696 12.928 15.648C13.096 15.56 13.2 15.424 13.248 15.232L13.44 14.512C13.488 14.328 13.472 14.16 13.384 14.008C13.296 13.856 13.16 13.744 12.984 13.688C12.9 13.6595 12.8111 13.6491 12.7228 13.6573C12.6346 13.6656 12.5491 13.6924 12.472 13.736C12.312 13.824 12.208 13.952 12.152 14.144L11.928 14.872C11.928 14.888 11.928 14.912 11.92 14.96C11.9101 14.9883 11.9047 15.018 11.904 15.048V15.048ZM12.184 7.27198C12.712 6.74398 13.368 6.47998 14.16 6.47998C14.952 6.47998 15.624 6.75198 16.176 7.29598C16.728 7.83998 17.008 8.49598 17.008 9.27998C17.008 9.80798 16.864 10.312 16.584 10.784C15.8 9.99998 14.864 9.60798 13.784 9.60798H13.536C13.312 8.72798 12.856 7.95198 12.184 7.27198V7.27198ZM13.504 3.06398C13.504 3.24798 13.568 3.39998 13.688 3.52798C13.808 3.64798 13.968 3.71198 14.16 3.71198C14.352 3.71198 14.52 3.64798 14.656 3.52798C14.792 3.40798 14.856 3.24798 14.856 3.06398V1.40798C14.856 1.22398 14.784 1.06398 14.648 0.927984C14.5844 0.863386 14.5083 0.812357 14.4245 0.777981C14.3406 0.743605 14.2506 0.726596 14.16 0.727984C13.976 0.727984 13.816 0.791984 13.696 0.927984C13.568 1.06398 13.512 1.22398 13.512 1.40798V3.06398H13.504ZM17.92 4.87198C17.92 5.07198 17.984 5.23198 18.104 5.35198C18.392 5.63998 18.712 5.63998 19.072 5.35198L20.216 4.20798C20.352 4.07198 20.416 3.90398 20.416 3.70398C20.416 3.51198 20.352 3.35198 20.216 3.22398C20.1539 3.15954 20.0793 3.10853 19.9967 3.07413C19.9142 3.03972 19.8254 3.02266 19.736 3.02398C19.552 3.02398 19.392 3.08798 19.248 3.21598L18.104 4.39998C18.0424 4.46171 17.9943 4.53551 17.9626 4.61674C17.9309 4.69797 17.9164 4.78487 17.92 4.87198V4.87198ZM18.544 14.352C18.544 14.536 18.616 14.696 18.76 14.824L19.248 15.328C19.408 15.456 19.568 15.52 19.736 15.52C19.896 15.52 20.056 15.456 20.216 15.328C20.352 15.2 20.416 15.048 20.416 14.856C20.416 14.672 20.352 14.512 20.216 14.36L19.696 13.872C19.576 13.736 19.424 13.672 19.24 13.672C19.056 13.672 18.896 13.736 18.76 13.872C18.692 13.9321 18.6376 14.006 18.6003 14.0887C18.5631 14.1715 18.5439 14.2612 18.544 14.352ZM19.728 9.27998C19.728 9.47198 19.8 9.62398 19.936 9.75198C20.08 9.89598 20.248 9.96798 20.432 9.96798H22.056C22.24 9.96798 22.4 9.90398 22.528 9.76798C22.656 9.63198 22.72 9.47198 22.72 9.27998C22.72 9.08798 22.656 8.92798 22.528 8.79998C22.4685 8.73446 22.3954 8.68264 22.3139 8.64811C22.2324 8.61358 22.1444 8.59716 22.056 8.59998H20.432C20.24 8.59998 20.08 8.66398 19.936 8.79998C19.792 8.93598 19.728 9.09598 19.728 9.27998Z"
    fill="#0f172a" />
</svg>
