<svg width="24" height="24" viewBox="0 0 24 24" fill="none" xmlns="http://www.w3.org/2000/svg">
  <path
    d="M3.71997 13.568C3.71997 14.624 4.09597 15.536 4.83997 16.296C5.58397 17.064 6.48797 17.464 7.54397 17.496C7.63997 17.496 7.68797 17.448 7.68797 17.36V16.296C7.68797 16.2 7.63997 16.152 7.54397 16.152C6.87197 16.12 6.28797 15.848 5.80797 15.336C5.32797 14.824 5.07997 14.24 5.07997 13.56C5.07997 12.888 5.30397 12.304 5.75997 11.808C6.21597 11.312 6.76797 11.032 7.43997 10.976L7.86397 10.92C7.95997 10.92 8.01597 10.872 8.01597 10.776L8.07197 10.376C8.15197 9.50402 8.51197 8.76802 9.15997 8.17602C9.80797 7.58402 10.568 7.28802 11.448 7.28802C12.312 7.28802 13.072 7.58402 13.72 8.16802C14.368 8.75202 14.744 9.47202 14.84 10.336L14.896 10.8C14.896 10.896 14.944 10.944 15.048 10.944H16.328C17.048 10.944 17.664 11.2 18.184 11.72C18.696 12.232 18.96 12.848 18.96 13.56C18.96 14.232 18.72 14.824 18.24 15.336C17.76 15.84 17.176 16.112 16.496 16.152C16.392 16.152 16.336 16.2 16.336 16.296V17.36C16.336 17.448 16.392 17.496 16.496 17.496C17.56 17.464 18.464 17.064 19.2 16.296C19.936 15.528 20.304 14.624 20.304 13.56C20.304 12.848 20.128 12.184 19.768 11.576C19.4215 10.9761 18.9218 10.4792 18.32 10.136C17.712 9.78402 17.048 9.60802 16.336 9.60802H16.088C15.8416 8.564 15.2461 7.63543 14.4 6.97602C13.5673 6.30325 12.5264 5.94121 11.456 5.95202C10.328 5.95202 9.32797 6.30402 8.45597 7.00002C7.58397 7.69602 7.02397 8.59202 6.77597 9.68002C5.87197 9.91202 5.14397 10.384 4.57597 11.096C4.00797 11.808 3.71997 12.64 3.71997 13.568ZM8.03997 19.184C8.03997 19.32 8.07997 19.456 8.16797 19.592C8.25597 19.728 8.38397 19.816 8.54397 19.872C8.72797 19.928 8.89597 19.92 9.05597 19.84C9.20797 19.768 9.31997 19.616 9.36797 19.392L9.47997 18.904C9.5231 18.7301 9.49609 18.5462 9.40479 18.392C9.31348 18.2379 9.1652 18.1258 8.99197 18.08C8.81597 18.024 8.63997 18.048 8.47997 18.144C8.31997 18.24 8.20797 18.384 8.15997 18.568L8.04797 19.04C8.04797 19.064 8.03997 19.112 8.03997 19.184V19.184ZM8.64797 16.864C8.64797 17.032 8.71197 17.184 8.84797 17.32C8.97597 17.456 9.11997 17.52 9.29597 17.52C9.48797 17.52 9.64797 17.456 9.77597 17.328C9.90397 17.2 9.96797 17.048 9.96797 16.856C9.96797 16.672 9.90397 16.512 9.77597 16.384C9.71331 16.3209 9.63839 16.2714 9.55584 16.2383C9.47329 16.2053 9.38485 16.1896 9.29597 16.192C9.11197 16.192 8.95997 16.256 8.83197 16.376C8.71197 16.52 8.64797 16.68 8.64797 16.864V16.864ZM9.13597 15.048C9.12797 15.176 9.15997 15.296 9.24797 15.408C9.32797 15.528 9.45597 15.608 9.63197 15.664C9.79997 15.712 9.95997 15.696 10.128 15.608C10.296 15.52 10.4 15.384 10.456 15.2L10.68 14.48C10.736 14.288 10.72 14.112 10.624 13.96C10.5244 13.8053 10.3701 13.6939 10.192 13.648C10.1091 13.6193 10.0208 13.6094 9.93364 13.6191C9.84645 13.6288 9.76252 13.6578 9.68797 13.704C9.53021 13.7889 9.41234 13.9327 9.35997 14.104L9.16797 14.84C9.16797 14.856 9.15997 14.888 9.15197 14.936C9.14397 14.976 9.13597 15.016 9.13597 15.048V15.048ZM10.072 21.68C10.072 21.824 10.112 21.952 10.192 22.08C10.272 22.208 10.4 22.296 10.576 22.344C10.64 22.36 10.712 22.368 10.776 22.368C11.12 22.368 11.328 22.208 11.408 21.88L11.52 21.408C11.5694 21.2252 11.5465 21.0304 11.456 20.864C11.412 20.7876 11.3521 20.7217 11.2803 20.6706C11.2085 20.6195 11.1265 20.5845 11.04 20.568C10.957 20.5397 10.8688 20.53 10.7817 20.5397C10.6946 20.5493 10.6107 20.5781 10.536 20.624C10.368 20.72 10.264 20.856 10.208 21.032L10.096 21.504C10.08 21.576 10.072 21.632 10.072 21.68V21.68ZM10.688 19.36C10.688 19.536 10.752 19.688 10.888 19.824C11.016 19.952 11.168 20.016 11.344 20.016C11.536 20.016 11.688 19.952 11.816 19.832C11.944 19.704 12 19.552 12 19.36C12.0029 19.2734 11.9879 19.1872 11.9559 19.1067C11.9239 19.0262 11.8755 18.9532 11.8139 18.8923C11.7523 18.8314 11.6787 18.784 11.5978 18.753C11.5169 18.7219 11.4305 18.708 11.344 18.712C11.152 18.712 11 18.776 10.872 18.896C10.744 19.016 10.688 19.176 10.688 19.36V19.36ZM11.192 17.544C11.184 17.664 11.216 17.792 11.296 17.92C11.376 18.048 11.496 18.128 11.656 18.16C11.84 18.208 12.008 18.192 12.168 18.112C12.328 18.032 12.432 17.88 12.496 17.664L12.712 16.944C12.768 16.768 12.752 16.6 12.656 16.44C12.6098 16.3614 12.5486 16.2927 12.4758 16.2378C12.4031 16.1829 12.3202 16.1429 12.232 16.12C12.1471 16.0928 12.0573 16.0844 11.9689 16.0955C11.8805 16.1066 11.7955 16.1368 11.72 16.184C11.552 16.28 11.448 16.424 11.392 16.608L11.208 17.328C11.2 17.392 11.192 17.464 11.192 17.544V17.544ZM13.4 19.264C13.4 19.392 13.44 19.52 13.52 19.648C13.6 19.776 13.728 19.864 13.888 19.912C13.912 19.912 13.952 19.92 14 19.928C14.048 19.936 14.08 19.944 14.112 19.944C14.44 19.944 14.64 19.768 14.72 19.416L14.832 18.936C14.888 18.768 14.872 18.6 14.776 18.432C14.7346 18.3519 14.6769 18.2814 14.6066 18.2249C14.5364 18.1684 14.4551 18.1273 14.368 18.104C14.168 18.056 13.984 18.072 13.824 18.168C13.664 18.264 13.552 18.4 13.496 18.592L13.424 19.064C13.424 19.08 13.416 19.12 13.408 19.16C13.4 19.2 13.4 19.232 13.4 19.264V19.264ZM13.992 16.896C13.992 17.072 14.056 17.232 14.192 17.352C14.312 17.48 14.464 17.544 14.648 17.544C14.84 17.544 14.992 17.48 15.12 17.36C15.248 17.24 15.304 17.08 15.304 16.896C15.304 16.704 15.24 16.552 15.12 16.424C15 16.296 14.84 16.24 14.648 16.24C14.456 16.24 14.304 16.304 14.176 16.424C14.056 16.552 13.992 16.704 13.992 16.896ZM14.48 15.048C14.48 15.184 14.52 15.312 14.608 15.432C14.696 15.552 14.824 15.64 15 15.688C15.016 15.688 15.048 15.696 15.096 15.704C15.144 15.712 15.184 15.72 15.208 15.72C15.288 15.72 15.384 15.696 15.496 15.648C15.664 15.56 15.776 15.416 15.824 15.232L16.016 14.512C16.064 14.328 16.048 14.16 15.952 14.008C15.909 13.93 15.8507 13.8614 15.7806 13.8064C15.7105 13.7514 15.63 13.7111 15.544 13.688C15.46 13.6597 15.3711 13.6493 15.2829 13.6576C15.1947 13.6659 15.1092 13.6926 15.032 13.736C14.88 13.824 14.768 13.952 14.72 14.144L14.496 14.872C14.496 14.888 14.488 14.92 14.48 14.968V15.048V15.048Z"
    fill="#0f172a" />
</svg>
