<svg width="25" height="24" viewBox="0 0 25 24" fill="none" xmlns="http://www.w3.org/2000/svg">
  <path
    d="M1.70801 13.512C1.70801 14.576 2.07601 15.496 2.82001 16.264C3.56401 17.032 4.46801 17.44 5.54801 17.488C5.63601 17.488 5.68401 17.44 5.68401 17.352V16.28C5.68401 16.192 5.63601 16.144 5.54801 16.144C4.86001 16.112 4.27601 15.832 3.79601 15.32C3.31601 14.808 3.07601 14.2 3.07601 13.512C3.07601 12.856 3.30001 12.28 3.75601 11.784C4.21201 11.288 4.77201 11.008 5.43601 10.928L5.86001 10.888C5.96401 10.888 6.02001 10.84 6.02001 10.752L6.07601 10.32C6.16401 9.45599 6.52401 8.72799 7.17201 8.14399C7.82001 7.55999 8.58001 7.26399 9.45201 7.26399C10.324 7.26399 11.084 7.55999 11.74 8.14399C12.396 8.72799 12.764 9.45599 12.86 10.32L12.916 10.776C12.916 10.872 12.964 10.928 13.052 10.928H14.348C15.06 10.928 15.668 11.184 16.188 11.696C16.708 12.208 16.964 12.808 16.964 13.512C16.964 14.208 16.724 14.808 16.244 15.32C15.764 15.832 15.18 16.104 14.5 16.144C14.404 16.144 14.348 16.192 14.348 16.28V17.352C14.348 17.44 14.396 17.488 14.5 17.488C15.564 17.456 16.468 17.048 17.212 16.28C17.956 15.504 18.324 14.584 18.324 13.52C18.324 12.944 18.212 12.408 17.988 11.912C18.612 11.136 18.924 10.256 18.924 9.26399C18.924 8.50399 18.732 7.79999 18.356 7.15199C17.98 6.50399 17.468 5.99199 16.82 5.61599C16.172 5.23999 15.476 5.05599 14.724 5.05599C13.476 5.05599 12.444 5.51999 11.62 6.44799C10.964 6.09599 10.244 5.91999 9.45201 5.91999C8.32401 5.91999 7.31601 6.27199 6.44401 6.97599C5.57201 7.67999 5.01201 8.57599 4.76401 9.66399C3.87601 9.87199 3.14801 10.336 2.57201 11.056C1.99601 11.776 1.70801 12.592 1.70801 13.512V13.512ZM6.02801 19C6.02801 19.136 6.06801 19.264 6.15601 19.392C6.24401 19.52 6.37201 19.608 6.54801 19.656C6.63601 19.672 6.70801 19.688 6.76401 19.688C7.07601 19.688 7.28401 19.52 7.38001 19.176L8.64401 14.472C8.70001 14.28 8.67601 14.104 8.58001 13.936C8.53601 13.8573 8.47521 13.7892 8.40193 13.7367C8.32864 13.6841 8.24468 13.6484 8.15601 13.632C8.07312 13.6032 7.98487 13.5934 7.89768 13.603C7.81049 13.6127 7.72656 13.6418 7.65201 13.688C7.49201 13.776 7.38001 13.912 7.32401 14.096L6.06001 18.824C6.04401 18.928 6.02801 18.984 6.02801 19V19ZM8.11601 21.464C8.11601 21.616 8.15601 21.752 8.23601 21.88C8.31601 22.008 8.45201 22.088 8.65201 22.12C8.74001 22.136 8.81201 22.152 8.86001 22.152C8.98801 22.152 9.10801 22.104 9.22001 22.016C9.33201 21.92 9.40401 21.792 9.43601 21.632L11.356 14.488C11.404 14.304 11.388 14.128 11.3 13.976C11.212 13.824 11.076 13.712 10.9 13.656C10.8145 13.627 10.7236 13.617 10.6338 13.6266C10.544 13.6363 10.4574 13.6654 10.38 13.712C10.22 13.8 10.108 13.936 10.06 14.12L8.14001 21.264C8.12401 21.384 8.11601 21.456 8.11601 21.464V21.464ZM8.45201 3.67999C8.45201 3.87199 8.51601 4.03199 8.65201 4.16799L9.17201 4.69599C9.32401 4.81599 9.49201 4.87199 9.66801 4.87199C9.83601 4.87199 9.99601 4.80799 10.132 4.68799C10.268 4.55999 10.34 4.40799 10.34 4.21599C10.34 4.02399 10.276 3.84799 10.148 3.70399L9.63601 3.18399C9.57187 3.11959 9.49552 3.06863 9.41143 3.0341C9.32735 2.99958 9.23722 2.98218 9.14633 2.98292C9.05543 2.98367 8.9656 3.00254 8.8821 3.03844C8.79859 3.07434 8.72309 3.12655 8.66001 3.19199C8.52401 3.32799 8.45201 3.49599 8.45201 3.67999V3.67999ZM11.436 19.016C11.4367 19.1603 11.4849 19.3003 11.5731 19.4145C11.6613 19.5287 11.7846 19.6108 11.924 19.648C12.012 19.664 12.084 19.68 12.124 19.68C12.26 19.68 12.396 19.64 12.516 19.56C12.636 19.48 12.716 19.352 12.756 19.168L14.02 14.464C14.0451 14.3794 14.0532 14.2907 14.0438 14.203C14.0344 14.1153 14.0078 14.0303 13.9654 13.953C13.923 13.8756 13.8657 13.8074 13.7968 13.7523C13.7279 13.6972 13.6488 13.6563 13.564 13.632C13.4785 13.6028 13.3876 13.5926 13.2978 13.6023C13.208 13.612 13.1213 13.6412 13.044 13.688C12.966 13.73 12.8979 13.7881 12.8441 13.8584C12.7903 13.9287 12.7521 14.0097 12.732 14.096L11.468 18.824C11.452 18.944 11.436 19.008 11.436 19.016V19.016ZM12.74 7.22399C13.308 6.68799 13.964 6.42399 14.724 6.42399C15.508 6.42399 16.18 6.70399 16.724 7.25599C17.276 7.80799 17.548 8.47999 17.548 9.27199C17.548 9.76799 17.412 10.264 17.132 10.752C16.356 9.97599 15.428 9.59199 14.34 9.59199H14.076C13.8788 8.68631 13.4133 7.86108 12.74 7.22399V7.22399ZM14.036 3.02399C14.036 3.20799 14.1 3.36799 14.236 3.49599C14.372 3.62399 14.532 3.68799 14.724 3.68799C14.908 3.68799 15.068 3.62399 15.196 3.50399C15.324 3.37599 15.388 3.22399 15.388 3.03199V1.38399C15.388 1.17599 15.324 1.00799 15.204 0.879993C15.1429 0.817023 15.0694 0.767437 14.9882 0.734384C14.9069 0.701332 14.8197 0.685534 14.732 0.687993C14.532 0.687993 14.364 0.751993 14.236 0.887993C14.108 1.02399 14.044 1.18399 14.044 1.38399V3.02399H14.036ZM18.46 4.84799C18.46 5.03999 18.532 5.19999 18.676 5.31999C18.788 5.44799 18.932 5.51199 19.116 5.52799C19.3 5.54399 19.468 5.47199 19.612 5.31999L20.764 4.17599C20.908 4.03999 20.972 3.87199 20.972 3.67199C20.972 3.47999 20.908 3.31199 20.772 3.18399C20.7073 3.12139 20.6309 3.0722 20.5472 3.03924C20.4634 3.00629 20.374 2.99023 20.284 2.99199C20.116 2.99199 19.964 3.05599 19.82 3.19199L18.676 4.34399C18.532 4.47999 18.46 4.64799 18.46 4.84799V4.84799ZM19.108 14.328C19.108 14.52 19.172 14.688 19.3 14.832L19.82 15.336C19.964 15.448 20.124 15.504 20.3 15.504L20.316 15.52C20.5 15.52 20.652 15.456 20.78 15.328C20.908 15.2 20.972 15.032 20.972 14.84C20.972 14.648 20.9 14.496 20.764 14.376L20.268 13.848C20.124 13.72 19.956 13.656 19.772 13.656C19.588 13.656 19.428 13.72 19.3 13.856C19.172 13.992 19.108 14.136 19.108 14.328V14.328ZM20.276 9.26399C20.276 9.45599 20.348 9.60799 20.484 9.73599C20.628 9.87999 20.788 9.94399 20.98 9.94399H22.604C22.796 9.94399 22.956 9.87999 23.092 9.74399C23.228 9.60799 23.292 9.44799 23.292 9.26399C23.292 9.07199 23.228 8.91199 23.092 8.77599C22.956 8.63999 22.796 8.56799 22.604 8.56799H20.98C20.8877 8.56803 20.7963 8.58644 20.7111 8.62215C20.6259 8.65786 20.5488 8.71015 20.484 8.77599C20.34 8.91199 20.276 9.07199 20.276 9.26399V9.26399Z"
    fill="#0f172a" />
</svg>
