<svg width="24" height="24" viewBox="0 0 24 24" fill="none" xmlns="http://www.w3.org/2000/svg">
  <path
    d="M3.71204 13.528C3.71204 12.608 4.00004 11.792 4.57604 11.072C5.12306 10.3731 5.89445 9.88426 6.76004 9.68803C7.00804 8.60003 7.57604 7.70403 8.44804 7.00003C9.32004 6.29603 10.32 5.95203 11.448 5.95203C12.552 5.95203 13.528 6.29603 14.392 6.97603C15.256 7.65603 15.816 8.53603 16.072 9.60803H16.328C17.04 9.60803 17.704 9.78403 18.312 10.128C18.92 10.472 19.408 10.952 19.76 11.552C20.112 12.152 20.296 12.816 20.296 13.528C20.296 14.232 20.128 14.88 19.792 15.48C19.456 16.08 18.992 16.56 18.408 16.92C17.824 17.28 17.184 17.472 16.488 17.488C16.384 17.488 16.328 17.44 16.328 17.352V16.288C16.328 16.192 16.384 16.144 16.488 16.144C17.168 16.112 17.752 15.84 18.232 15.328C18.712 14.816 18.952 14.216 18.952 13.52C18.952 12.824 18.688 12.224 18.168 11.712C17.648 11.2 17.032 10.944 16.32 10.944H15.032C14.936 10.944 14.888 10.896 14.888 10.808L14.824 10.344C14.7474 9.50482 14.3489 8.72786 13.712 8.17603C13.056 7.59203 12.304 7.30403 11.432 7.30403C10.56 7.30403 9.79204 7.59203 9.15204 8.17603C8.52029 8.72898 8.12981 9.50705 8.06404 10.344L8.00804 10.768C8.00804 10.864 7.95204 10.92 7.84804 10.92L7.42404 10.944C6.76004 11.024 6.20004 11.312 5.74404 11.8C5.28804 12.288 5.06404 12.864 5.06404 13.528C5.06404 14.224 5.30404 14.824 5.78404 15.336C6.26404 15.848 6.84804 16.12 7.52804 16.152C7.61604 16.152 7.66404 16.2 7.66404 16.296V17.36C7.66404 17.448 7.61604 17.496 7.52804 17.496C6.45604 17.448 5.55204 17.04 4.80804 16.272C4.06404 15.504 3.71204 14.592 3.71204 13.528V13.528ZM7.99204 18.88C7.99204 18.848 8.00004 18.792 8.02404 18.72L9.32804 14.104C9.37939 13.9381 9.4932 13.7986 9.64545 13.715C9.7977 13.6314 9.97648 13.6103 10.144 13.656C10.336 13.688 10.48 13.792 10.576 13.952C10.672 14.112 10.696 14.288 10.64 14.488L9.33604 19.072C9.24004 19.416 9.01604 19.584 8.68004 19.584C8.64804 19.584 8.62404 19.576 8.59204 19.568C8.54404 19.552 8.52004 19.544 8.51204 19.544C8.35344 19.507 8.21396 19.4131 8.12004 19.28C8.03835 19.1625 7.99376 19.0232 7.99204 18.88V18.88ZM10.088 21.128L12.04 14.112C12.072 13.96 12.152 13.84 12.28 13.76C12.408 13.68 12.536 13.64 12.672 13.64C12.744 13.64 12.816 13.648 12.888 13.664C13.064 13.712 13.192 13.816 13.28 13.976C13.368 14.136 13.384 14.304 13.336 14.488L11.392 21.512C11.36 21.648 11.288 21.76 11.16 21.856C11.032 21.952 10.904 22 10.752 22C10.68 22 10.608 21.984 10.552 21.96C10.392 21.92 10.256 21.816 10.136 21.648C10.048 21.504 10.032 21.336 10.088 21.128ZM13.392 18.896C13.392 18.864 13.4 18.808 13.424 18.712L14.728 14.096C14.7672 13.9555 14.8515 13.8318 14.968 13.744C15.088 13.664 15.208 13.624 15.336 13.624C15.4 13.624 15.472 13.632 15.544 13.648C15.712 13.696 15.832 13.776 15.912 13.896C15.992 14.016 16.032 14.144 16.032 14.272C16.032 14.296 16.024 14.336 16.016 14.384C16.008 14.432 16 14.464 16 14.48L14.696 19.064C14.664 19.216 14.592 19.344 14.472 19.432C14.352 19.52 14.216 19.568 14.064 19.568L13.872 19.528C13.7228 19.4893 13.5923 19.3985 13.504 19.272C13.4332 19.1592 13.3945 19.0292 13.392 18.896V18.896Z"
    fill="#0f172a" />
</svg>
