<svg width="24" height="24" viewBox="0 0 24 24" fill="none" xmlns="http://www.w3.org/2000/svg">
  <path
    d="M3.27197 13.56C3.27197 12.632 3.55997 11.808 4.13597 11.088C4.71197 10.368 5.44797 9.89597 6.32797 9.69597C6.57597 8.59997 7.13597 7.70397 8.00797 6.99997C8.87997 6.29597 9.88797 5.94397 11.024 5.94397C11.672 5.94397 12.264 6.04797 12.784 6.26397C12.784 6.27197 12.784 6.27197 12.792 6.27997C13.464 6.53597 14.056 6.95197 14.56 7.51997H14.584C15.128 8.10397 15.488 8.79997 15.68 9.61597H15.928C16.792 9.61597 17.544 9.84797 18.192 10.304V10.296C18.616 10.584 18.976 10.936 19.264 11.36C19.552 11.784 19.744 12.248 19.848 12.752C19.88 12.92 19.896 13.056 19.912 13.168V13.216C19.912 13.224 19.912 13.264 19.92 13.352C19.928 13.44 19.928 13.504 19.928 13.544V13.568C19.928 14.272 19.76 14.928 19.416 15.528C19.08 16.128 18.616 16.616 18.024 16.976C17.44 17.336 16.792 17.528 16.088 17.552C15.984 17.552 15.928 17.504 15.928 17.416V16.344C15.928 16.24 15.984 16.192 16.088 16.192C16.776 16.16 17.352 15.888 17.832 15.376C18.312 14.864 18.552 14.264 18.552 13.568C18.552 12.856 18.296 12.248 17.776 11.736C17.5367 11.4885 17.2493 11.2927 16.9315 11.1607C16.6136 11.0286 16.2721 10.963 15.928 10.968H14.64C14.544 10.968 14.496 10.92 14.496 10.832L14.432 10.36C14.352 9.55997 14.016 8.87197 13.416 8.28797C13.408 8.27997 13.408 8.27197 13.4 8.26397C13.392 8.25597 13.384 8.24797 13.384 8.23997C13.376 8.23197 13.368 8.22397 13.352 8.22397C13.352 8.20797 13.344 8.19997 13.336 8.19997C12.7742 7.67847 12.0523 7.36265 11.288 7.30397C11.232 7.29597 11.144 7.29597 11.016 7.29597C10.136 7.29597 9.37597 7.59197 8.72797 8.17597C8.07997 8.75997 7.71197 9.48797 7.63197 10.352L7.56797 10.824C7.54397 10.896 7.47997 10.936 7.39197 10.936L6.99997 10.96C6.32797 11.04 5.75997 11.328 5.31197 11.816C4.86397 12.304 4.63997 12.888 4.63997 13.56V13.592H4.66397C4.67197 13.976 4.75197 14.336 4.90397 14.672C5.06397 15.016 5.27197 15.304 5.54397 15.544C5.71197 15.688 5.90397 15.816 6.13597 15.928V15.936C6.45597 16.088 6.77597 16.176 7.10397 16.192C7.19197 16.192 7.23997 16.24 7.23997 16.336V17.408C7.23997 17.496 7.19197 17.544 7.10397 17.544C6.68797 17.52 6.29597 17.44 5.91997 17.304V17.312C5.25597 17.08 4.68797 16.696 4.23197 16.168C3.77597 15.64 3.47197 15.016 3.34397 14.32V14.296C3.33597 14.288 3.33597 14.28 3.33597 14.264C3.28797 14.056 3.27197 13.816 3.27197 13.56V13.56ZM7.67197 19.296C7.67197 19.272 7.67997 19.24 7.68797 19.192C7.69597 19.152 7.70397 19.12 7.70397 19.096L7.77597 18.624C7.83197 18.432 7.93597 18.296 8.10397 18.2C8.27197 18.104 8.44797 18.088 8.64797 18.136C8.83197 18.192 8.95997 18.304 9.05597 18.464C9.14397 18.632 9.15997 18.8 9.11197 18.968L8.99997 19.448C8.91997 19.8 8.71997 19.976 8.39197 19.976C8.36797 19.976 8.32797 19.968 8.27997 19.96C8.23197 19.952 8.19997 19.944 8.16797 19.944C8.01592 19.9066 7.88412 19.812 7.79997 19.68C7.71641 19.5694 7.67145 19.4345 7.67197 19.296V19.296ZM8.26397 16.944C8.26397 16.752 8.32797 16.6 8.44797 16.472C8.56797 16.344 8.72797 16.288 8.91997 16.288C9.11197 16.288 9.26397 16.352 9.39197 16.472C9.51997 16.592 9.57597 16.752 9.57597 16.944C9.57597 17.128 9.51197 17.28 9.39197 17.408C9.27197 17.536 9.11197 17.592 8.91997 17.592C8.73597 17.592 8.58397 17.528 8.46397 17.4C8.40146 17.3415 8.35149 17.2709 8.31711 17.1925C8.28273 17.1141 8.26465 17.0296 8.26397 16.944ZM9.57597 21.736C9.57597 21.704 9.58397 21.648 9.60797 21.552L9.71197 21.08C9.76797 20.896 9.87997 20.76 10.04 20.672C10.208 20.576 10.376 20.56 10.544 20.616C10.728 20.648 10.872 20.752 10.968 20.912C11.064 21.072 11.088 21.256 11.032 21.456L10.928 21.928C10.848 22.256 10.632 22.416 10.288 22.416C10.232 22.416 10.16 22.408 10.096 22.392C9.93738 22.355 9.79789 22.261 9.70397 22.128C9.62482 22.0122 9.58041 21.8762 9.57597 21.736V21.736ZM10.208 19.408C10.205 19.3214 10.22 19.2351 10.252 19.1546C10.2841 19.0741 10.3324 19.0012 10.394 18.9403C10.4557 18.8794 10.5292 18.8319 10.6101 18.8009C10.691 18.7699 10.7774 18.7559 10.864 18.76C11.056 18.76 11.208 18.824 11.336 18.944C11.464 19.072 11.52 19.224 11.52 19.408C11.52 19.6 11.456 19.752 11.336 19.88C11.208 20.008 11.056 20.064 10.864 20.064C10.68 20.064 10.528 20 10.4 19.872C10.3378 19.812 10.2886 19.7398 10.2556 19.66C10.2225 19.5802 10.2063 19.4944 10.208 19.408V19.408ZM10.704 17.592C10.704 17.512 10.712 17.44 10.728 17.376L10.912 16.656C10.968 16.472 11.08 16.328 11.24 16.232C11.408 16.136 11.576 16.112 11.752 16.168C11.944 16.224 12.08 16.328 12.176 16.488C12.272 16.648 12.288 16.816 12.232 16.992L12.024 17.712C11.96 17.936 11.848 18.08 11.696 18.16C11.544 18.24 11.368 18.256 11.184 18.208C11.1104 18.1958 11.0402 18.1681 10.9781 18.1267C10.9161 18.0853 10.8635 18.0312 10.824 17.968C10.739 17.8617 10.6963 17.7278 10.704 17.592V17.592ZM12.912 19.304C12.912 19.28 12.912 19.24 12.92 19.2C12.928 19.16 12.928 19.128 12.928 19.112L13 18.64C13.056 18.448 13.16 18.312 13.328 18.216C13.496 18.12 13.672 18.104 13.872 18.152C14.056 18.208 14.192 18.32 14.28 18.48C14.376 18.648 14.392 18.816 14.336 18.984L14.224 19.464C14.144 19.816 13.944 19.992 13.616 19.992C13.592 19.992 13.552 19.984 13.504 19.976C13.456 19.968 13.416 19.96 13.392 19.96C13.2431 19.9202 13.1146 19.826 13.032 19.696C12.9586 19.5779 12.9172 19.4428 12.912 19.304V19.304ZM13.504 16.952C13.504 16.76 13.568 16.608 13.688 16.48C13.816 16.352 13.968 16.296 14.16 16.296C14.352 16.296 14.504 16.36 14.632 16.48C14.76 16.608 14.816 16.76 14.816 16.952C14.819 17.0379 14.8043 17.1235 14.7728 17.2035C14.7413 17.2835 14.6937 17.3561 14.6329 17.4169C14.5721 17.4777 14.4995 17.5253 14.4195 17.5568C14.3395 17.5883 14.2539 17.603 14.168 17.6C13.976 17.6 13.824 17.536 13.704 17.408C13.6402 17.3505 13.5894 17.2801 13.5549 17.2015C13.5204 17.1229 13.503 17.0378 13.504 16.952V16.952Z"
    fill="#0f172a" />
</svg>
