<svg width="25" height="24" viewBox="0 0 25 24" fill="none" xmlns="http://www.w3.org/2000/svg">
  <path
    d="M3.77197 13.56C3.77197 12.632 4.05997 11.808 4.63597 11.088C5.21197 10.368 5.94797 9.89597 6.82797 9.69597C7.07597 8.59997 7.63597 7.70397 8.50797 6.99997C9.37997 6.29597 10.388 5.94397 11.524 5.94397C12.172 5.94397 12.764 6.04797 13.284 6.26397C13.284 6.27197 13.284 6.27197 13.292 6.27997C13.964 6.53597 14.556 6.95197 15.06 7.51997H15.084C15.628 8.10397 15.988 8.79997 16.18 9.61597H16.428C17.292 9.61597 18.044 9.84797 18.692 10.304V10.296C19.116 10.584 19.476 10.936 19.764 11.36C20.052 11.784 20.244 12.248 20.348 12.752C20.38 12.92 20.396 13.056 20.412 13.168V13.216C20.412 13.224 20.412 13.264 20.42 13.352C20.428 13.44 20.428 13.504 20.428 13.544V13.568C20.428 14.272 20.26 14.928 19.916 15.528C19.58 16.128 19.116 16.616 18.524 16.976C17.94 17.336 17.292 17.528 16.588 17.552C16.484 17.552 16.428 17.504 16.428 17.416V16.344C16.428 16.24 16.484 16.192 16.588 16.192C17.276 16.16 17.852 15.888 18.332 15.376C18.812 14.864 19.052 14.264 19.052 13.568C19.052 12.856 18.796 12.248 18.276 11.736C18.0367 11.4885 17.7493 11.2927 17.4315 11.1607C17.1136 11.0286 16.7721 10.963 16.428 10.968H15.14C15.044 10.968 14.996 10.92 14.996 10.832L14.932 10.36C14.852 9.55997 14.516 8.87197 13.916 8.28797C13.908 8.27997 13.908 8.27197 13.9 8.26397C13.892 8.25597 13.884 8.24797 13.884 8.23997C13.876 8.23197 13.868 8.22397 13.852 8.22397C13.852 8.20797 13.844 8.19997 13.836 8.19997C13.2742 7.67847 12.5523 7.36265 11.788 7.30397C11.732 7.29597 11.644 7.29597 11.516 7.29597C10.636 7.29597 9.87597 7.59197 9.22797 8.17597C8.57997 8.75997 8.21197 9.48797 8.13197 10.352L8.06797 10.824C8.04397 10.896 7.97997 10.936 7.89197 10.936L7.49997 10.96C6.82797 11.04 6.25997 11.328 5.81197 11.816C5.36397 12.304 5.13997 12.888 5.13997 13.56V13.592H5.16397C5.17197 13.976 5.25197 14.336 5.40397 14.672C5.56397 15.016 5.77197 15.304 6.04397 15.544C6.21197 15.688 6.40397 15.816 6.63597 15.928V15.936C6.95597 16.088 7.27597 16.176 7.60397 16.192C7.69197 16.192 7.73997 16.24 7.73997 16.336V17.408C7.73997 17.496 7.69197 17.544 7.60397 17.544C7.18797 17.52 6.79597 17.44 6.41997 17.304V17.312C5.75597 17.08 5.18797 16.696 4.73197 16.168C4.27597 15.64 3.97197 15.016 3.84397 14.32V14.296C3.83597 14.288 3.83597 14.28 3.83597 14.264C3.78797 14.056 3.77197 13.816 3.77197 13.56V13.56ZM8.17197 19.296C8.17197 19.272 8.17997 19.24 8.18797 19.192C8.19597 19.152 8.20397 19.12 8.20397 19.096L8.27597 18.624C8.33197 18.432 8.43597 18.296 8.60397 18.2C8.77197 18.104 8.94797 18.088 9.14797 18.136C9.33197 18.192 9.45997 18.304 9.55597 18.464C9.64397 18.632 9.65997 18.8 9.61197 18.968L9.49997 19.448C9.41997 19.8 9.21997 19.976 8.89197 19.976C8.86797 19.976 8.82797 19.968 8.77997 19.96C8.73197 19.952 8.69997 19.944 8.66797 19.944C8.51592 19.9066 8.38412 19.812 8.29997 19.68C8.21641 19.5694 8.17145 19.4345 8.17197 19.296V19.296ZM8.76397 16.944C8.76397 16.752 8.82797 16.6 8.94797 16.472C9.06797 16.344 9.22797 16.288 9.41997 16.288C9.61197 16.288 9.76397 16.352 9.89197 16.472C10.02 16.592 10.076 16.752 10.076 16.944C10.076 17.128 10.012 17.28 9.89197 17.408C9.77197 17.536 9.61197 17.592 9.41997 17.592C9.23597 17.592 9.08397 17.528 8.96397 17.4C8.90146 17.3415 8.85149 17.2709 8.81711 17.1925C8.78273 17.1141 8.76465 17.0296 8.76397 16.944ZM10.076 21.736C10.076 21.704 10.084 21.648 10.108 21.552L10.212 21.08C10.268 20.896 10.38 20.76 10.54 20.672C10.708 20.576 10.876 20.56 11.044 20.616C11.228 20.648 11.372 20.752 11.468 20.912C11.564 21.072 11.588 21.256 11.532 21.456L11.428 21.928C11.348 22.256 11.132 22.416 10.788 22.416C10.732 22.416 10.66 22.408 10.596 22.392C10.4374 22.355 10.2979 22.261 10.204 22.128C10.1248 22.0122 10.0804 21.8762 10.076 21.736V21.736ZM10.708 19.408C10.705 19.3214 10.72 19.2351 10.752 19.1546C10.7841 19.0741 10.8324 19.0012 10.894 18.9403C10.9557 18.8794 11.0292 18.8319 11.1101 18.8009C11.191 18.7699 11.2774 18.7559 11.364 18.76C11.556 18.76 11.708 18.824 11.836 18.944C11.964 19.072 12.02 19.224 12.02 19.408C12.02 19.6 11.956 19.752 11.836 19.88C11.708 20.008 11.556 20.064 11.364 20.064C11.18 20.064 11.028 20 10.9 19.872C10.8378 19.812 10.7886 19.7398 10.7556 19.66C10.7225 19.5802 10.7063 19.4944 10.708 19.408V19.408ZM11.204 17.592C11.204 17.512 11.212 17.44 11.228 17.376L11.412 16.656C11.468 16.472 11.58 16.328 11.74 16.232C11.908 16.136 12.076 16.112 12.252 16.168C12.444 16.224 12.58 16.328 12.676 16.488C12.772 16.648 12.788 16.816 12.732 16.992L12.524 17.712C12.46 17.936 12.348 18.08 12.196 18.16C12.044 18.24 11.868 18.256 11.684 18.208C11.6104 18.1958 11.5402 18.1681 11.4781 18.1267C11.4161 18.0853 11.3635 18.0312 11.324 17.968C11.239 17.8617 11.1963 17.7278 11.204 17.592V17.592ZM13.412 19.304C13.412 19.28 13.412 19.24 13.42 19.2C13.428 19.16 13.428 19.128 13.428 19.112L13.5 18.64C13.556 18.448 13.66 18.312 13.828 18.216C13.996 18.12 14.172 18.104 14.372 18.152C14.556 18.208 14.692 18.32 14.78 18.48C14.876 18.648 14.892 18.816 14.836 18.984L14.724 19.464C14.644 19.816 14.444 19.992 14.116 19.992C14.092 19.992 14.052 19.984 14.004 19.976C13.956 19.968 13.916 19.96 13.892 19.96C13.7431 19.9202 13.6146 19.826 13.532 19.696C13.4586 19.5779 13.4172 19.4428 13.412 19.304V19.304ZM14.004 16.952C14.004 16.76 14.068 16.608 14.188 16.48C14.316 16.352 14.468 16.296 14.66 16.296C14.852 16.296 15.004 16.36 15.132 16.48C15.26 16.608 15.316 16.76 15.316 16.952C15.319 17.0379 15.3043 17.1235 15.2728 17.2035C15.2413 17.2835 15.1937 17.3561 15.1329 17.4169C15.0721 17.4777 14.9995 17.5253 14.9195 17.5568C14.8395 17.5883 14.7539 17.603 14.668 17.6C14.476 17.6 14.324 17.536 14.204 17.408C14.1402 17.3505 14.0894 17.2801 14.0549 17.2015C14.0204 17.1229 14.003 17.0378 14.004 16.952V16.952Z"
    fill="#0f172a" />
</svg>
