<svg width="24" height="24" viewBox="0 0 24 24" fill="none" xmlns="http://www.w3.org/2000/svg">
  <path
    d="M1.18408 13.56C1.18408 14.616 1.55208 15.528 2.28008 16.28C3.00808 17.032 3.91208 17.44 4.98408 17.488C5.08008 17.488 5.12808 17.44 5.12808 17.352V16.288C5.12808 16.192 5.08008 16.144 4.98408 16.144C4.29608 16.112 3.72008 15.84 3.24808 15.344C2.77608 14.848 2.54408 14.248 2.54408 13.552C2.54408 12.88 2.76808 12.288 3.21608 11.8C3.66408 11.304 4.22408 11.032 4.89608 10.976L5.32008 10.912C5.40808 10.912 5.44808 10.872 5.44808 10.8L5.51208 10.36C5.60808 9.48798 5.98408 8.75998 6.61608 8.18398C7.24808 7.60798 8.00008 7.32798 8.88008 7.32798C9.76008 7.32798 10.5201 7.61598 11.1681 8.19198C11.8241 8.76798 12.1921 9.48798 12.2721 10.344L12.3281 10.808C12.3441 10.896 12.4081 10.944 12.5041 10.944H13.7841C14.4961 10.944 15.1041 11.2 15.6161 11.712C16.1281 12.224 16.3841 12.84 16.3841 13.56C16.3841 14.256 16.1521 14.848 15.6801 15.352C15.2081 15.856 14.6321 16.112 13.9441 16.152C13.8401 16.152 13.7841 16.2 13.7841 16.296V17.36C13.7841 17.448 13.8401 17.496 13.9441 17.496C15.0081 17.464 15.9041 17.064 16.6401 16.304C17.3681 15.544 17.7361 14.632 17.7361 13.568C17.7361 13.024 17.6321 12.496 17.4321 11.96C18.0561 11.192 18.3601 10.296 18.3601 9.27998C18.3601 8.71198 18.2481 8.17598 18.0321 7.65598C17.8161 7.13598 17.5121 6.69598 17.1361 6.31998C16.7601 5.94398 16.3121 5.64798 15.8001 5.42398C15.2881 5.19998 14.7361 5.08798 14.1681 5.08798C12.9361 5.08798 11.9041 5.55198 11.0801 6.47998C10.3681 6.12798 9.63208 5.95198 8.88808 5.95198C7.76008 5.95198 6.76008 6.30398 5.89608 6.99998C5.03208 7.69598 4.48008 8.59998 4.23208 9.70398C3.33608 9.91198 2.60008 10.368 2.03208 11.088C1.46408 11.808 1.18408 12.632 1.18408 13.56V13.56ZM5.46408 19.184C5.46408 19.32 5.50408 19.456 5.59208 19.592C5.68008 19.728 5.80808 19.816 5.96808 19.872C6.15208 19.928 6.32808 19.92 6.48008 19.84C6.64008 19.768 6.74408 19.616 6.80008 19.392L6.91208 18.904C6.95208 18.72 6.92808 18.552 6.83208 18.4C6.74016 18.2434 6.591 18.1287 6.41608 18.08C6.23208 18.024 6.06408 18.048 5.90408 18.144C5.74408 18.24 5.64808 18.376 5.60008 18.56L5.48808 19.032C5.47208 19.08 5.46408 19.128 5.46408 19.184V19.184ZM6.08008 16.864C6.08008 17.04 6.14408 17.192 6.27208 17.32C6.40008 17.464 6.55208 17.528 6.72008 17.528C6.91208 17.528 7.07208 17.464 7.20008 17.336C7.33608 17.208 7.40008 17.056 7.40008 16.864C7.40008 16.68 7.33608 16.52 7.20008 16.392C7.07174 16.2671 6.89917 16.198 6.72008 16.2C6.53608 16.2 6.38408 16.264 6.25608 16.384C6.12808 16.504 6.08008 16.68 6.08008 16.864V16.864ZM6.56808 15.048C6.56008 15.176 6.59208 15.296 6.67208 15.408C6.75208 15.528 6.88008 15.608 7.05608 15.664C7.13829 15.6884 7.22456 15.696 7.30977 15.6863C7.39497 15.6767 7.47737 15.6501 7.55208 15.608C7.72008 15.52 7.83208 15.384 7.88808 15.2L8.10408 14.48C8.16008 14.288 8.14408 14.112 8.04808 13.96C7.94851 13.8053 7.79424 13.6939 7.61608 13.648C7.5332 13.6192 7.44495 13.6093 7.35775 13.619C7.27056 13.6287 7.18663 13.6577 7.11208 13.704C6.95432 13.7889 6.83645 13.9326 6.78408 14.104L6.59208 14.84C6.57608 14.968 6.56808 15.04 6.56808 15.048V15.048ZM7.48808 21.68C7.48808 21.816 7.52808 21.944 7.61608 22.072C7.70408 22.2 7.83208 22.288 8.00808 22.336C8.08008 22.352 8.14408 22.36 8.20008 22.36C8.54408 22.36 8.76008 22.2 8.84008 21.872L8.94408 21.4C8.99208 21.192 8.96808 21.016 8.88008 20.856C8.79208 20.696 8.64808 20.6 8.46408 20.56C8.38113 20.5316 8.29295 20.5219 8.20582 20.5316C8.11869 20.5413 8.03478 20.5701 7.96008 20.616C7.79208 20.712 7.68808 20.848 7.63208 21.024L7.52008 21.504C7.49608 21.592 7.48808 21.656 7.48808 21.68V21.68ZM7.93608 3.72798C7.93608 3.91998 8.00008 4.07998 8.12808 4.20798L8.65608 4.71998C8.76808 4.84798 8.91208 4.91198 9.08808 4.92798C9.26408 4.94398 9.43208 4.87198 9.58408 4.71998C9.71208 4.59198 9.77608 4.43198 9.77608 4.24798C9.77608 4.05598 9.71208 3.89598 9.58408 3.76798L9.08008 3.24798C8.95723 3.12254 8.79147 3.04824 8.61608 3.03998C8.43208 3.03998 8.27208 3.10398 8.13608 3.23998C8.00808 3.37598 7.93608 3.53598 7.93608 3.72798V3.72798ZM8.12008 19.36C8.12008 19.544 8.18408 19.696 8.31208 19.824C8.44008 19.952 8.60008 20.016 8.77608 20.016C8.96808 20.016 9.12008 19.952 9.24808 19.832C9.37608 19.704 9.43208 19.552 9.43208 19.36C9.43505 19.2734 9.42005 19.1871 9.38802 19.1067C9.356 19.0262 9.30765 18.9532 9.24602 18.8923C9.18439 18.8314 9.11081 18.784 9.02993 18.7529C8.94905 18.7219 8.86262 18.708 8.77608 18.712C8.58408 18.712 8.43208 18.776 8.30408 18.896C8.17608 19.016 8.12008 19.176 8.12008 19.36V19.36ZM8.61608 17.544C8.60808 17.664 8.64008 17.792 8.72808 17.92C8.80808 18.048 8.92808 18.128 9.08808 18.16C9.27208 18.208 9.44008 18.192 9.60008 18.112C9.76008 18.032 9.86408 17.88 9.92808 17.664L10.1361 16.944C10.1921 16.768 10.1761 16.6 10.0801 16.44C10.0339 16.3614 9.97268 16.2927 9.89993 16.2378C9.82718 16.1829 9.74432 16.1428 9.65608 16.12C9.48008 16.064 9.31208 16.088 9.14408 16.184C8.97608 16.28 8.87208 16.424 8.81608 16.608L8.64008 17.328C8.62408 17.392 8.61608 17.464 8.61608 17.544V17.544ZM10.8241 19.264C10.8241 19.4 10.8641 19.528 10.9441 19.648C11.0241 19.768 11.1441 19.856 11.3121 19.904C11.3361 19.904 11.3761 19.912 11.4241 19.92C11.4721 19.928 11.5121 19.936 11.5361 19.936C11.8641 19.936 12.0641 19.76 12.1441 19.408L12.2561 18.928C12.3121 18.76 12.2961 18.592 12.2001 18.424C12.1124 18.2653 11.9659 18.1475 11.7921 18.096C11.5921 18.048 11.4081 18.064 11.2481 18.16C11.0881 18.256 10.9761 18.392 10.9201 18.584L10.8481 19.056C10.8481 19.064 10.8481 19.096 10.8401 19.144C10.8321 19.2 10.8241 19.232 10.8241 19.264V19.264ZM11.4161 16.896C11.4161 17.08 11.4801 17.232 11.6081 17.352C11.7281 17.48 11.8801 17.544 12.0721 17.544C12.2641 17.544 12.4161 17.48 12.5441 17.36C12.6721 17.232 12.7281 17.08 12.7281 16.896C12.7281 16.704 12.6641 16.552 12.5441 16.424C12.4161 16.296 12.2641 16.24 12.0721 16.24C11.8801 16.24 11.7281 16.304 11.6001 16.424C11.4721 16.544 11.4161 16.704 11.4161 16.896ZM11.9041 15.048C11.9041 15.184 11.9441 15.312 12.0321 15.432C12.1201 15.552 12.2481 15.64 12.4241 15.688C12.4401 15.688 12.4721 15.696 12.5201 15.704C12.5681 15.712 12.6081 15.72 12.6321 15.72C12.7201 15.72 12.8161 15.696 12.9281 15.648C13.0961 15.56 13.2001 15.424 13.2481 15.232L13.4401 14.512C13.4881 14.328 13.4721 14.16 13.3841 14.008C13.2961 13.856 13.1601 13.744 12.9841 13.688C12.9002 13.6595 12.8112 13.6491 12.723 13.6573C12.6347 13.6656 12.5492 13.6924 12.4721 13.736C12.3121 13.824 12.2081 13.952 12.1521 14.144L11.9281 14.872C11.9281 14.888 11.9281 14.912 11.9201 14.96C11.9102 14.9883 11.9048 15.018 11.9041 15.048V15.048ZM12.1841 7.27198C12.7121 6.74398 13.3681 6.47998 14.1601 6.47998C14.9521 6.47998 15.6241 6.75198 16.1761 7.29598C16.7281 7.83998 17.0081 8.49598 17.0081 9.27998C17.0081 9.80798 16.8641 10.312 16.5841 10.784C15.8001 9.99998 14.8641 9.60798 13.7841 9.60798H13.5361C13.3121 8.72798 12.8561 7.95198 12.1841 7.27198V7.27198ZM13.5041 3.06398C13.5041 3.24798 13.5681 3.39998 13.6881 3.52798C13.8081 3.64798 13.9681 3.71198 14.1601 3.71198C14.3521 3.71198 14.5201 3.64798 14.6561 3.52798C14.7921 3.40798 14.8561 3.24798 14.8561 3.06398V1.40798C14.8561 1.22398 14.7841 1.06398 14.6481 0.927984C14.5845 0.863386 14.5085 0.812357 14.4246 0.777981C14.3407 0.743605 14.2507 0.726596 14.1601 0.727984C13.9761 0.727984 13.8161 0.791984 13.6961 0.927984C13.5681 1.06398 13.5121 1.22398 13.5121 1.40798V3.06398H13.5041ZM17.9201 4.87198C17.9201 5.07198 17.9841 5.23198 18.1041 5.35198C18.3921 5.63998 18.7121 5.63998 19.0721 5.35198L20.2161 4.20798C20.3521 4.07198 20.4161 3.90398 20.4161 3.70398C20.4161 3.51198 20.3521 3.35198 20.2161 3.22398C20.154 3.15954 20.0794 3.10853 19.9969 3.07413C19.9143 3.03972 19.8255 3.02266 19.7361 3.02398C19.5521 3.02398 19.3921 3.08798 19.2481 3.21598L18.1041 4.39998C18.0425 4.46171 17.9944 4.53551 17.9627 4.61674C17.9311 4.69797 17.9165 4.78487 17.9201 4.87198V4.87198ZM18.5441 14.352C18.5441 14.536 18.6161 14.696 18.7601 14.824L19.2481 15.328C19.4081 15.456 19.5681 15.52 19.7361 15.52C19.8961 15.52 20.0561 15.456 20.2161 15.328C20.3521 15.2 20.4161 15.048 20.4161 14.856C20.4161 14.672 20.3521 14.512 20.2161 14.36L19.6961 13.872C19.5761 13.736 19.4241 13.672 19.2401 13.672C19.0561 13.672 18.8961 13.736 18.7601 13.872C18.6921 13.9321 18.6377 14.006 18.6005 14.0887C18.5632 14.1715 18.544 14.2612 18.5441 14.352ZM19.7281 9.27998C19.7281 9.47198 19.8001 9.62398 19.9361 9.75198C20.0801 9.89598 20.2481 9.96798 20.4321 9.96798H22.0561C22.2401 9.96798 22.4001 9.90398 22.5281 9.76798C22.6561 9.63198 22.7201 9.47198 22.7201 9.27998C22.7201 9.08798 22.6561 8.92798 22.5281 8.79998C22.4686 8.73446 22.3956 8.68264 22.3141 8.64811C22.2326 8.61358 22.1445 8.59716 22.0561 8.59998H20.4321C20.2401 8.59998 20.0801 8.66398 19.9361 8.79998C19.7921 8.93598 19.7281 9.09598 19.7281 9.27998Z"
    fill="#0f172a" />
</svg>
