<svg width="24" height="24" viewBox="0 0 24 24" fill="none" xmlns="http://www.w3.org/2000/svg">
  <path
    d="M1.20801 13.512C1.20801 14.576 1.57601 15.496 2.32001 16.264C3.06401 17.032 3.96801 17.44 5.04801 17.488C5.13601 17.488 5.18401 17.44 5.18401 17.352V16.28C5.18401 16.192 5.13601 16.144 5.04801 16.144C4.36001 16.112 3.77601 15.832 3.29601 15.32C2.81601 14.808 2.57601 14.2 2.57601 13.512C2.57601 12.856 2.80001 12.28 3.25601 11.784C3.71201 11.288 4.27201 11.008 4.93601 10.928L5.36001 10.888C5.46401 10.888 5.52001 10.84 5.52001 10.752L5.57601 10.32C5.66401 9.45599 6.02401 8.72799 6.67201 8.14399C7.32001 7.55999 8.08001 7.26399 8.95201 7.26399C9.82401 7.26399 10.584 7.55999 11.24 8.14399C11.896 8.72799 12.264 9.45599 12.36 10.32L12.416 10.776C12.416 10.872 12.464 10.928 12.552 10.928H13.848C14.56 10.928 15.168 11.184 15.688 11.696C16.208 12.208 16.464 12.808 16.464 13.512C16.464 14.208 16.224 14.808 15.744 15.32C15.264 15.832 14.68 16.104 14 16.144C13.904 16.144 13.848 16.192 13.848 16.28V17.352C13.848 17.44 13.896 17.488 14 17.488C15.064 17.456 15.968 17.048 16.712 16.28C17.456 15.504 17.824 14.584 17.824 13.52C17.824 12.944 17.712 12.408 17.488 11.912C18.112 11.136 18.424 10.256 18.424 9.26399C18.424 8.50399 18.232 7.79999 17.856 7.15199C17.48 6.50399 16.968 5.99199 16.32 5.61599C15.672 5.23999 14.976 5.05599 14.224 5.05599C12.976 5.05599 11.944 5.51999 11.12 6.44799C10.464 6.09599 9.74401 5.91999 8.95201 5.91999C7.82401 5.91999 6.81601 6.27199 5.94401 6.97599C5.07201 7.67999 4.51201 8.57599 4.26401 9.66399C3.37601 9.87199 2.64801 10.336 2.07201 11.056C1.49601 11.776 1.20801 12.592 1.20801 13.512V13.512ZM5.52801 19C5.52801 19.136 5.56801 19.264 5.65601 19.392C5.74401 19.52 5.87201 19.608 6.04801 19.656C6.13601 19.672 6.20801 19.688 6.26401 19.688C6.57601 19.688 6.78401 19.52 6.88001 19.176L8.14401 14.472C8.20001 14.28 8.17601 14.104 8.08001 13.936C8.03601 13.8573 7.97521 13.7892 7.90193 13.7367C7.82864 13.6841 7.74468 13.6484 7.65601 13.632C7.57312 13.6032 7.48487 13.5934 7.39768 13.603C7.31049 13.6127 7.22656 13.6418 7.15201 13.688C6.99201 13.776 6.88001 13.912 6.82401 14.096L5.56001 18.824C5.54401 18.928 5.52801 18.984 5.52801 19V19ZM7.61601 21.464C7.61601 21.616 7.65601 21.752 7.73601 21.88C7.81601 22.008 7.95201 22.088 8.15201 22.12C8.24001 22.136 8.31201 22.152 8.36001 22.152C8.48801 22.152 8.60801 22.104 8.72001 22.016C8.83201 21.92 8.90401 21.792 8.93601 21.632L10.856 14.488C10.904 14.304 10.888 14.128 10.8 13.976C10.712 13.824 10.576 13.712 10.4 13.656C10.3145 13.627 10.2236 13.617 10.1338 13.6266C10.044 13.6363 9.95741 13.6654 9.88001 13.712C9.72001 13.8 9.60801 13.936 9.56001 14.12L7.64001 21.264C7.62401 21.384 7.61601 21.456 7.61601 21.464V21.464ZM7.95201 3.67999C7.95201 3.87199 8.01601 4.03199 8.15201 4.16799L8.67201 4.69599C8.82401 4.81599 8.99201 4.87199 9.16801 4.87199C9.33601 4.87199 9.49601 4.80799 9.63201 4.68799C9.76801 4.55999 9.84001 4.40799 9.84001 4.21599C9.84001 4.02399 9.77601 3.84799 9.64801 3.70399L9.13601 3.18399C9.07187 3.11959 8.99552 3.06863 8.91143 3.0341C8.82735 2.99958 8.73722 2.98218 8.64633 2.98292C8.55543 2.98367 8.4656 3.00254 8.3821 3.03844C8.29859 3.07434 8.22309 3.12655 8.16001 3.19199C8.02401 3.32799 7.95201 3.49599 7.95201 3.67999V3.67999ZM10.936 19.016C10.9367 19.1603 10.9849 19.3003 11.0731 19.4145C11.1613 19.5287 11.2846 19.6108 11.424 19.648C11.512 19.664 11.584 19.68 11.624 19.68C11.76 19.68 11.896 19.64 12.016 19.56C12.136 19.48 12.216 19.352 12.256 19.168L13.52 14.464C13.5451 14.3794 13.5532 14.2907 13.5438 14.203C13.5344 14.1153 13.5078 14.0303 13.4654 13.953C13.423 13.8756 13.3657 13.8074 13.2968 13.7523C13.2279 13.6972 13.1488 13.6563 13.064 13.632C12.9785 13.6028 12.8876 13.5926 12.7978 13.6023C12.708 13.612 12.6213 13.6412 12.544 13.688C12.466 13.73 12.3979 13.7881 12.3441 13.8584C12.2903 13.9287 12.2521 14.0097 12.232 14.096L10.968 18.824C10.952 18.944 10.936 19.008 10.936 19.016V19.016ZM12.24 7.22399C12.808 6.68799 13.464 6.42399 14.224 6.42399C15.008 6.42399 15.68 6.70399 16.224 7.25599C16.776 7.80799 17.048 8.47999 17.048 9.27199C17.048 9.76799 16.912 10.264 16.632 10.752C15.856 9.97599 14.928 9.59199 13.84 9.59199H13.576C13.3788 8.68631 12.9133 7.86108 12.24 7.22399V7.22399ZM13.536 3.02399C13.536 3.20799 13.6 3.36799 13.736 3.49599C13.872 3.62399 14.032 3.68799 14.224 3.68799C14.408 3.68799 14.568 3.62399 14.696 3.50399C14.824 3.37599 14.888 3.22399 14.888 3.03199V1.38399C14.888 1.17599 14.824 1.00799 14.704 0.879993C14.6429 0.817023 14.5694 0.767437 14.4882 0.734384C14.4069 0.701332 14.3197 0.685534 14.232 0.687993C14.032 0.687993 13.864 0.751993 13.736 0.887993C13.608 1.02399 13.544 1.18399 13.544 1.38399V3.02399H13.536ZM17.96 4.84799C17.96 5.03999 18.032 5.19999 18.176 5.31999C18.288 5.44799 18.432 5.51199 18.616 5.52799C18.8 5.54399 18.968 5.47199 19.112 5.31999L20.264 4.17599C20.408 4.03999 20.472 3.87199 20.472 3.67199C20.472 3.47999 20.408 3.31199 20.272 3.18399C20.2073 3.12139 20.1309 3.0722 20.0472 3.03924C19.9634 3.00629 19.874 2.99023 19.784 2.99199C19.616 2.99199 19.464 3.05599 19.32 3.19199L18.176 4.34399C18.032 4.47999 17.96 4.64799 17.96 4.84799V4.84799ZM18.608 14.328C18.608 14.52 18.672 14.688 18.8 14.832L19.32 15.336C19.464 15.448 19.624 15.504 19.8 15.504L19.816 15.52C20 15.52 20.152 15.456 20.28 15.328C20.408 15.2 20.472 15.032 20.472 14.84C20.472 14.648 20.4 14.496 20.264 14.376L19.768 13.848C19.624 13.72 19.456 13.656 19.272 13.656C19.088 13.656 18.928 13.72 18.8 13.856C18.672 13.992 18.608 14.136 18.608 14.328V14.328ZM19.776 9.26399C19.776 9.45599 19.848 9.60799 19.984 9.73599C20.128 9.87999 20.288 9.94399 20.48 9.94399H22.104C22.296 9.94399 22.456 9.87999 22.592 9.74399C22.728 9.60799 22.792 9.44799 22.792 9.26399C22.792 9.07199 22.728 8.91199 22.592 8.77599C22.456 8.63999 22.296 8.56799 22.104 8.56799H20.48C20.3877 8.56803 20.2963 8.58644 20.2111 8.62215C20.1259 8.65786 20.0488 8.71015 19.984 8.77599C19.84 8.91199 19.776 9.07199 19.776 9.26399V9.26399Z"
    fill="#0f172a" />
</svg>
