<svg width="24" height="24" viewBox="0 0 24 24" fill="none" xmlns="http://www.w3.org/2000/svg">
  <path
    d="M1.19189 13.536C1.19189 12.6 1.47989 11.784 2.05589 11.064C2.63189 10.344 3.36789 9.87999 4.24789 9.67199C4.49589 8.57599 5.05589 7.67999 5.92789 6.96799C6.80789 6.26399 7.8079 5.91199 8.9439 5.91199C9.7359 5.91199 10.4639 6.08799 11.1199 6.43999C11.5199 6.01599 11.9919 5.67999 12.5279 5.43999C13.0639 5.19999 13.6239 5.07999 14.1999 5.07999C14.9599 5.07999 15.6639 5.27199 16.3119 5.64799C16.9599 6.02399 17.4719 6.53599 17.8479 7.18399C18.2239 7.83199 18.4159 8.53599 18.4159 9.29599C18.4159 10.28 18.1119 11.16 17.5039 11.928C17.7359 12.416 17.8479 12.952 17.8479 13.544C17.8479 14.248 17.6799 14.904 17.3359 15.504C16.9999 16.104 16.5359 16.592 15.9439 16.952C15.3599 17.32 14.7119 17.512 14.0079 17.528C13.9039 17.528 13.8479 17.48 13.8479 17.384V16.312C13.8479 16.216 13.9039 16.168 14.0079 16.168C14.6959 16.136 15.2719 15.856 15.7519 15.344C16.2319 14.832 16.4719 14.224 16.4719 13.536C16.4719 12.824 16.2159 12.216 15.6959 11.704C15.1759 11.192 14.5679 10.936 13.8479 10.936H12.5599C12.4639 10.936 12.4159 10.888 12.4159 10.8L12.3519 10.328C12.2639 9.46399 11.8879 8.73599 11.2319 8.15199C10.5759 7.56799 9.8079 7.27199 8.9439 7.27199C8.0639 7.27199 7.30389 7.56799 6.65589 8.15199C6.00789 8.73599 5.63989 9.46399 5.55989 10.328L5.50389 10.8C5.47989 10.872 5.41589 10.904 5.32789 10.904L4.91989 10.936C4.24789 11.016 3.67989 11.296 3.23189 11.784C2.78389 12.272 2.55989 12.856 2.55989 13.528V13.568H2.58389C2.59189 14.352 2.88789 14.992 3.47189 15.512C3.64789 15.664 3.84789 15.8 4.06389 15.904V15.92C4.39189 16.072 4.71989 16.152 5.03189 16.168C5.11989 16.168 5.16789 16.216 5.16789 16.304V17.376C5.16789 17.464 5.11989 17.512 5.03189 17.512C4.61589 17.488 4.22389 17.408 3.84789 17.272V17.288C3.18389 17.056 2.61589 16.672 2.15989 16.144C1.70389 15.616 1.39989 14.992 1.27189 14.296V14.264C1.26389 14.256 1.26389 14.248 1.26389 14.24C1.20789 14.032 1.19189 13.8 1.19189 13.536V13.536ZM5.59189 19.272C5.59189 19.248 5.59989 19.216 5.60789 19.168C5.61589 19.128 5.62389 19.096 5.62389 19.072L5.69589 18.6C5.75189 18.408 5.85589 18.272 6.02389 18.176C6.18389 18.08 6.36789 18.064 6.56789 18.112C6.75189 18.168 6.8799 18.272 6.9759 18.44C7.0639 18.6 7.07989 18.768 7.03189 18.936L6.91989 19.416C6.83989 19.768 6.63989 19.944 6.31189 19.944C6.28789 19.944 6.24789 19.944 6.19189 19.936C6.13589 19.928 6.10389 19.928 6.08789 19.928C5.93584 19.8906 5.80405 19.796 5.71989 19.664C5.6362 19.5505 5.59132 19.413 5.59189 19.272V19.272ZM6.18389 16.92C6.18389 16.728 6.24789 16.576 6.36789 16.448C6.49589 16.32 6.64789 16.264 6.83989 16.264C7.03189 16.264 7.1839 16.328 7.3119 16.448C7.4399 16.576 7.49589 16.728 7.49589 16.92C7.49589 17.104 7.4319 17.256 7.3119 17.384C7.1919 17.512 7.03189 17.568 6.83989 17.568C6.65589 17.568 6.50389 17.504 6.38389 17.376C6.31994 17.3187 6.269 17.2483 6.2345 17.1697C6.20001 17.091 6.18275 17.0059 6.18389 16.92ZM7.49589 21.704C7.49589 21.672 7.50389 21.616 7.52789 21.52L7.63189 21.056C7.68789 20.872 7.79989 20.736 7.95989 20.648C8.12789 20.552 8.29589 20.536 8.46389 20.592C8.64789 20.624 8.79189 20.728 8.88789 20.888C8.98389 21.048 9.00789 21.232 8.95189 21.432L8.8479 21.904C8.7679 22.232 8.5519 22.392 8.2079 22.392C8.1679 22.392 8.1039 22.384 8.0159 22.36C7.8573 22.323 7.71781 22.229 7.62389 22.096C7.5413 21.9819 7.49653 21.8448 7.49589 21.704V21.704ZM7.91989 3.69599C7.91989 3.50399 7.98389 3.34399 8.11989 3.21599C8.25589 3.08799 8.42389 3.02399 8.62389 3.02399C8.81589 3.02399 8.97589 3.08799 9.10389 3.21599L9.6079 3.74399C9.7439 3.87999 9.8079 4.03999 9.8079 4.22399C9.8079 4.41599 9.72789 4.59199 9.56789 4.73599C9.40789 4.87999 9.2479 4.94399 9.0799 4.91999C8.91199 4.90337 8.75574 4.82666 8.63989 4.70399L8.11989 4.17599C7.99278 4.04846 7.92094 3.87604 7.91989 3.69599V3.69599ZM8.12789 19.384C8.12493 19.2974 8.13993 19.2112 8.17195 19.1307C8.20398 19.0502 8.25233 18.9772 8.31396 18.9163C8.37559 18.8554 8.44916 18.808 8.53005 18.7769C8.61093 18.7459 8.69736 18.732 8.78389 18.736C8.97589 18.736 9.12789 18.8 9.25589 18.92C9.38389 19.048 9.43989 19.2 9.43989 19.384C9.43989 19.576 9.37589 19.728 9.25589 19.856C9.12789 19.984 8.97589 20.04 8.78389 20.04C8.60789 20.04 8.45589 19.976 8.31989 19.84C8.25846 19.7811 8.20972 19.7103 8.1767 19.6319C8.14368 19.5534 8.12707 19.4691 8.12789 19.384V19.384ZM8.62389 17.568C8.62389 17.496 8.6319 17.424 8.6479 17.36L8.83189 16.64C8.88789 16.456 8.99989 16.312 9.15989 16.216C9.32789 16.12 9.49589 16.096 9.67189 16.152C9.86389 16.208 9.99989 16.312 10.0959 16.472C10.1919 16.632 10.2079 16.792 10.1519 16.968L9.9439 17.688C9.8799 17.904 9.7679 18.056 9.6159 18.144C9.4639 18.232 9.28789 18.24 9.10389 18.192C9.03029 18.1798 8.96012 18.1521 8.89805 18.1107C8.83598 18.0694 8.78343 18.0153 8.7439 17.952C8.6479 17.808 8.60789 17.688 8.62389 17.568V17.568ZM10.8319 19.28C10.8319 19.256 10.8319 19.224 10.8399 19.176C10.8479 19.128 10.8479 19.104 10.8479 19.088L10.9199 18.616C10.9759 18.424 11.0799 18.288 11.2479 18.192C11.4079 18.096 11.5919 18.08 11.7919 18.128C11.9759 18.184 12.1119 18.296 12.1999 18.456C12.2959 18.624 12.3119 18.792 12.2559 18.96L12.1439 19.44C12.0639 19.784 11.8639 19.96 11.5359 19.96C11.5119 19.96 11.4719 19.96 11.4159 19.952C11.3599 19.944 11.3279 19.944 11.3119 19.944C11.163 19.9042 11.0345 19.81 10.9519 19.68C10.8759 19.5602 10.8344 19.4218 10.8319 19.28V19.28ZM11.4239 16.928C11.4239 16.736 11.4879 16.584 11.6079 16.456C11.7359 16.328 11.8879 16.272 12.0799 16.272C12.2719 16.272 12.4239 16.336 12.5519 16.456C12.6799 16.584 12.7359 16.736 12.7359 16.928C12.7389 17.0146 12.7239 17.1008 12.6918 17.1813C12.6598 17.2618 12.6115 17.3348 12.5498 17.3957C12.4882 17.4566 12.4146 17.504 12.3337 17.535C12.2529 17.5661 12.1664 17.58 12.0799 17.576C11.8959 17.576 11.7359 17.512 11.6159 17.376C11.554 17.3192 11.5048 17.2499 11.4717 17.1726C11.4386 17.0954 11.4223 17.012 11.4239 16.928V16.928ZM12.2479 7.23999C12.9199 7.84799 13.3679 8.63199 13.6079 9.58399H13.8559C14.9599 9.58399 15.8959 9.96799 16.6719 10.744C16.9199 10.304 17.0479 9.81599 17.0479 9.28799C17.0479 8.50399 16.7679 7.83999 16.2159 7.28799C15.954 7.02236 15.6412 6.81244 15.2961 6.67083C14.951 6.52923 14.5809 6.45887 14.2079 6.46399C13.4399 6.46399 12.7839 6.71999 12.2479 7.23999ZM13.5279 3.02399V1.38399C13.5279 1.19199 13.5919 1.03199 13.7279 0.895988C13.8639 0.759988 14.0239 0.687988 14.2079 0.687988C14.3999 0.687988 14.5599 0.751988 14.6879 0.887988C14.8159 1.02399 14.8799 1.19199 14.8799 1.38399V3.02399C14.8799 3.21599 14.8159 3.38399 14.6879 3.51999C14.5599 3.65599 14.3999 3.71999 14.2079 3.71999C14.0239 3.71999 13.8639 3.64799 13.7279 3.51199C13.6627 3.44885 13.6113 3.3729 13.5768 3.28892C13.5424 3.20493 13.5257 3.11473 13.5279 3.02399V3.02399ZM17.9919 4.85599C17.9919 4.66399 18.0559 4.50399 18.1759 4.37599L19.3279 3.21599C19.3853 3.15004 19.4568 3.09783 19.5371 3.06321C19.6175 3.02859 19.7045 3.01246 19.7919 3.01599C19.9839 3.01599 20.1439 3.07999 20.2719 3.21599C20.4159 3.34399 20.4799 3.50399 20.4799 3.69599C20.4799 3.88799 20.4079 4.04799 20.2719 4.17599L19.1199 5.34399C19.056 5.4132 18.9779 5.46765 18.8908 5.50358C18.8038 5.5395 18.71 5.55602 18.6159 5.55199C18.5323 5.54865 18.4503 5.52852 18.3747 5.49278C18.2991 5.45704 18.2315 5.40644 18.1759 5.34399C18.0479 5.21599 17.9919 5.05599 17.9919 4.85599V4.85599ZM18.6079 14.384C18.6079 14.192 18.6719 14.032 18.8079 13.896C18.9439 13.76 19.1039 13.696 19.2879 13.696C19.4719 13.696 19.6319 13.768 19.7759 13.904L20.2719 14.408C20.4159 14.544 20.4799 14.712 20.4799 14.896C20.4799 15.088 20.4079 15.248 20.2719 15.376C20.1599 15.512 20.0159 15.584 19.8399 15.584L19.8239 15.568C19.6319 15.568 19.4719 15.504 19.3279 15.376L18.8079 14.864C18.6808 14.7365 18.6089 14.564 18.6079 14.384ZM19.7839 9.28799C19.7839 9.09599 19.8479 8.93599 19.9839 8.80799C20.1199 8.67999 20.2799 8.61599 20.4719 8.61599H22.1199C22.2096 8.61352 22.2988 8.6291 22.3824 8.6618C22.4659 8.69449 22.542 8.74364 22.6062 8.80632C22.6703 8.869 22.7213 8.94394 22.7559 9.02668C22.7906 9.10942 22.8083 9.19828 22.8079 9.28799C22.8079 9.47999 22.7439 9.63999 22.6079 9.77599C22.4719 9.91199 22.3119 9.97599 22.1199 9.97599H20.4719C20.3809 9.97768 20.2907 9.95919 20.2077 9.92184C20.1247 9.88449 20.051 9.82922 19.9919 9.75999C19.9233 9.70261 19.8688 9.63017 19.8327 9.54831C19.7966 9.46644 19.7799 9.37736 19.7839 9.28799V9.28799Z"
    fill="#0f172a" />
</svg>
