<svg width="24" height="24" viewBox="0 0 24 24" fill="none" xmlns="http://www.w3.org/2000/svg">
  <path
    d="M1.26392 13.544C1.26392 14.232 1.43192 14.88 1.77592 15.472C2.11192 16.064 2.57592 16.544 3.16792 16.904C3.75192 17.264 4.39992 17.456 5.08792 17.472C5.17592 17.472 5.22392 17.424 5.22392 17.336V16.272C5.22392 16.176 5.17592 16.12 5.08792 16.12C4.40792 16.088 3.82392 15.816 3.34392 15.304C2.86392 14.792 2.62392 14.208 2.62392 13.536C2.62392 12.88 2.84792 12.304 3.30392 11.808C3.75992 11.32 4.31192 11.032 4.98392 10.952L5.40792 10.904C5.50392 10.904 5.55192 10.856 5.55192 10.752L5.61592 10.344C5.70392 9.47201 6.06392 8.74401 6.70392 8.16001C7.34392 7.57601 8.10392 7.28801 8.98392 7.28801C9.85592 7.28801 10.6159 7.57601 11.2639 8.16001C11.9199 8.74401 12.2879 9.46401 12.3679 10.32L12.4239 10.784C12.4239 10.872 12.4719 10.92 12.5599 10.92H13.8479C14.5679 10.92 15.1839 11.176 15.6959 11.688C16.2079 12.2 16.4639 12.808 16.4639 13.52C16.4639 14.192 16.2239 14.776 15.7439 15.288C15.2639 15.792 14.6799 16.064 14.0079 16.104C13.9119 16.104 13.8559 16.152 13.8559 16.256V17.32C13.8559 17.408 13.9039 17.456 14.0079 17.456C15.0719 17.424 15.9679 17.024 16.7119 16.256C17.4559 15.488 17.8239 14.584 17.8239 13.528C17.8239 12.92 17.7119 12.384 17.4799 11.904C18.0799 11.16 18.3999 10.28 18.3999 9.28001C18.3999 8.52801 18.2159 7.83201 17.8399 7.19201C17.4639 6.55201 16.9519 6.04001 16.3119 5.66401C15.6719 5.28801 14.9679 5.10401 14.2159 5.10401C12.9839 5.10401 11.9519 5.56801 11.1199 6.48801C10.4719 6.13601 9.75192 5.96001 8.96792 5.96001C7.83992 5.96001 6.84792 6.31201 5.97592 7.00801C5.10392 7.70401 4.55192 8.60001 4.30392 9.68001C3.40792 9.90401 2.67992 10.368 2.11192 11.08C1.54392 11.8 1.26392 12.616 1.26392 13.544V13.544ZM6.33592 16.784C6.33592 16.976 6.39992 17.136 6.52792 17.272C6.65592 17.408 6.80792 17.472 6.99992 17.472C7.18392 17.472 7.34392 17.408 7.47192 17.272C7.59992 17.136 7.66392 16.976 7.66392 16.784C7.66392 16.6 7.59992 16.448 7.47192 16.32C7.34392 16.192 7.19192 16.128 6.99992 16.128C6.81592 16.128 6.65592 16.192 6.52792 16.32C6.39992 16.448 6.33592 16.608 6.33592 16.784ZM6.33592 19.688C6.33592 19.856 6.39992 20.008 6.52792 20.144C6.67192 20.272 6.82392 20.336 6.99192 20.336C7.18392 20.336 7.33592 20.272 7.46392 20.152C7.59192 20.024 7.64792 19.872 7.64792 19.688C7.64792 19.496 7.58392 19.344 7.45592 19.216C7.39436 19.1542 7.32059 19.1059 7.23932 19.0742C7.15805 19.0426 7.07106 19.0282 6.98392 19.032C6.8086 19.0294 6.63922 19.0955 6.51192 19.216C6.39992 19.336 6.33592 19.496 6.33592 19.688V19.688ZM7.97592 3.74401C7.97592 3.93601 8.03992 4.09601 8.16792 4.21601L8.69592 4.74401C8.82392 4.87201 8.96792 4.94401 9.11992 4.94401C9.28792 4.96801 9.44792 4.91201 9.60792 4.76801C9.76792 4.62401 9.84792 4.45601 9.84792 4.26401C9.84792 4.07201 9.78392 3.89601 9.65592 3.75201L9.14392 3.26401C9.08648 3.19806 9.01497 3.14585 8.93467 3.11124C8.85436 3.07662 8.7673 3.06048 8.67992 3.06401C8.47992 3.06401 8.31192 3.12801 8.17592 3.26401C8.03992 3.39201 7.97592 3.55201 7.97592 3.74401V3.74401ZM8.87992 18.32C8.87992 18.496 8.94392 18.656 9.07192 18.8C9.19992 18.928 9.35992 18.992 9.53592 18.992C9.72792 18.992 9.88792 18.928 10.0159 18.8C10.1439 18.672 10.2159 18.512 10.2159 18.32C10.2159 18.136 10.1519 17.976 10.0159 17.84C9.87992 17.704 9.71992 17.64 9.53592 17.64C9.35192 17.64 9.19992 17.704 9.07192 17.84C8.94392 17.976 8.87992 18.136 8.87992 18.32ZM8.87992 15.44C8.87992 15.624 8.94392 15.776 9.07192 15.904C9.19992 16.032 9.35992 16.096 9.53592 16.096C9.72792 16.096 9.88792 16.032 10.0159 15.904C10.1519 15.776 10.2159 15.624 10.2159 15.432C10.2159 15.248 10.1519 15.088 10.0159 14.96C9.87992 14.832 9.71992 14.768 9.53592 14.768C9.35192 14.768 9.19992 14.832 9.07192 14.96C8.94392 15.088 8.87992 15.256 8.87992 15.44ZM8.87992 21.248C8.87992 21.424 8.94392 21.576 9.07192 21.704C9.20792 21.84 9.35992 21.904 9.53592 21.904C9.72792 21.904 9.88792 21.84 10.0159 21.72C10.1519 21.592 10.2159 21.44 10.2159 21.248C10.2159 21.056 10.1519 20.896 10.0159 20.768C9.95388 20.7036 9.87926 20.6526 9.79669 20.6182C9.71412 20.5838 9.62536 20.5667 9.53592 20.568C9.35992 20.568 9.20792 20.632 9.07192 20.768C8.94392 20.904 8.87992 21.064 8.87992 21.248ZM11.4559 16.784C11.4559 16.976 11.5199 17.136 11.6479 17.272C11.7759 17.408 11.9359 17.472 12.1199 17.472C12.3039 17.472 12.4639 17.408 12.5919 17.272C12.7199 17.136 12.7839 16.976 12.7839 16.784C12.7839 16.6 12.7199 16.448 12.5919 16.32C12.4639 16.192 12.3119 16.128 12.1199 16.128C11.9279 16.128 11.7759 16.192 11.6479 16.32C11.5199 16.448 11.4559 16.608 11.4559 16.784ZM11.4559 19.688C11.4559 19.856 11.5199 20.008 11.6399 20.144C11.7839 20.272 11.9439 20.336 12.1199 20.336C12.3119 20.336 12.4639 20.272 12.5919 20.152C12.7199 20.024 12.7759 19.872 12.7759 19.688C12.7759 19.496 12.7119 19.344 12.5839 19.216C12.5224 19.1542 12.4486 19.1059 12.3673 19.0742C12.286 19.0426 12.1991 19.0282 12.1119 19.032C11.9199 19.032 11.7599 19.096 11.6319 19.224C11.5199 19.344 11.4559 19.504 11.4559 19.688V19.688ZM12.2399 7.24801C12.7919 6.72001 13.4479 6.45601 14.2159 6.45601C14.9919 6.45601 15.6559 6.73601 16.1999 7.28801C16.7519 7.84001 17.0239 8.51201 17.0239 9.28001C17.0239 9.77601 16.8879 10.272 16.6159 10.752C15.8559 9.98401 14.9279 9.60001 13.8399 9.60001H13.5839C13.3439 8.66401 12.8959 7.88001 12.2399 7.24801V7.24801ZM13.5199 3.07201C13.5199 3.25601 13.5839 3.41601 13.7199 3.53601C13.8559 3.65601 14.0159 3.72001 14.2079 3.72001C14.3999 3.72001 14.5519 3.65601 14.6799 3.53601C14.8079 3.40801 14.8639 3.25601 14.8639 3.07201V1.44001C14.8639 1.24801 14.7999 1.08801 14.6719 0.952014C14.5439 0.816014 14.3999 0.752014 14.2159 0.752014C14.0319 0.752014 13.8719 0.824014 13.7359 0.960014C13.5999 1.09601 13.5279 1.25601 13.5279 1.44001V3.07201H13.5199ZM17.9359 4.88801C17.9359 5.07201 17.9999 5.23201 18.1359 5.36001C18.2559 5.48801 18.4079 5.55201 18.5839 5.56801C18.7599 5.58401 18.9279 5.51201 19.0799 5.36001L20.2239 4.21601C20.3679 4.07201 20.4319 3.91201 20.4319 3.72801C20.4319 3.53601 20.3599 3.37601 20.2239 3.24001C20.1619 3.17557 20.0873 3.12456 20.0047 3.09016C19.9221 3.05575 19.8334 3.03869 19.7439 3.04001C19.5679 3.04001 19.4159 3.10401 19.2799 3.24001L18.1359 4.40801C17.9999 4.53601 17.9359 4.69601 17.9359 4.88801V4.88801ZM18.5759 14.328C18.5759 14.528 18.6399 14.696 18.7679 14.824L19.2799 15.328C19.4719 15.456 19.6479 15.52 19.7919 15.52C19.9599 15.52 20.1039 15.448 20.2399 15.312C20.3759 15.176 20.4399 15.008 20.4399 14.824C20.4399 14.64 20.3679 14.488 20.2319 14.36L19.7359 13.84C19.5919 13.712 19.4319 13.648 19.2479 13.648C19.0639 13.648 18.9039 13.712 18.7759 13.848C18.6399 13.976 18.5759 14.136 18.5759 14.328V14.328ZM19.7359 9.28001C19.7359 9.47201 19.8079 9.62401 19.9439 9.75201C20.0799 9.89601 20.2479 9.96801 20.4399 9.96801H22.0559C22.2399 9.96801 22.3999 9.90401 22.5359 9.76801C22.6719 9.63201 22.7359 9.47201 22.7359 9.28001C22.7359 9.08801 22.6719 8.92801 22.5359 8.80001C22.3999 8.67201 22.2399 8.60001 22.0559 8.60001H20.4399C20.2479 8.60001 20.0879 8.66401 19.9439 8.80001C19.7999 8.93601 19.7359 9.09601 19.7359 9.28001Z"
    fill="#0f172a" />
</svg>
