<svg width="24" height="24" viewBox="0 0 24 24" fill="none" xmlns="http://www.w3.org/2000/svg">
  <path
    d="M1.24805 13.504C1.24805 14.568 1.61605 15.48 2.36005 16.248C3.10405 17.016 4.00805 17.416 5.08005 17.472C5.16805 17.472 5.21605 17.424 5.21605 17.336V16.264C5.21605 16.168 5.16805 16.12 5.08005 16.12C4.40005 16.088 3.82405 15.816 3.34405 15.304C2.86405 14.792 2.63205 14.192 2.63205 13.504C2.63205 12.832 2.85605 12.256 3.30405 11.768C3.75205 11.28 4.31205 11 4.98405 10.92L5.38405 10.888C5.48805 10.888 5.54405 10.84 5.54405 10.744L5.59205 10.32C5.68005 9.45601 6.04005 8.72801 6.68805 8.15201C7.33605 7.56801 8.09605 7.28001 8.97605 7.28001C9.84805 7.28001 10.616 7.56801 11.264 8.15201C11.912 8.73601 12.28 9.45601 12.36 10.32L12.416 10.776C12.416 10.872 12.464 10.92 12.56 10.92H13.896C14.6 10.92 15.2 11.176 15.712 11.688C16.224 12.2 16.48 12.8 16.48 13.504C16.48 14.184 16.24 14.776 15.76 15.28C15.28 15.784 14.704 16.064 14.032 16.12C13.944 16.12 13.896 16.168 13.896 16.264V17.336C13.896 17.424 13.944 17.472 14.032 17.472C14.736 17.456 15.368 17.264 15.952 16.896C16.536 16.528 16.992 16.056 17.32 15.456C17.656 14.856 17.816 14.208 17.816 13.504C17.816 12.936 17.704 12.408 17.488 11.936C18.096 11.184 18.392 10.312 18.392 9.31201C18.392 8.74401 18.28 8.20001 18.064 7.68001C17.848 7.16001 17.544 6.72001 17.168 6.34401C16.789 5.9624 16.3375 5.66047 15.84 5.45601C15.32 5.23201 14.776 5.12801 14.208 5.12801C13 5.12801 11.984 5.56801 11.16 6.45601C10.528 6.11201 9.80005 5.94401 8.97605 5.94401C7.84805 5.94401 6.84805 6.29601 5.97605 6.99201C5.10405 7.68801 4.56005 8.58401 4.32005 9.67201C3.42405 9.88001 2.68005 10.336 2.10405 11.048C1.53605 11.76 1.24805 12.584 1.24805 13.504V13.504ZM5.57605 18.864C5.57605 19.008 5.61605 19.152 5.70405 19.288C5.79205 19.432 5.91205 19.52 6.06405 19.576C6.21605 19.632 6.38405 19.616 6.55205 19.528C6.72805 19.44 6.84005 19.296 6.90405 19.088L7.10405 18.248C7.16005 18.08 7.14405 17.92 7.04805 17.752C6.96085 17.5913 6.81452 17.4708 6.64005 17.416C6.44005 17.368 6.26405 17.392 6.10405 17.48C5.94405 17.568 5.84805 17.72 5.80805 17.904L5.58405 18.696C5.58405 18.736 5.57605 18.792 5.57605 18.864V18.864ZM6.62405 15.088C6.62405 15.392 6.79205 15.6 7.13605 15.72C7.31205 15.784 7.48005 15.768 7.64805 15.68C7.81605 15.592 7.92005 15.448 7.97605 15.256L8.16805 14.432C8.22405 14.264 8.20805 14.104 8.11205 13.936C8.0709 13.8549 8.01341 13.7832 7.9432 13.7253C7.87298 13.6675 7.79156 13.6248 7.70405 13.6C7.51205 13.552 7.32805 13.568 7.16805 13.664C7.00805 13.76 6.91205 13.896 6.87205 14.08L6.63205 14.896C6.63205 14.96 6.62405 15.024 6.62405 15.088V15.088ZM7.60005 21.4C7.60005 21.528 7.64805 21.664 7.73605 21.8C7.82405 21.936 7.96005 22.032 8.12805 22.088C8.13605 22.088 8.16005 22.088 8.20805 22.096C8.25605 22.104 8.29605 22.104 8.32805 22.104C8.44005 22.104 8.53605 22.088 8.62405 22.048C8.77605 21.984 8.88805 21.832 8.95205 21.584L9.16805 20.792C9.22405 20.608 9.20805 20.432 9.11205 20.272C9.02385 20.1155 8.87709 20.0004 8.70405 19.952C8.61851 19.923 8.52768 19.913 8.43787 19.9227C8.34807 19.9323 8.26145 19.9615 8.18405 20.008C8.02405 20.104 7.91205 20.24 7.86405 20.416L7.64005 21.232C7.60805 21.304 7.60005 21.36 7.60005 21.4V21.4ZM7.96805 3.74401C7.96805 3.94401 8.03205 4.11201 8.16805 4.24001L8.69605 4.76001C8.96805 5.03201 9.28005 5.03201 9.63205 4.76001C9.75722 4.6286 9.82612 4.45349 9.82405 4.27201C9.82405 4.08801 9.76005 3.92801 9.63205 3.78401L9.12805 3.25601C9.06538 3.19293 8.99047 3.14336 8.90792 3.11034C8.82536 3.07732 8.73692 3.06155 8.64805 3.06401C8.46405 3.06401 8.30405 3.12801 8.16805 3.26401C8.03205 3.39201 7.96805 3.55201 7.96805 3.74401V3.74401ZM8.68005 17.568C8.68005 17.704 8.72005 17.84 8.80805 17.976C8.89605 18.112 9.01605 18.2 9.18405 18.256C9.36805 18.312 9.53605 18.296 9.69605 18.216C9.84805 18.136 9.96005 17.984 10.016 17.768L10.208 16.96C10.264 16.776 10.248 16.6 10.16 16.44C10.1167 16.3594 10.0575 16.2883 9.9861 16.2311C9.91465 16.1739 9.83238 16.1317 9.74424 16.1071C9.65609 16.0824 9.56387 16.0758 9.47311 16.0877C9.38235 16.0995 9.29492 16.1296 9.21605 16.176C9.05605 16.272 8.95205 16.416 8.92005 16.6L8.69605 17.424C8.68005 17.448 8.68005 17.496 8.68005 17.568V17.568ZM10.904 18.944C10.92 19.248 11.088 19.464 11.408 19.608L11.608 19.64C11.736 19.64 11.864 19.6 11.984 19.512C12.104 19.424 12.192 19.296 12.24 19.112L12.472 18.304C12.4967 18.2157 12.503 18.1234 12.4906 18.0326C12.4782 17.9418 12.4474 17.8545 12.4 17.776C12.304 17.616 12.16 17.512 11.976 17.48C11.808 17.424 11.648 17.44 11.48 17.536C11.312 17.632 11.208 17.768 11.152 17.944L10.936 18.76C10.928 18.776 10.928 18.8 10.92 18.824C10.912 18.848 10.912 18.872 10.904 18.888C10.896 18.904 10.904 18.928 10.904 18.944V18.944ZM12.024 15.136C12.024 15.264 12.064 15.392 12.144 15.52C12.224 15.648 12.344 15.736 12.504 15.776L12.704 15.8C12.856 15.8 13 15.752 13.12 15.656C13.24 15.56 13.312 15.432 13.344 15.28L13.56 14.488C13.616 14.296 13.6 14.128 13.504 13.968C13.4621 13.89 13.404 13.8219 13.3336 13.7681C13.2633 13.7143 13.1823 13.6761 13.096 13.656C13.0121 13.6275 12.9232 13.6171 12.8349 13.6254C12.7467 13.6336 12.6612 13.6604 12.584 13.704C12.424 13.792 12.32 13.928 12.272 14.104L12.032 14.952C12.032 15.016 12.024 15.08 12.024 15.136V15.136ZM12.288 7.24801C12.816 6.73601 13.456 6.48001 14.208 6.48001C14.992 6.48001 15.664 6.76001 16.216 7.31201C16.768 7.86401 17.048 8.53601 17.048 9.32001C17.048 9.76801 16.92 10.24 16.672 10.728C15.904 9.96001 14.984 9.58401 13.896 9.58401H13.624C13.4236 8.68878 12.958 7.87474 12.288 7.24801V7.24801ZM13.52 3.06401C13.5168 3.15418 13.5322 3.24406 13.5652 3.32803C13.5982 3.412 13.6482 3.48826 13.712 3.55206C13.7758 3.61587 13.8521 3.66584 13.936 3.69886C14.02 3.73189 14.1099 3.74726 14.2 3.74401C14.2902 3.74726 14.3801 3.73189 14.4641 3.69886C14.548 3.66584 14.6243 3.61587 14.6881 3.55206C14.7519 3.48826 14.8019 3.412 14.8349 3.32803C14.8679 3.24406 14.8833 3.15418 14.88 3.06401V1.44801C14.88 1.24801 14.816 1.08001 14.688 0.95201C14.56 0.82401 14.4 0.76001 14.2 0.76001C14 0.76001 13.84 0.82401 13.712 0.95201C13.584 1.08001 13.52 1.24801 13.52 1.44801V3.06401V3.06401ZM17.96 4.89601C17.96 5.09601 18.024 5.25601 18.144 5.38401C18.312 5.52001 18.472 5.58401 18.64 5.58401C18.792 5.58401 18.944 5.52001 19.112 5.38401L20.256 4.24001C20.384 4.09601 20.448 3.92801 20.448 3.73601C20.448 3.54401 20.384 3.38401 20.256 3.25601C20.128 3.12801 19.968 3.06401 19.784 3.06401C19.6 3.06401 19.44 3.12801 19.296 3.25601L18.144 4.40001C18.024 4.54401 17.96 4.70401 17.96 4.89601V4.89601ZM18.592 14.36C18.592 14.544 18.664 14.712 18.8 14.864L19.296 15.376C19.464 15.544 19.624 15.624 19.792 15.624C19.944 15.624 20.104 15.544 20.256 15.376C20.4 15.232 20.472 15.064 20.464 14.888C20.46 14.707 20.3854 14.5347 20.256 14.408L19.736 13.88C19.6772 13.8186 19.6063 13.7698 19.5279 13.7368C19.4495 13.7038 19.3651 13.6872 19.28 13.688C19.088 13.688 18.928 13.752 18.792 13.888C18.664 14.016 18.592 14.176 18.592 14.36V14.36ZM19.768 9.31201C19.768 9.48801 19.832 9.64801 19.96 9.77601C20.088 9.90401 20.248 9.96801 20.424 9.96801H22.056C22.264 9.96801 22.432 9.90401 22.56 9.78401C22.688 9.65601 22.752 9.50401 22.752 9.31201C22.752 9.11201 22.688 8.94401 22.552 8.81601C22.4863 8.75269 22.4085 8.70311 22.3234 8.67014C22.2382 8.63718 22.1473 8.6215 22.056 8.62401H20.424C20.24 8.62401 20.08 8.68801 19.952 8.82401C19.832 8.96001 19.768 9.12801 19.768 9.31201V9.31201Z"
    fill="#0f172a" />
</svg>
