<svg width="24" height="24" viewBox="0 0 24 24" fill="none" xmlns="http://www.w3.org/2000/svg">
  <path
    d="M1.19189 13.504C1.19189 14.4 1.45589 15.2 1.99189 15.904C2.52789 16.608 3.21589 17.08 4.05589 17.312L3.52789 18.672C3.48789 18.784 3.52789 18.848 3.63989 18.848H5.34389L4.19989 22.216H4.43189L7.91989 17.688C7.95189 17.656 7.95189 17.616 7.93589 17.576C7.91989 17.536 7.87989 17.52 7.82389 17.52H6.07189L8.06389 13.8C8.11989 13.688 8.08789 13.624 7.95189 13.624H5.58389C5.51189 13.624 5.44789 13.664 5.39989 13.744L4.54389 16.048C3.97582 15.9136 3.47231 15.5854 3.11989 15.12C2.74389 14.648 2.55989 14.112 2.55989 13.504C2.55989 12.832 2.78389 12.248 3.23189 11.76C3.67989 11.272 4.24789 10.984 4.91989 10.904L5.32789 10.88C5.42389 10.88 5.47989 10.84 5.50389 10.768L5.55989 10.296C5.64789 9.43202 6.00789 8.70402 6.65589 8.12002C7.30389 7.53602 8.0639 7.24002 8.9439 7.24002C9.8159 7.24002 10.5759 7.53602 11.2319 8.12002C11.8879 8.70402 12.2639 9.43202 12.3519 10.296L12.4159 10.768C12.4159 10.856 12.4639 10.904 12.5599 10.904H13.8479C14.5599 10.904 15.1759 11.16 15.6959 11.672C16.2159 12.184 16.4719 12.792 16.4719 13.504C16.4719 14.2 16.2319 14.8 15.7519 15.312C15.2719 15.824 14.6959 16.096 14.0079 16.136C13.9039 16.136 13.8479 16.184 13.8479 16.28V17.352C13.8479 17.44 13.9039 17.488 14.0079 17.488C14.7119 17.472 15.3599 17.28 15.9439 16.912C16.5279 16.552 16.9919 16.064 17.3359 15.464C17.6799 14.864 17.8479 14.208 17.8479 13.504C17.8479 12.92 17.7359 12.384 17.5039 11.888C18.1119 11.12 18.4159 10.24 18.4159 9.25602C18.4159 8.49602 18.2239 7.79202 17.8479 7.14402C17.4809 6.50505 16.9509 5.97498 16.3119 5.60802C15.6639 5.23202 14.9599 5.04002 14.1999 5.04002C13.6239 5.04002 13.0639 5.16002 12.5199 5.40002C11.9759 5.64002 11.5119 5.97602 11.1119 6.40002C10.4639 6.05602 9.74389 5.88002 8.93589 5.88002C7.79989 5.88002 6.79189 6.23202 5.91989 6.93602C5.04789 7.64002 4.47989 8.53602 4.23989 9.63202C3.35189 9.84002 2.62389 10.304 2.04789 11.024C1.47989 11.76 1.19189 12.584 1.19189 13.504V13.504ZM7.49589 21.68C7.49589 21.816 7.53589 21.944 7.62389 22.072C7.71189 22.2 7.8399 22.288 8.0159 22.336C8.0879 22.352 8.1519 22.36 8.2079 22.36C8.5519 22.36 8.7679 22.2 8.8479 21.872L8.95189 21.4C9.00135 21.2172 8.97842 21.0224 8.88789 20.856C8.84324 20.7786 8.78211 20.712 8.70883 20.6608C8.63556 20.6097 8.55194 20.5753 8.46389 20.56C8.38095 20.5317 8.29276 20.522 8.20563 20.5317C8.11851 20.5413 8.0346 20.5701 7.95989 20.616C7.79189 20.712 7.68789 20.848 7.63189 21.024L7.52789 21.496C7.50389 21.592 7.49589 21.656 7.49589 21.68V21.68ZM7.91989 3.67202C7.91989 3.85602 7.98389 4.01602 8.11989 4.15202L8.63989 4.68002C8.76789 4.80802 8.9119 4.87202 9.0799 4.88802C9.2479 4.91202 9.40789 4.85602 9.56789 4.70402C9.72789 4.56002 9.8079 4.39202 9.8079 4.19202C9.8079 4.00802 9.7439 3.84802 9.6079 3.71202L9.10389 3.18402C9.04123 3.12094 8.96632 3.07137 8.88376 3.03835C8.80121 3.00533 8.71277 2.98956 8.62389 2.99202C8.42389 2.99202 8.25589 3.05602 8.11989 3.18402C7.99189 3.32802 7.91989 3.48802 7.91989 3.67202ZM8.12789 19.36C8.12789 19.544 8.19189 19.696 8.31989 19.824C8.44789 19.952 8.60789 20.016 8.78389 20.016C8.97589 20.016 9.12789 19.952 9.25589 19.832C9.38389 19.704 9.43989 19.552 9.43989 19.36C9.44286 19.2734 9.42786 19.1872 9.39584 19.1067C9.36381 19.0262 9.31546 18.9532 9.25383 18.8923C9.1922 18.8315 9.11862 18.784 9.03774 18.753C8.95686 18.7219 8.87043 18.708 8.78389 18.712C8.59189 18.712 8.4399 18.776 8.3119 18.896C8.25171 18.9571 8.2044 19.0296 8.17279 19.1093C8.14119 19.1891 8.12592 19.2743 8.12789 19.36V19.36ZM8.62389 17.544C8.61589 17.664 8.64789 17.792 8.73589 17.92C8.81589 18.048 8.93589 18.128 9.09589 18.16C9.27989 18.208 9.4479 18.192 9.6079 18.112C9.7679 18.032 9.87189 17.88 9.93589 17.664L10.1439 16.944C10.1999 16.768 10.1839 16.6 10.0879 16.44C10.0417 16.3614 9.9805 16.2927 9.90774 16.2378C9.83499 16.1829 9.75213 16.1429 9.66389 16.12C9.48789 16.064 9.31989 16.088 9.15189 16.184C8.98389 16.28 8.87989 16.424 8.82389 16.608L8.63989 17.328C8.63189 17.392 8.62389 17.464 8.62389 17.544V17.544ZM10.8319 19.264C10.8319 19.4 10.8719 19.528 10.9519 19.648C11.0319 19.768 11.1519 19.856 11.3199 19.904C11.3439 19.904 11.3839 19.912 11.4319 19.92C11.4799 19.928 11.5199 19.936 11.5439 19.936C11.8719 19.936 12.0719 19.76 12.1519 19.408L12.2639 18.928C12.3199 18.76 12.3039 18.592 12.2079 18.424C12.1202 18.2654 11.9737 18.1476 11.7999 18.096C11.5999 18.048 11.4159 18.064 11.2559 18.16C11.0959 18.256 10.9839 18.392 10.9279 18.584L10.8559 19.056C10.8559 19.064 10.8559 19.096 10.8479 19.144C10.8399 19.2 10.8319 19.232 10.8319 19.264V19.264ZM11.4239 16.896C11.4239 17.08 11.4879 17.232 11.6159 17.352C11.7359 17.48 11.8879 17.544 12.0799 17.544C12.2719 17.544 12.4239 17.48 12.5519 17.36C12.6799 17.232 12.7359 17.08 12.7359 16.896C12.7359 16.704 12.6719 16.552 12.5519 16.424C12.4903 16.3622 12.4166 16.3139 12.3353 16.2822C12.254 16.2506 12.167 16.2362 12.0799 16.24C11.8879 16.24 11.7359 16.304 11.6079 16.424C11.4879 16.552 11.4239 16.704 11.4239 16.896ZM12.2479 7.21602C12.7839 6.70402 13.4319 6.44002 14.2079 6.44002C14.9919 6.44002 15.6639 6.71202 16.2159 7.26402C16.7679 7.80802 17.0479 8.48002 17.0479 9.26402C17.0479 9.79202 16.9199 10.272 16.6719 10.712C15.9039 9.94402 14.9679 9.56002 13.8559 9.56002H13.6079C13.3759 8.60802 12.9199 7.82402 12.2479 7.21602ZM13.5279 3.00002C13.5279 3.19202 13.5919 3.35202 13.7279 3.48802C13.8639 3.62402 14.0239 3.68802 14.2079 3.68802C14.3999 3.68802 14.5599 3.62402 14.6879 3.48802C14.8159 3.35202 14.8799 3.19202 14.8799 3.00002V1.35202C14.8799 1.16002 14.8159 0.992021 14.6879 0.864021C14.6272 0.797258 14.5531 0.744178 14.4703 0.708314C14.3875 0.672449 14.2981 0.654623 14.2079 0.656021C14.0159 0.656021 13.8559 0.720021 13.7279 0.856021C13.5999 0.992021 13.5279 1.15202 13.5279 1.34402V3.00002V3.00002ZM17.9919 4.83202C17.9919 5.02402 18.0559 5.18402 18.1759 5.31202C18.2879 5.44002 18.4319 5.50402 18.6159 5.52002C18.7999 5.53602 18.9679 5.46402 19.1199 5.31202L20.2719 4.16002C20.4159 4.03202 20.4799 3.87202 20.4799 3.68002C20.4799 3.48802 20.4079 3.32802 20.2719 3.20002C20.2124 3.13181 20.1385 3.07774 20.0554 3.04176C19.9724 3.00577 19.8823 2.98878 19.7919 2.99202C19.6079 2.99202 19.4559 3.06402 19.3279 3.20002L18.1759 4.35202C18.0479 4.47202 17.9919 4.63202 17.9919 4.83202V4.83202ZM18.6079 14.36C18.6079 14.544 18.6719 14.704 18.8079 14.84L19.3279 15.344C19.4719 15.48 19.6399 15.544 19.8239 15.544L19.8399 15.56C20.0159 15.56 20.1599 15.488 20.2719 15.344C20.3401 15.2845 20.3942 15.2106 20.4302 15.1275C20.4661 15.0445 20.4831 14.9545 20.4799 14.864C20.4799 14.68 20.4079 14.52 20.2719 14.376L19.7759 13.88C19.7137 13.8124 19.6383 13.7584 19.5544 13.7212C19.4704 13.6841 19.3797 13.6646 19.2879 13.664C19.0959 13.664 18.9359 13.736 18.8079 13.872C18.6805 14.0026 18.6088 14.1776 18.6079 14.36V14.36ZM19.7839 9.26402C19.7839 9.45602 19.8559 9.61602 19.9919 9.73602C20.1199 9.88002 20.2799 9.94402 20.4719 9.94402H22.1199C22.3119 9.94402 22.4719 9.88002 22.6079 9.74402C22.7439 9.60802 22.8079 9.44802 22.8079 9.26402C22.8079 9.08002 22.7439 8.91202 22.6079 8.78402C22.5432 8.72142 22.4668 8.67222 22.3831 8.63927C22.2993 8.60632 22.2099 8.59026 22.1199 8.59202H20.4719C20.2799 8.59202 20.1119 8.65602 19.9839 8.78402C19.8479 8.91202 19.7839 9.07202 19.7839 9.26402V9.26402Z"
    fill="#0f172a" />
</svg>
