<svg width="24" height="24" viewBox="0 0 24 24" fill="none" xmlns="http://www.w3.org/2000/svg">
  <path
    d="M1.19189 13.504C1.19189 14.4 1.45589 15.2 1.99189 15.904C2.52789 16.608 3.21589 17.08 4.05589 17.312L3.52789 18.672C3.48789 18.784 3.52789 18.848 3.63989 18.848H5.34389L4.19989 22.216H4.43189L7.91989 17.688C7.95189 17.656 7.95189 17.616 7.93589 17.576C7.91989 17.536 7.87989 17.52 7.82389 17.52H6.07189L8.06389 13.8C8.11989 13.688 8.08789 13.624 7.95189 13.624H5.58389C5.51189 13.624 5.44789 13.664 5.39989 13.744L4.54389 16.048C3.97582 15.9136 3.47231 15.5854 3.11989 15.12C2.74389 14.648 2.55989 14.112 2.55989 13.504C2.55989 12.832 2.78389 12.248 3.23189 11.76C3.67989 11.272 4.24789 10.984 4.91989 10.904L5.32789 10.88C5.42389 10.88 5.47989 10.84 5.50389 10.768L5.55989 10.296C5.64789 9.43202 6.00789 8.70402 6.65589 8.12002C7.30389 7.53602 8.0639 7.24002 8.9439 7.24002C9.8159 7.24002 10.5759 7.53602 11.2319 8.12002C11.8879 8.70402 12.2639 9.43202 12.3519 10.296L12.4159 10.768C12.4159 10.856 12.4639 10.904 12.5599 10.904H13.8479C14.5599 10.904 15.1759 11.16 15.6959 11.672C16.2159 12.184 16.4719 12.792 16.4719 13.504C16.4719 14.2 16.2319 14.8 15.7519 15.312C15.2719 15.824 14.6959 16.096 14.0079 16.136C13.9039 16.136 13.8479 16.184 13.8479 16.28V17.352C13.8479 17.44 13.9039 17.488 14.0079 17.488C14.7119 17.472 15.3599 17.28 15.9439 16.912C16.5279 16.552 16.9919 16.064 17.3359 15.464C17.6799 14.864 17.8479 14.208 17.8479 13.504C17.8479 12.92 17.7359 12.384 17.5039 11.888C18.1119 11.12 18.4159 10.24 18.4159 9.25602C18.4159 8.49602 18.2239 7.79202 17.8479 7.14402C17.4809 6.50505 16.9509 5.97498 16.3119 5.60802C15.6639 5.23202 14.9599 5.04002 14.1999 5.04002C13.6239 5.04002 13.0639 5.16002 12.5199 5.40002C11.9759 5.64002 11.5119 5.97602 11.1119 6.40002C10.4639 6.05602 9.74389 5.88002 8.93589 5.88002C7.79989 5.88002 6.79189 6.23202 5.91989 6.93602C5.04789 7.64002 4.47989 8.53602 4.23989 9.63202C3.35189 9.84002 2.62389 10.304 2.04789 11.024C1.47989 11.76 1.19189 12.584 1.19189 13.504V13.504ZM7.91989 3.67202C7.91989 3.85602 7.98389 4.01602 8.11989 4.15202L8.63989 4.68002C8.76789 4.80802 8.9119 4.87202 9.0799 4.88802C9.2479 4.91202 9.40789 4.85602 9.56789 4.70402C9.72789 4.56002 9.8079 4.39202 9.8079 4.19202C9.8079 4.00802 9.7439 3.84802 9.6079 3.71202L9.10389 3.18402C9.04123 3.12094 8.96632 3.07137 8.88376 3.03835C8.80121 3.00533 8.71277 2.98956 8.62389 2.99202C8.42389 2.99202 8.25589 3.05602 8.11989 3.18402C7.99189 3.32802 7.91989 3.48802 7.91989 3.67202ZM8.86389 18.368C8.86389 18.56 8.92789 18.72 9.05589 18.84C9.18389 18.968 9.34389 19.032 9.51989 19.032C9.71189 19.032 9.8719 18.968 10.0079 18.84C10.1439 18.712 10.2079 18.552 10.2079 18.368C10.2079 18.176 10.1439 18.016 10.0079 17.88C9.8719 17.744 9.71189 17.672 9.51989 17.672C9.34389 17.672 9.19189 17.744 9.05589 17.88C8.91989 18.016 8.86389 18.176 8.86389 18.368ZM8.86389 15.456C8.86389 15.648 8.92789 15.8 9.05589 15.92C9.18389 16.048 9.34389 16.112 9.51989 16.112C9.71189 16.112 9.8799 16.048 10.0079 15.928C10.1359 15.808 10.2079 15.648 10.2079 15.456C10.2079 15.272 10.1439 15.112 10.0079 14.976C9.8719 14.84 9.71189 14.776 9.51989 14.776C9.33589 14.776 9.18389 14.84 9.05589 14.976C8.92789 15.112 8.86389 15.272 8.86389 15.456V15.456ZM8.86389 21.304C8.86389 21.48 8.92789 21.632 9.05589 21.76C9.19189 21.896 9.34389 21.96 9.51989 21.96C9.71189 21.96 9.8719 21.896 10.0079 21.768C10.1439 21.64 10.2079 21.488 10.2079 21.296C10.2079 21.104 10.1439 20.944 10.0079 20.808C9.94516 20.7417 9.86946 20.6891 9.78551 20.6533C9.70156 20.6175 9.61115 20.5994 9.51989 20.6C9.34389 20.6 9.19189 20.672 9.05589 20.808C8.92789 20.952 8.86389 21.12 8.86389 21.304V21.304ZM11.4479 16.816C11.4479 17.008 11.5119 17.168 11.6479 17.296C11.7839 17.424 11.9359 17.496 12.1279 17.496C12.3119 17.496 12.4719 17.432 12.5999 17.296C12.7279 17.16 12.7919 17 12.7919 16.816C12.7919 16.64 12.7279 16.48 12.5999 16.352C12.5388 16.2891 12.4653 16.2395 12.3841 16.2064C12.3028 16.1734 12.2156 16.1576 12.1279 16.16C11.9439 16.16 11.7839 16.224 11.6479 16.352C11.5119 16.48 11.4479 16.632 11.4479 16.816ZM11.4479 19.728C11.4479 19.912 11.5119 20.064 11.6399 20.192C11.7679 20.32 11.9279 20.384 12.1199 20.384C12.3119 20.384 12.4639 20.32 12.5919 20.192C12.7199 20.064 12.7759 19.912 12.7759 19.72C12.7759 19.528 12.7119 19.376 12.5919 19.248C12.5303 19.1862 12.4566 19.1379 12.3753 19.1062C12.294 19.0746 12.207 19.0602 12.1199 19.064C11.9279 19.064 11.7679 19.128 11.6399 19.248C11.5119 19.376 11.4479 19.536 11.4479 19.728ZM12.2479 7.21602C12.7839 6.70402 13.4319 6.44002 14.2079 6.44002C14.9919 6.44002 15.6639 6.71202 16.2159 7.26402C16.7679 7.80802 17.0479 8.48002 17.0479 9.26402C17.0479 9.79202 16.9199 10.272 16.6719 10.712C15.9039 9.94402 14.9679 9.56002 13.8559 9.56002H13.6079C13.3759 8.60802 12.9199 7.82402 12.2479 7.21602V7.21602ZM13.5279 3.00002C13.5279 3.19202 13.5919 3.35202 13.7279 3.48802C13.8639 3.62402 14.0239 3.68802 14.2079 3.68802C14.3999 3.68802 14.5599 3.62402 14.6879 3.48802C14.8159 3.35202 14.8799 3.19202 14.8799 3.00002V1.35202C14.8799 1.16002 14.8159 0.992021 14.6879 0.864021C14.6272 0.797258 14.5531 0.744178 14.4703 0.708314C14.3875 0.672449 14.2981 0.654623 14.2079 0.656021C14.0159 0.656021 13.8559 0.720021 13.7279 0.856021C13.5999 0.992021 13.5279 1.15202 13.5279 1.34402V3.00002ZM17.9919 4.83202C17.9919 5.02402 18.0559 5.18402 18.1759 5.31202C18.2879 5.44002 18.4319 5.50402 18.6159 5.52002C18.7999 5.53602 18.9679 5.46402 19.1199 5.31202L20.2719 4.16002C20.4159 4.03202 20.4799 3.87202 20.4799 3.68002C20.4799 3.48802 20.4079 3.32802 20.2719 3.20002C20.2124 3.13181 20.1385 3.07774 20.0554 3.04176C19.9724 3.00577 19.8823 2.98878 19.7919 2.99202C19.6079 2.99202 19.4559 3.06402 19.3279 3.20002L18.1759 4.35202C18.0479 4.47202 17.9919 4.63202 17.9919 4.83202V4.83202ZM18.6079 14.36C18.6079 14.544 18.6719 14.704 18.8079 14.84L19.3279 15.344C19.4719 15.48 19.6399 15.544 19.8239 15.544L19.8399 15.56C20.0159 15.56 20.1599 15.488 20.2719 15.344C20.3401 15.2845 20.3942 15.2106 20.4302 15.1275C20.4661 15.0445 20.4831 14.9545 20.4799 14.864C20.4799 14.68 20.4079 14.52 20.2719 14.376L19.7759 13.88C19.7137 13.8124 19.6383 13.7584 19.5544 13.7212C19.4704 13.6841 19.3797 13.6646 19.2879 13.664C19.0959 13.664 18.9359 13.736 18.8079 13.872C18.6805 14.0026 18.6088 14.1776 18.6079 14.36V14.36ZM19.7839 9.26402C19.7839 9.45602 19.8559 9.61602 19.9919 9.73602C20.1199 9.88002 20.2799 9.94402 20.4719 9.94402H22.1199C22.3119 9.94402 22.4719 9.88002 22.6079 9.74402C22.7439 9.60802 22.8079 9.44802 22.8079 9.26402C22.8079 9.08002 22.7439 8.91202 22.6079 8.78402C22.5432 8.72142 22.4668 8.67222 22.3831 8.63927C22.2993 8.60632 22.2099 8.59026 22.1199 8.59202H20.4719C20.2799 8.59202 20.1119 8.65602 19.9839 8.78402C19.8479 8.91202 19.7839 9.07202 19.7839 9.26402V9.26402Z"
    fill="#0f172a" />
</svg>
