<svg width="24" height="24" viewBox="0 0 24 24" fill="none" xmlns="http://www.w3.org/2000/svg">
  <path
    d="M5 11.9969C5 13.2657 5.31097 14.4411 5.93914 15.5109C6.5673 16.5806 7.41315 17.4389 8.48912 18.0609C9.56508 18.6828 10.7343 19 12.0031 19C13.2719 19 14.4411 18.689 15.5171 18.0609C16.5931 17.4327 17.4389 16.5868 18.0609 15.5109C18.6828 14.4349 19 13.2657 19 11.9969C19 10.7281 18.689 9.55886 18.0609 8.4829C17.4327 7.40693 16.5869 6.56108 15.5171 5.93914C14.4474 5.31719 13.2719 5 12.0031 5C10.7343 5 9.56508 5.31719 8.48912 5.93914C7.41315 6.56108 6.56108 7.41315 5.93914 8.4829C5.31719 9.55264 5 10.7281 5 11.9969Z"
    fill="#0f172a" />
</svg>
