<svg width="24" height="24" viewBox="0 0 24 24" fill="none" xmlns="http://www.w3.org/2000/svg">
  <path
    d="M5 12.0062C5 11.0559 5.18634 10.1429 5.5528 9.2795C5.91925 8.41615 6.42236 7.67081 7.04348 7.04348C7.6646 6.41615 8.40994 5.91925 9.2795 5.5528C10.1491 5.18634 11.0497 5 11.9938 5C12.9441 5 13.8571 5.18634 14.7205 5.5528C15.5839 5.91925 16.3292 6.42236 16.9565 7.04348C17.5839 7.6646 18.0807 8.40994 18.4472 9.2795C18.8137 10.1491 19 11.0497 19 12.0062C19 12.9503 18.8137 13.8571 18.4472 14.7205C18.0807 15.5839 17.5776 16.3292 16.9565 16.9565C16.3354 17.5839 15.5901 18.0807 14.7205 18.4472C13.8509 18.8137 12.9503 19 11.9938 19C11.0497 19 10.1429 18.8137 9.2795 18.4472C8.41615 18.0807 7.67081 17.5776 7.04348 16.9565C6.41615 16.3354 5.91925 15.5901 5.5528 14.7205C5.18634 13.8509 5 12.9565 5 12.0062V12.0062ZM5.74534 12.0062C5.74534 12.8509 5.91304 13.6584 6.24224 14.4286C6.57143 15.1988 7.01863 15.8696 7.57764 16.4286C8.13665 16.9876 8.80124 17.4286 9.57764 17.764C10.354 18.0994 11.1615 18.2609 12 18.2609C12.8509 18.2609 13.6584 18.0932 14.4286 17.764C15.1988 17.4348 15.8634 16.9876 16.4286 16.4286C16.9938 15.8696 17.4348 15.205 17.764 14.4286C18.0932 13.6522 18.2609 12.8447 18.2609 12.0062C18.2609 10.8758 17.9814 9.8323 17.4224 8.86957C16.8634 7.90683 16.0994 7.14907 15.1366 6.58385C14.1739 6.01863 13.1304 5.74534 12 5.74534C11.1553 5.74534 10.3478 5.91304 9.57764 6.24224C8.80745 6.57143 8.13665 7.01863 7.57764 7.58385C7.01863 8.14907 6.57764 8.81366 6.24224 9.58385C5.90683 10.354 5.74534 11.1615 5.74534 12.0062Z"
    fill="#0f172a" />
</svg>
