<svg width="24" height="24" viewBox="0 0 24 24" fill="none" xmlns="http://www.w3.org/2000/svg">
  <path
    d="M8.00134 12C8.00134 12.6398 8.03863 13.2236 8.11319 13.7578C8.18776 14.2919 8.31204 14.8323 8.49846 15.3665C8.68488 15.9006 8.92722 16.3913 9.21927 16.8199C9.51133 17.2484 9.90281 17.6584 10.3689 18.0373C10.8349 18.4161 11.3817 18.7329 12.0031 19C12.9539 19 13.8611 18.8137 14.7248 18.4472C15.5886 18.0807 16.328 17.5776 16.9556 16.9565C17.5832 16.3354 18.0803 15.5901 18.447 14.7205C18.8136 13.8509 19 12.9503 19 11.9938C19 10.7267 18.6893 9.5528 18.0617 8.48447C17.4341 7.41615 16.589 6.55901 15.514 5.93789C14.439 5.31677 13.2708 5 12.0031 5C10.7665 5.62112 9.79096 6.55901 9.07014 7.82609C8.34932 9.09317 8.00134 10.4845 8.00134 12V12Z"
    fill="#0f172a" />
</svg>
